<mxfile host="app.diagrams.net" modified="2024-02-22T12:12:10.187Z" agent="Mozilla/5.0 (Macintosh; Intel Mac OS X 10_15_7) AppleWebKit/537.36 (KHTML, like Gecko) Chrome/121.0.0.0 Safari/537.36" etag="R9lU0vix6Cd0Q1d4z-ZG" version="23.1.5" type="github">
  <diagram name="第 1 页" id="2zWHf3xw1QljtgxjaVwz">
    <mxGraphModel dx="954" dy="640" grid="0" gridSize="10" guides="1" tooltips="1" connect="1" arrows="1" fold="1" page="0" pageScale="1" pageWidth="827" pageHeight="1169" math="0" shadow="0">
      <root>
        <mxCell id="0" />
        <mxCell id="1" parent="0" />
        <mxCell id="V0m3F8l0XvwCJWidBoo5-2" value="任务描述" style="rounded=1;whiteSpace=wrap;html=1;fillColor=#ffe6cc;strokeColor=#d79b00;" vertex="1" parent="1">
          <mxGeometry x="533" y="213" width="120" height="33" as="geometry" />
        </mxCell>
        <mxCell id="V0m3F8l0XvwCJWidBoo5-3" value="抽取规则" style="rounded=1;whiteSpace=wrap;html=1;fillColor=#fff2cc;strokeColor=#d6b656;" vertex="1" parent="1">
          <mxGeometry x="533" y="256" width="120" height="33" as="geometry" />
        </mxCell>
        <mxCell id="V0m3F8l0XvwCJWidBoo5-4" value="输出格式" style="rounded=1;whiteSpace=wrap;html=1;fillColor=#f8cecc;strokeColor=#b85450;" vertex="1" parent="1">
          <mxGeometry x="533" y="299" width="120" height="33" as="geometry" />
        </mxCell>
        <mxCell id="V0m3F8l0XvwCJWidBoo5-5" value="待抽取句子" style="rounded=1;whiteSpace=wrap;html=1;fillColor=#e1d5e7;strokeColor=#9673a6;" vertex="1" parent="1">
          <mxGeometry x="533" y="343" width="120" height="33" as="geometry" />
        </mxCell>
        <mxCell id="V0m3F8l0XvwCJWidBoo5-22" style="edgeStyle=orthogonalEdgeStyle;rounded=0;orthogonalLoop=1;jettySize=auto;html=1;exitX=1;exitY=0.5;exitDx=0;exitDy=0;entryX=0.5;entryY=0;entryDx=0;entryDy=0;curved=1;fillColor=#ffe6cc;strokeColor=#d79b00;" edge="1" parent="1" source="V0m3F8l0XvwCJWidBoo5-6" target="V0m3F8l0XvwCJWidBoo5-12">
          <mxGeometry relative="1" as="geometry" />
        </mxCell>
        <mxCell id="V0m3F8l0XvwCJWidBoo5-23" style="edgeStyle=orthogonalEdgeStyle;rounded=0;orthogonalLoop=1;jettySize=auto;html=1;exitX=1;exitY=0.5;exitDx=0;exitDy=0;entryX=0.5;entryY=0;entryDx=0;entryDy=0;curved=1;fillColor=#fff2cc;strokeColor=#d6b656;" edge="1" parent="1" source="V0m3F8l0XvwCJWidBoo5-6" target="V0m3F8l0XvwCJWidBoo5-17">
          <mxGeometry relative="1" as="geometry" />
        </mxCell>
        <mxCell id="V0m3F8l0XvwCJWidBoo5-26" style="edgeStyle=orthogonalEdgeStyle;rounded=0;orthogonalLoop=1;jettySize=auto;html=1;exitX=1;exitY=0.5;exitDx=0;exitDy=0;entryX=0;entryY=0.5;entryDx=0;entryDy=0;curved=1;fillColor=#e1d5e7;strokeColor=#9673a6;" edge="1" parent="1" source="V0m3F8l0XvwCJWidBoo5-6" target="V0m3F8l0XvwCJWidBoo5-5">
          <mxGeometry relative="1" as="geometry" />
        </mxCell>
        <mxCell id="V0m3F8l0XvwCJWidBoo5-6" value="用户抽取请求" style="shape=image;imageAspect=0;aspect=fixed;verticalLabelPosition=bottom;verticalAlign=top;image=data:image/png,iVBORw0KGgoAAAANSUhEUgAAAMgAAADICAYAAACtWK6eAAAAAXNSR0IArs4c6QAAIABJREFUeF7tXQuUHFWZ/v7qmSRgAtPVMwFRdvPo6gkaBQGNPESRlcciJAQBAWUNr0lXTyKPZSNZ5aEsEFfBTaarE0DjCoIYMcDyEAHxKOG1YUEIMJnqIShKgExXJxOUPKbr36nOJE4m091VXdXd1dW3zuFET//P77/f1K2qe/9LEFd1EFisj20ZY06TcqFpQO4gQBoP4glgTCCi8SYwQQI2g9APps0MczND2gDm7qaQ1L1h7lS9OoEKL8MRIAGH9whMvPX1/Qa25Q5mCYeCcQQB0wFMcekpB9BrDH4RjKcJ9GIIW17akJj+nku7Qr0IAoIgHg2P1i79UCY6i8k8EaCPe2S2qBkGthLwPAP3NzHdsyERTVfDbyP5EARxWW05mT4LwFkgPs2lKXfqhG0A3QOY9xjx2D3ujAntnQgIgpQxFtqSa8abNG4OwHMY+EQZJiqqwsDzAN2SVaO3VNRRAxgXBHFQ5Lbkuv1NGphjAucTEHWgWhNRQRT3sAuC2MQwnEp3EPNCAP9gU8VHYvR7Bm7IqtGHfRRUXYQiCFKiTJGunhlmiK4kxsy6qGiRIBm8pImbr9+QmPx2vedSrfgFQYogLSfXXgOSrgQwploFqbQfBtIS4duZuHJ7pX0Fwb4gyChVjCxbNw25gUUMnBqEIhfI4QdG69YFOHP6tgDn6Do1QZAREIa1nnOIaBEYH3aNrt8NMH4HwgJDVZ7xe6i1ik8QZBjykVR6ETP/W62KURu//B5IusyIR2+tjX9/exUEGapPWNPvo2BPqUqNxJsMVbm8lFCj/S4IAkDWeroBam+04o/Ml4F7s6pS2xUBPitCwxNE1nT2WU1qHc4jg88kJ9Y6CL/4b2iCyFrP7wD6jF+K4Zc4CPj3jKpc75d4ahlHwxJE1vSbAVxSS/D97du8yFDbb/N3jJWPriEJIms93wHom5WHt849MH3ZSETvrvMsXIXfcATJf+cA/dQVag2jTOuZth2fjX9kTcOkPCLRhiKI9YWczYFHG+IjoGcjmh401OgXPTNXZ4YaiyCafl/Al49UaPjxdYYa+1aFjPvabMMQZGjh4dW+roaPgyMTszKdyn0+DrEioTUEQawl6yzR74K0Krcio6G40WeN1q3HNNrixoYgSDil3xuE/Rw1IMXuLtm81ki0X1PzOKoYQOAJMrQTcGkVMQ2yq21k8jGZztizQU5yeG6BJoi1hzxHA1Yx63CbrD+HIBPuy8aVWf6MzvuoAk2QiKZfyYBYMuH1uGGcYCSUX3tt1o/2AksQqzXPAI19oR66j/hxYBSPiX9mqLGz6y9u5xEHliARLT2PwYudQyI0bCHAdJSRiD5lS7aOhQJMEP3//NjUrY7HysjQbzNU5aIA5TNqKoEkSDjV+0Vi83+CXrwa5/d+Dub0TWr76zWOo6LuA0kQWetZBtDFFUVOGAcBCzOqckOQoQgcQVoXdU8wJ4S6ARwQ5ML5IjfCH4y4cogvYqlQEIEjSDjZezaReWeF8BJmRyLAOMNIKL8IKjCBI4ic7FkOoq8FtWD+y4tvMdRYh//i8iai4BFE03s9OM3JG3QbwIrVQT6rKocHNdVAEaQl2XOIRPRCUIvl17ykzbl9+hZM2+zX+NzEFSiCyJpuNWGwmjGIq4oImDkcu3Ge8tsquqyaq0ARJKylVxK4YRbSVW2UlHLE9K9GIvr9UmL1+HugCCKL548ajUFebqix82vkvKJug0OQxfpYuQlbKoqWMD46AoynB1f3HhlEeAJDkJalaw+WTOnFIBbJ/zlR1lCjsv/jdB5hYAiSP46Z+GfOIRAaXiDQ1Bza/92LprzjhS0/2QgQQfLHpYmuJTUaXUF9kxUggujfA0Gcb1EjgjBJp2TjUx+okfuKuQ0OQcQK3ooNEjuGmaVzsompd9mRrSeZ4BAk2XMniBpiG6gfBxiDOrJq9BY/xuYmpsAQJKLp9w+uCzrFDRhC1wUCAf1YGBiChDX9CQI+56LEQtUNAgFtKhcYgog7iJvR7Ynu5Yaq3OSJJR8ZCQ5BUvodzDjXR9g2VihsXmwk2gN3lHRwCKKlUwye21ij0kfZBvQ0qsAQRNZ6vgvQFT4aMg0VCpvmydnO9oeClnRgCBLW0lcQ+LtBK1C95ENkzsjE25+rl3jtxhkcgiT1U4hwv93EhZy3CEhjW/bpu6AtcLsKA0OQtqW9Ss40e7wtu7BmE4G/GKryYZuydSUWGIJYqMuaPgAgVFcVCEKwxI8b8dg/BSGVkTkEjCDplwGeHsRC+TknBpJZVen0c4zlxhYwgui3AbigXDCEXpkIMC40EsoPy9T2tVrQCHIGgJ/7GvEABscIHZxVp7wUwNSs/sPBueRb9Q9jO94MTkZ1kUm/oSr71kWkZQQZKILkH9RT+lNgHFEGFkKlPAR+bajKCeWp+l8reARJ6jeBcKn/oQ9KhPw9Q40FdgVD4AgS1tInEThwSx78SieJ6fN9iegTfo3PbVyBI4gFSFjTdXF4p9uhYUt/laEqR9uSrFOhgBKkZzGB5tVpTeonbMZlRkIJdC/kgBJETLOqwLL3eNvWj2Yvmf6nKviqmYtAEmRomrWagMNqhmzgHQf74Jyd5QswQdIXE3hZ4MdpjRKUQIf3qdHna+S+am4DSxBxF6nkGGqMu4eFYMAJIu4ilaBJo9w9Ak8QK0FZS/8O4M9UYqA0ok0GL8mqsfmNknug7yA7plnijZZXg5mBdBM3fWZDYvLbXtn0u53AE2QHScR3EW8GIp9vqLHl3tiqDysNQZC25Lr9B2jg9+LruqtBucJQlTNdWahD5YYgiFWXSEr/KjN+Uoc18kPI75oD5vEb57f/wQ/BVDOGhiHIjgd23VoWYR0VLS4HCBDRnEw8+mMHKoERbSiC4Odrxsgbxj4KwjGBqWCFE2HQkqwabZi3ViPhbCyC7LiLfBrgRwEaX+GxFQTzq/beMu4Lf77swPeDkEw5OTQcQfJTrVT6IjAH7rCXcgZAQR3GRhBOMlTlGU/t1pmxhiTI0PPI9wFcVmf1qlq4DD43q8burJpDnzpqWIJY9Qhr+koCZvm0NjULi8DzM2psSc0C8JHjhibI0J3kVwAC23TA8VgjXGPElWsd6wVUoeEJYtU1oukLGfiPgNbYflqcO8lITLP+YIhrCAFBkCEgZG3thYAUuBOSbI70t5jozGw8usqmfMOICYIMK7WcTJ8Fws0Af7BhRgCwyhwwE434ldxOjQVBRqAUTr06nXjMjQCfbAfAepaxPgJ+YMvYBY38naNU/QRBCiAkaz3fAeibpQCs09/fJaIFjbp8xEnNBEGKoBXp0meyhCsBzHACqs9lV5gD5n+IKZW9KgmClMIpv36reSFIsogyppS4X3+3NjsR+PpG28/hth6CIDYRjHT1zDBDdCUxZtpU8Y2YtU22iZuvb6SdgF6BLwjiEEk5qR8P4jkAfdmhag3E+RYJ0i2N0J6nUuAKgpSJrJxMH7mDKDgXwF5lmqmE2nsA3ymI4Q20giAucdxXWzulCdJZTDgLjINdmnOjvgqMe3j71nuC3g7UDUhOdQVBnCJWRF5O6l8C8RcYdFgV2p5uZuB5YjwvgR4M8hEEHpbIsSlBEMeQ2VNoXdQ9YWDv0GGSRIeBzI+CaRqIpgEctmdhN6m/gLibmboBeikEPC+eK8pAsQwVQZAyQHOjMvHW1/fbtiV3EDVJ42FiAognEGMCkJsAkvrB5mYg1M+c2yyF0Edj5Nf6Lmjb7Man0C0fAUGQ8rETmg2AgCBIAxRZpFg+AoIg5WMnNBsAAUEQG0VuXfbGB3Nm7jAyBw4HSRMA7APGPvl/JRr6/7zj/+/4L2TDrFciAyD0g6kfMPsH99n3g9EPSdq0838zzA2AtIYYa4xEVJwj7wB5QZARYA0nA5F0KO84peoAB5j6XdQizisAryFIa0ADrzShac078ei7fg+8FvE1PEGsvr0mbTuBIZ0C4IiAkcHJmFpD4LtZol8ac5VXnSgGWbYhCWI1j2PG54joZIADfYxxWYOXaDUz/YJZemRjYvKLZdkIiFJjEGTZ6uawOeF0iUOfZfBxAJSA1K8aaTw1eGd9RMrlHuqbN211NRz6yUegCZJ/nshtP4+A8wB8xE/A12Msg8dH3MES/8SYG3u0HuMvJ+ZAEiS8rPdjlOPzAOs/TCwHGKFTGAECHjAh3ZUNTVmBDtoeZKwCRZDWZPpYU8J5YOuOwVKQC+eT3Kzp1woic0Um3v4Xn8TkaRiBIEhkae9xMM35DJzqKTrCWEkEBlct/w8IK6g/d2/fgmmBWzNW1wRpWbz2YCkkzQfh/JKVFALeIMB4mcH3s0mPbZyn/NYbo/61UpcEaV3SfQCHQvMZNB9gP+3m82+l3UTG+BVAj5m53GON1g2lvgiybHWzbLbMB/PXARzopuZC1xYCvyZQKqNG77UlHUChuiGInNJPYOB6YhwawDr4KiUGfktsLjUS7Xf7KrAaBFMXBAlr+gICbqwBPo3lkvE0SUhl4srtjZV40Vfa/oVCTqYPBOG7ANdBix3/4mgjMut45y5DVW6zIdtQIr69g7Ro+qkSYREY0xqqItVOlujW7VJu4eaO9r5qu64Hf74kiKzpVwEQpxxVdgT1gc2FRqK9Uc9EsYWurwjScvO6FmnsgHWbP91W9EKoPASIHjIpt3Dj3HZraiWuIgj4hiBtS3uVnGneAeBTomIVRIDNa41E+zUV9BAo074gyI42nuYvAGqkk52qPZBeZdO8ItvZ/lC1Hdezv5oTJKKtncWQVtYziH6PnYBeMySdlu2Y+rLfY/VbfDUliJxMXwTiW/wGSrDioTcliWb3zZ3acJudvKhjzQgijl72onwlbbzLRLNrdXptWOv+uMRNhzDxJxg4hIjGg80JAI0HsPO/jSB6C8zrrX+Zeb1k/QtzPXLUbXQqr5TMsoICNSGInOz5Ooh+UMG8hGlgExHNzsSjv6kWGBN/8PJ+28fsNZMIM9nkTxKhzb1vWsvgXwLmw1m1/ffu7TmzUHWChJM9ZxPRnc7CFNIOEdjCpnl6tR7II0v1mZzjWSCyTt8qpzm3vfSI/kTMDzLx4zne8ptN6sez9hTLl6oqQWRNP2Nwb/jPyw9XaJZGgEyi3Jcy8faKv/gIa+mLAb64Ckc9jJb2X5jR1YStXRsS098rjUt5ElUjiCBHeQVyqkVEX8/Eo4ud6jmRrzExRob6CkPqyqpTlzrJwa5sVQgiyGG3HG7l+B5DjX3JrZVC+uGkfgoIV9fojlEqraeYuSubiN1VStDJ7xUniCCHk3K4kn0XEo6tSFfEq9eMiew39tsMLHAVYXWUHwbwbUNVnvHCXUUJYh2dzBIeAkj2IlhhozACDI5n1Zjn04x8pxji7wA4qo7w30jMl2YSsR+7jbliBNnntjflpm1brGUNM9wGKfSLI0DAnRlVsU7b9fSKpPSvMuMn7ozSGwA/D+BJZmk1iPqZtvab7+f6+zdt6G9pmTS+eS+zLZfjNqLcROZQGxG3mcAXCPicG99EuDETV650ZcONcjHdSFK/gyl/RLK4KovAmyGmz29IRNM73USSPQdlErHX3LgNa71zCWaqLBvMT4JoJecGHs3OO6js5S3WhjkCZprEp5dLFgbdm1Wjp5WVx+Cei4rcQeTk2mtA0tXlBiX0nCDA5xtqbPlwDQv/EEJ3DCeNE4tyUr8JhEud6DBjAxFu55C0Mtsx9UknunZkW1L6JyTTnAlJmgeGsyk7oduIKwfZ8TNSxnOChFP6ucSwlq2Lq+II0MOGGv3nkW52/IEKnWaa0qkbO6f80UkYsqY/DuDzTnSYoZlNuGlTh9LrRK8cWWtbxADzfGLudKpvqIrj8e5Yoei0SjyUO62ZO3kzd5bROW2PD6877+DWOeoSmTPttgWVU/oKMGy/Jmbgfs7h5lo0kJOX6keAyWoBZbtfgdUFMqMqjrpvekqQsKY/Ue5c0d1IaURtetJQo58ZLfMRU9xnmolmljpBKpLsWcRE/2YXSQIWZlTlBrvylZKTU72ng80fAtjXjg8GdWTVqO0V5J4RRDx32CmPhzIkXWDEp/7IBkEA8O8Hxmyb1X/hdGNUeU2/EIDdvenPkSktzHROtaZivrhaluifk0KwSDLFVkCEE4248ogdWU8IMhTgE3YcChlPEPiD8c4dh+Laa017BMlL/UYa2zKr74K23RpMt2qvt5vIWQ/VrSUjI/xIGtNyyUgbJfWqJCBr+rM2t2xvlhD6ZJ86ZW2p0DwhiJhalYLZ498l6RJj7tT/KmS1yN38kb23jDvtz5cd+P5OXTmp/9BW82/CNUZc8X2nGTmVXg7mr5VEnOjxfcaFvvjGnMlbism6JoiYWpUshdcCr3No06HZjsOt02pHvYrVxDr8JnNQ9DQcSwOtmn6qCdxXMsA6a/Qgp/SbwKVfUxPjxkyi+IdEVwQRU6uSQ8tzAQJ9K6NGrytmuOQfLaKVRjw6O6LpWxgYWzRI5pVGIjbb80QqbFDW9F+UbB9F2CYxHdmnRq0v/aNerggiplYVrvJo5iV8tNSCxJIE2WF3xeB56db+nCIXv2aosbo921HW0s8B/MkSfwDuMhKxczwnSFjruYJA363BEGlcl4yXjYTy8VIA2CRIKTP9YDrJSEStY9ZcXXJKvxqMPXpxWV3ks6pyrCvjRZStJTcsSU+Aeb9iPoj59Ewi9svRZMq6g7Ql09Ec8SpxQGalSlvALvMyIxGbW8qrJwRhXGgkFOvVqeurUDyVJogVeCTZM5uJ7imRxCpDVY72jCCy1rMMoItdIycMOEKACOfZOZrANUGYHzISsZMdBVdEuFZ3kJ0hyan0XTa+uF9qqMoejUQc30HCWvokAovufF6NHgd2mppD+7970ZR3Sqm4JMhfQTjd7oe0UrFYv9fyDpL3by1LMVFqqvjmwJhxh/RfeOBuH1MdE0TW0o8D7Ggxmx0QhUwJBIhWG/Fo8QfOIRPuCEL/aahR20tO7NSt1gSxYgyn0ktKLXBkwleyceWnw3NyRJCIlp7H4Io2BLADeGPK8PcMNXaFndzdEQQrDFU5044fuzK1nmJZceabo7P5TLGl8sT4aSahfKUsguyXSk/czmy1rxSHZ9odGV7KMU4wEsqv7Zh0SRDLhack8cMdpNhU7++YsmG8o7ThWtq1hMf2HUTWei8BzJvtFEjIeI+Ak70MHhDEU5L44Q5iJdSi6Z+VgKJnuw91o9zVU8wBQWx8dPF+XAiL1lpcxoZsQploFwyPCOIZSfxyB7ESiqT0NDOmFsaS/ttQo7vWctkiSGRp72w2zVLvku3WT8g5R+AVQ1Wm21XzkCCekMQvd5D8NEvTrWX91vL+AhcbhhqL7PzRFkFsrWuxWz0h5xgBpx/UPCaIa5L46Q5iZ4GmmcOxO3dJliRI69Lew03T/F/HVRUKXiLg6KG5AgRxRRI/ESQ/zSqxSJOJzs7Goz+zZEsSxO7SYS9Hg7C1OwJWU4RsQknYxaVCBCmbJH4jiKzpVvfFEwviSbjMiCv5F1JFCTJ+sd42ppleLrXYy27hhFyZCDjcj1FBgpRFEr8RJKKlUwwusqaN/9NQY/mPpUUJEk7pcWJoZZZVqHmEwOBbrMTgWyzbdagwQRyTxG8ECSf1bxChYMMJJro9G4+eV5Igcir9GJiP86jOwkz5CJxpqIq1f8PWVQWCOCKJ7wiSWvtlYqlIF3h6zFCjXyhKkHAqfRRZLSTFVXMEhr9VsROMtdPTjpwXMnZ6YvmNILKmfxrA00Xy3/VaveAUS9Z06yHlEi9AFDZcIsA4w0go1hbSuryK75E3F2XU9m9UM7G25Lr9czSwvojPjKEq+S4voxKk9YfdE8ytIet0UbHuqpqVK+CLTajZTqW8RtI+iN/GlG8dEV2eiUcrfmycBcek5evG9b8/sKuzyygQbTNUJb9Xf1SCyFrPHIBGbUrmA7wbLwTmq4xEzDqjoy4vGwTZmdfdIaZvltt02y44kSVrp3FIKtL9nv5oqNFJhQmS7HkQRHs0RbYbgJDzGAGmxUYi+nWPrVbNnAOC7IzpckNVbqpUgHIyfSKIrW8hha5nDFU5YlSCtNy8rkUaO/BnAB+oVIDCrkMEmIt23nBorSbiYa3nnKEmHx+yFwA/x5CuyarRYgPZnqkRUmGtZy6BCk5ZGbg3qyr5M0X2mGJFtLWzGFJV5oJlZdeISoxHjYRyfBBSDyd7riOif7ebC4OWNDEWezntiqT0G5hR8MUAAamMqqijEkROpb8H5svtJiDkqoEAvWGo0cnV8FQNH61dr8VMqfkGgO02pHuXQNdl1OgSL+KTtfRdQJFjE4iuMuLR/DPfHncQBw2AvYhV2LCJQPNf/zb+nSsO/qtN8boQa9H0UyXGIhCm2Qz4YeuO4nbaJSf1NSB8tKBPpouNRDTf7X43ggw9f2RtBivEqogAsfSpTGJqIFdVhzV9AQE32oWTwUuaWCpr2rXj7tVUtKs7E5+Sjcce2IMg4vnDbomqL0fMc7w41rj6kdvz2JJaN0ni3DUA/4sdDQbSEmix02mXHTKGuOmDGxKT396TIKn0Imb2tOWLnWSFjB0EvG/HY8drtWXkpekTYeLbJXvqWluRSTolG5+a/0tv95KTPY+BqNj6wmcNVbGWouSv3aZYYU1fScAsu86EXBURcNntMNLVM8OUqOg0JhRqPqevY1KxJRhVS1hO6pcC/B0QFfjcwLcYaqzDSUCtS7oPMEOhNwFIhfRGHi23G0FkTV8z2PKl8MOLk2iErNcIbDFUZS83RmVNfwbAjII2GN83Esq/uvHhpW4ktfZDzHTVKG1u3woxfdbpq9+Ilv4XBv+4aIwjuuePJMg2AM1eJilseYcASdI/ZeaWfzagnS/aUqj5AL/cRXYiF+nqPY5D5lVgHLNj2kPznT57WHqyln4I4JOKVGS36dVuU6x9l3RPDoVCr3tXTmGpAgjcZKhK2d+orGkWS2TdRQpfDncvViDHgiYjmp5g4GRDVRwvg4po+lcYuL1ovKMcM7frDiKn9BPA+FU1Exa+HCJA6DbiykEOtXYTLznNAt7ikHREtmPqn9z4qZTu/j/S294+X9ngyP7VLMn79T5T6sGfTP50pjNmHQS669pFkIjWM49Bou+uI+RrICzhSGOuUmyzT9GgCvWo2k3J5jkkNci+LJe2uoIWOGru7wQRr3jLAr/qSi6nQPt26YdKEp6iEmcTkolZmU6l9AGfVQfAmcOhntLWtLLoUh2i3HGZ+LTfjLT+9ymW3eOAncUnpL1HYB0GcIgxX+kv13Q4qd9AVHix3pDdZ43WrcfgzOnWi5u6vWwe9rTcUJXzR0tyF0HCmn4fAafWLRINFDiB52fUWNkL96x2Ts1NeJpQrEet9SXOvNZItO9xtmC9QC1rurVlvFTD9QEphBl9Hcr/FSWIrOlWg4aj6iX5ho6TsdpIKLYO0ymEUzipq0RIlsSxTkni4KXTDwxVubQQDn+fYmk93QC1lwRMCPgCAQafm1Vjd7oJxsEx3qOe3+fGdyV1W7pe/UdJan6jtA/O5AZoxqb5Sq8NgujWq7N8Jwdx1QUCjxiqUrh9po0U8svNAXsP4hIfb8yNPWrDbE1FHK1It3F3HHYH0bmmmQnnjhEY3mTZsfKQQjilf4O4cJfB4XYJdFpGjd5brq9K6zlZjU7gpRk1Fi8V0/CHdJ2AaCkF8bt/ECDghbGhTUe/1XH439xEJSd7loNo16ExJWxVtKFCuXmEU+nriNnmVl560FCjX7Tja/gdxDraudg6FTv2hEy1EbAxTbATkqzpqwAcaUcWjFsHxo77xsgjk23pVkBITqaXgtjmyl5+b7u596TNnR/O2All2B2kZzGB5tlREjJ+QoD+ZhIfvTGuvOA2Klnr6QNo1+lKJey9woQbRh6b7DYGJ/qRpb3HwTTns5PPEyNW65byN/wOcgaAn5dSEL/7EQH+maHGzvYissFvBxsHvx3sa9eWdXQyh3C9MVd51a6OW7mWpa8fLHFuPhijftwrZJ/InJ2Jtzvq2LOLII6e/t1mKPQ9R4CJ52bjsWVeGJZT+ktgfMy+LTaIpduI+e6+ztE/uNm3VVgyknrzQ8BW644xH8zjnNgcuRHKru6IHYXplQQWOwrtoucvuU1E5vGZePtzXoQla+kHAD7ZsS0m6y/03UYierdj3QIK+XMFGTNB+ZUeZXyK4PMNNba8nHhGEuRiAnvyV6icYISOOwTyh32GNh2PjsO3u7O0Q1vWdGvKbU29y7mspgcvMPAiwKsQCj2Z7Zi6ya4h6wgHkvK+zxj84t9mV2+E3BYGzXbTJmiPvlhhTV9NwGFlBiTUao0A4WYjrlzmVRgOXwGXcpsB0VtgXm/9y8zrCdiLwBOZqQ07iNAG8ESA3O5sfc0knOv25cUoBEmLu0ipMvv8dyKcl4krxXfPOcghnOo9l0zzKhBiDtRqJ8r8UAjNF+xs3eMmkALHH+iPA/i8G8NCt+YIODq2rVS01qEzpjTwLWbke9b686K1ROjKxKNdXsU3KkHy3SRMSQfBVRcNr4IUdspEgOkkIxH1dBt1JNkz2yRa6KtpOOMdIu4yQ6ElTp5z7KBa8Ai2SGrtp5il3fbn2jEoZPyFAOXMgzLz2ru9jiqSSn+NTfMCEB3ttW0H9rYA3GWaTV0bO6f80YGebdGix0DLS/WPwIR1FJu46hiBffZq2uuNOZO3VCIFOZk+C8gTJX8qbJWuNSB6nFn6UVad8lIlfRYliOV4iCTW6z7RUK6SlaiwbdPcPmlj50cq8lfWCj3/rWLHkg+rbWclxsqzBNyPUNPjmY7JVZvZlCRIPvllb3zQHNjaAZIuAnBAhWspzFcKgQo8k4wW6r7a2ilNJB3FJh0FYmuX6nSHKfUDvJ5B6yXQLweamx7YdNGkdQ5teCJuiyA7PQ0jirVRp3ALS09CE0YqggDhMiOulNqn7a3rZaubW/+2d2tu3JiOXcfqAAAAWUlEQVQID3Cr1CRFGLlWyUQrSOpniddzznzbbJLWfwAfWP9WxwGulu97Gbwjggx33JZMR03CSYO9TieBSCaTIyZhgpfBCVuVQYAIuhHZ2lnvHUsqg87uVv8fW7g2bsszvCAAAAAASUVORK5CYII=;" vertex="1" parent="1">
          <mxGeometry x="69" y="207" width="64" height="64" as="geometry" />
        </mxCell>
        <mxCell id="V0m3F8l0XvwCJWidBoo5-7" value="" style="shape=image;imageAspect=0;aspect=fixed;verticalLabelPosition=bottom;verticalAlign=top;image=data:image/png,iVBORw0KGgoAAAANSUhEUgAAAMgAAADICAYAAACtWK6eAAAAAXNSR0IArs4c6QAAEIdJREFUeF7tnX2sHOV1xp8z1wYKLSSCJoXEalpahQRwfXcNO+skjUns3b0lJopakyZqKyJQQ2mTkiJBTSNhpAZCicANTVNS2hDRisZuKxUa3529NvgPws4a76z5CInSNHWKlS/RpnWTBux755T1RxvX174zs/O++87OcyVEpJzznHN+Zx72Y2ZnBPwjARI4KQEhGxIggZMToEF4dJDAKQjQIDw8SIAG4TFAAtkI8BUkGzdmlYQADVKSRXPMbARokGzcmFUSAjRISRbNMbMRoEGycWNWSQjQICVZNMfMRoAGycaNWSUhQIOUZNEcMxsBGiQbN2aVhAANUpJFc8xsBGiQbNyYVRICNEhJFs0xsxGgQbJxY1ZJCNAgJVk0x8xGgAbJxo1ZJSFAg5Rk0eMes1abOfsg8HqonnOayAu93uz+cfeUpD4NkoQSY1IRWFmbef0y6Frx8G5A36SKFQDO/v8iCuwXwQuislOw0N4Tzn0xVSELwTSIBchlKLFq1dpXeWec9ruAvB3AFVlmFmC/Ajsg+HzUDdpZNPLOoUHyJlpCvUq99UGo3gjgohzHf1BjbBnsDp7OUTO1FA2SGhkTjhGY9ltXCQ4bI9MrxtIk9Yeq2OLNn/6H/f6j/710fP4RzhmkUmuthGhLgRkBzoPgXCjOA7A8//HLraiQzw3C9jVZKEzXGneIyKYsuWlzFNg9Jd71e7qzg7S5o8Y7Y5CK37oG0OsB1EYdivlLExh+QFaN37G3N/dPS0cfH1HxmzsAvDNt3qjxqvK+Qa/9N6PqpMkfu0Eq/swGIP4wgHVpGmfsiAREro+67fvTqlT85gEAP5E2L794vT0KO5vz0zu10lgNUq23NqrqVlvDss4RAqq6bdDrXJ2Wx7TffFyAtWnz8o5XT9YMnmx389ZdTG9sBpmut64V1QdsDMkaxxH4nsjU2/vd7c+m4VKttzap6h1pckzGxpCf2Ru295msMdQei0EqfmMzILeZHo76JxJQ1TsHvc6tadgc/Xz42TQ5xmNFOy/95zkbnn9+20GTtawbpOI3bwZwl8mhqH0SAop4IcbKp58KvpSU0eq3Xvmz8fz88O3Ma5Lm2IrLYva0vVk1yNEP5I+kbZLxORFQPBT1gt9Io1b1W59U6IfS5NiL1R9qLHWTJxMtG6Q5x2+r7B0+J1SKpRXtbgdJO1jtr39LDO+JpPFjinswCoMPmKptzSBOvo81RdVFXZXHol471bmLar21TVV/xcVxjutJMGPq2i2LBml0AfGdhz2hDarqtYNe5y+Tjjd9+frV4nlPJY0fa5zgoaib7q1j0n6tGKRab1ykKl9O2hTj8ieg3tQbBk9u/0ZS5WqttUnFna91l+j721EYnJ90tjRxdgxSa92gop9K0xhj8yMggi/1u8ElaRQrfvMxcxchpukkWayKrBt02zuTRSePsmIQV87AJscycZGpPsiuXNk4a9mZ8v1CUVC9O+p1hqcQcv2zYpCK3xyetU31X7Bcpyy5mKj8dr/X/tOkGCr1VhOqTvxgKWnPEHSjbrAmcXzCQDsGqTe/CYWR94gJ5yx1WOzJ5XufbCf+wF3Ey4CGVycPwmD4095c/+wYxG8OLwfg7zlyXV1ysSgMUu25qJcCpZ0zCcFU4JIILhZT8ZuaNZd5oxNIe+BU/cYDCrl29Mp2FZartyLvu6XQIHZ3OJZqaQ1SqTXbr7ynb46l2RGKaixrBrvzvQyeBhlhIUVJTWuQ6Vpjq4hsLMp8x/pU9S4e9Gafz7NvGiRPmo5qpTVIxW/cA8hHHB3npG0tV++cXm92+IvH3P5okNxQuiuU3iCtjwB6j7sTLdrZgSgMzsm7Zxokb6IO6qU1SBF/Cp3laoEkq6JBklAqeMzUwtT5Tz21/dtJx1i9pnFJHEuqn+Qm1TYVJyJ/2++2c//cRIOY2phLuurVo95smKalit8c3g7o59LkjDVW5dejXvuv8u6BBsmbqIN6qvq+Qa+T6n5S037zEwLc5OA4i7Y0r96KZwzcMZ4GKcoRMEKfqrpp0Ot8PI3E0duK/kOanDHGPh6FwTtM1KdBTFB1TFOAP+uHwW+laWt4t/apM05/VofP9HD+TzdHYed2E23SICaouqfZjsJgJm1b1VrzJhV8Im2e5fivxC+9XN+7d9d/mKhLg5ig6qDmv5/x8o/t27XrpTStbdy4ceqfXzgwvOXPZWnyrMZmvIVq0h5pkKSkCh+nvxaFnb9OO0a13ny/KlLnpa2TMd7YZ49j/dAgGTdTuDTBF6Ju8K4sfVf81t8D+p4suSZzFPLuQdg2ep81GsTkBh3TXoin3vj07u1fTdvWZZc1VixMeV1AX5c211S8jbsqDnunQUxt0EHdLF/3HhtjVa2x3hPpODLWzigMrDwugwZxZOOW2ojk0It+v98/lKVepd78HSjuy5KbY85/RWFwwhNzc9Q/TooGMUXWUV2F3DQI25mv1B3nhYwK7BqEgaHnIS6+MBrE0QPZYFv7Duq8/1xv53ey1qjW110KTD2siouzaqTNE5Fb+932nWnzRo2nQUYlWMz8j0Vh8NFRWr/88neeO+8tGz7C7ZdH0UmQ+11AbonC9oMJYnMPoUFyR1oIwQPAgh+FO0a+HezR8yTDR0HnfjJRIPfJsqkte574wtfHRZUGGRf5MddV4NODMLghjzaGZ9y//q8HboTgxjyu3Rr+tkN0YcuecO6LefQ3igYNMgq9gueK6qZ+yqt8TzXypW+98tXL5+fXK7BegPUAfjoFosdFZS7WhbnB7rk9KfKMhtIgRvG6Ly6KG/u94I9NdFqptVaKhzeqDq8IjlcM/y2Qs0V0/+HntIv3ggD7538QP/HMM50fmOhhVE0aZFSCE5AvGjf7vTlXTgI6RZQGcWod42tmuc7/VG+Er37H17nZyjSIWb6FUpdDuKDfD75VqKYNN0uDGAZcNPlY4yv39ua2F61vU/3SIKbIFlpXPxqFnY+5PMJqf+Yte8JZ418D0yAuHwXj7e3vvGXLbh7nSbqTjT/tN28R4ONpb4iXBScNkoVaSXKGX8W+8rXsPVHYvteFkadrM28WiYfXY1017IcGcWEr7GH4q6GuQO7td9vbxoWj6jevU2D4tu81x3qgQca1DdZdlICqboN69+b9DI6T4T58Zn5h4WqovnexJ+7SIDxQXSUwq9DZ03Rhq4lzJ1W/UVN47wUOG+OCk0GgQVw9PNjXjxKYVcXDg17wUFYs1TUzF0K1EgMVASpQbSTRokGSUGKMSwT2KbBPgH2AfgPw9sXAvmWKM9XDWao4S47+b2h8FuBVAK2e6lXiVMPRIC6tnr04R4AGcW4lbMglAjSIS9tgL84RoEGcWwkbcokADeLSNtiLcwRoEOdWwoZcIkCDuLQN9uIcARrEuZWwIZcI0CAubYO9OEeABnFuJWzIJQI0iEvbYC/OEaBBnFsJG3KJAA3i0jbYi3MEaBDnVsKGXCJAg7i0DfbiHAEaxLmVsCGXCNAgLm2DvThHgAZxbiVsyCUCNIhL22AvzhGgQZxbCRtyiQAN4tI22ItzBGgQ51bChlwiQIOY38b3FXDmeXg/Oq4ArwXwJvMIiluBBjG0u+EtNNXDlr3dzpOGSuQiO3wW+SFZtlYEfw7g1bmITpAIDWJgmQLc1Q+D3zcgbUyyWt1wpi4/+ASAaWNFCihMg+S/tJ1RGKzLX9aOYsVvqp1KxahCg+S7p+fk0MtX9Pu7XsxX1p5apdb4TYjcb6+i25VokFz3o/dGYef3cpW0LLbKb73Bg/6L5bLOlqNBclyNirx/0G0/nKPkWKQqfvNrAC4cS3HHitIguS5EfzUKO5/PVXIMYhW/+VUAPz+G0s6VpEFyXImq3jnodW7NUdK61PTbZn5SDsXftV7Y0YI0SJ6LEe1E3U4zT0nbWpV6411QedR2XVfr0SA5b0aBTw/C4IacZa3JVfxmCKBmraDjhWgQAwtS6C8Nws6sAWmjkhW/cdsrj5vdbLRIwcRpEFMLE/lMjPhzRbjUZH5q+S9C9W5+c3XiwUCDmDLI/+nyYkXzjI1VoEGMoaXwJBCgQSZhi5zBGAEaxBhaCk8CARpkErbIGYwRoEGMoaXwJBCgQSZhi5zBGAEaxBhaCk8CARpkErbIGYwRoEGMoaXwJBCgQSZhi5zBGAEaxBhaCk8CARpkErbIGYwRoEGMoaXwJBCgQSZhi5zBGAEaxBhaCk8CARpkErbIGYwRoEGMocXXRPX+BfH27A3bu8yVcVu5+rbm+TqvVShWA3Kb292e2B0NYmBjArmvH7Y/bEC60JLTtZk3e168VRUXF2UQGiT/TRX65tX54zhRsUg3yKZB8j0iCn/z6nxxLK5WpBtk0yD5HhF/EoXBh/KVnDy16pqZCzWOh/f/df6PBslxRSp63aDb+YscJSdWquK39gP6OtcHpEHy3JDohqjb+cc8JSdVq1prDlSwyvX5aJBcN6S3R2GHdyZcgumqVWtf5Z1x+vdyRW9IjAbJE6wiiHpBK0/JSdSqrmleqTEK8UpLg+R/BN4RhcEf5C87OYoVv/UIoBuKMBENYmBLNqAaaNuKZNEer2Bjl2KDvHMnn1Q/GPU6n7ExexFqHPlqd+FuQN5ThH6P9UiDGNyWAt8RkaehcddgGaelBfJaBVbiyD8/7nSzizRHgxRtY+zXKgEaxCpuFisaARqkaBtjv1YJ0CBWcbNY0QjQIEXbGPu1SoAGsYqbxYpGgAYp2sbYr1UCNIhV3CxWNAI0SNE2xn6tEqBBrOJmsaIRoEGKtjH2a5UADWIVN4sVjQANUrSNsV+rBGgQq7hZrGgEJskgBwEsL9oC2K/TBA5FYXCa6Q7t/GCq3vwmFOebHob6JSIg+FbUDS4wPbEdg/jNZwFcYnoY6peKwHNRGFxqemIrBpn2m48LsNb0MNQvDwEFdg3C4ArTE1sxSLXWukFFP2V6GOqXisAtURj8kemJ7Rik3rhIVb5sehjql4iAyi9EvfYzpie2YpDhEBW/0QXENz0Q9UtBoBeFgZVjyaJBWtcA+tlSrI9DGiYgH4jC9oOGixyWt2aQI68izTkA62wMxhoTS2BHFAbrbU1n2SAzG4D4EVvDsc4kEvCuisLZR21NZtUgR19FbgZwl60BWWdyCIjI1f1ue5vNiawb5OgH9s1FfKqqzcWw1vEEVOS6Qbdt/QFIYzHIcPTpeutaUX2ABwIJLE1gfM92GZtBhlCq9dZGVd26NCBGlJiAlROCJ+M7VoMcebt1+IP78Lnl/HarxC5YZPQdgPdJmx/IF8M/doMca6riHz5Pcj2AGo+TMhPQEPDut3WeYynSzhjkf41Sa62EaEuBGQHOg+BcKM7j70mWWmXh/v9DELwIxb8p8KKnsg1e/Fi/2/mKS5M4ZxCX4LAXEqBBeAyQwCkI0CA8PEiABuExQALZCPAVJBs3ZpWEAA1SkkVzzGwEaJBs3JhVEgI0SEkWzTGzEaBBsnFjVkkI0CAlWTTHzEaABsnGjVklIUCDlGTRHDMbARokGzdmlYQADVKSRXPMbARokGzcmFUSAjRISRbNMbMRoEGycWNWSQjQICVZNMfMRoAGycaNWSUhQIOUZNEcMxsBGiQbN2aVhAANUpJFc8xsBGiQbNyYVRICNEhJFs0xsxGgQbJxY1ZJCPwPsnObFFGhrOcAAAAASUVORK5CYII=;" vertex="1" parent="1">
          <mxGeometry x="172" y="398" width="47" height="47" as="geometry" />
        </mxCell>
        <mxCell id="V0m3F8l0XvwCJWidBoo5-8" value="" style="shape=image;imageAspect=0;aspect=fixed;verticalLabelPosition=bottom;verticalAlign=top;image=data:image/png,iVBORw0KGgoAAAANSUhEUgAAAMgAAADICAYAAACtWK6eAAAAAXNSR0IArs4c6QAAEIdJREFUeF7tnX2sHOV1xp8z1wYKLSSCJoXEalpahQRwfXcNO+skjUns3b0lJopakyZqKyJQQ2mTkiJBTSNhpAZCicANTVNS2hDRisZuKxUa3529NvgPws4a76z5CInSNHWKlS/RpnWTBux755T1RxvX174zs/O++87OcyVEpJzznHN+Zx72Y2ZnBPwjARI4KQEhGxIggZMToEF4dJDAKQjQIDw8SIAG4TFAAtkI8BUkGzdmlYQADVKSRXPMbARokGzcmFUSAjRISRbNMbMRoEGycWNWSQjQICVZNMfMRoAGycaNWSUhQIOUZNEcMxsBGiQbN2aVhAANUpJFc8xsBGiQbNyYVRICNEhJFs0xsxGgQbJxY1ZJCNAgJVk0x8xGgAbJxo1ZJSFAg5Rk0eMes1abOfsg8HqonnOayAu93uz+cfeUpD4NkoQSY1IRWFmbef0y6Frx8G5A36SKFQDO/v8iCuwXwQuislOw0N4Tzn0xVSELwTSIBchlKLFq1dpXeWec9ruAvB3AFVlmFmC/Ajsg+HzUDdpZNPLOoUHyJlpCvUq99UGo3gjgohzHf1BjbBnsDp7OUTO1FA2SGhkTjhGY9ltXCQ4bI9MrxtIk9Yeq2OLNn/6H/f6j/710fP4RzhmkUmuthGhLgRkBzoPgXCjOA7A8//HLraiQzw3C9jVZKEzXGneIyKYsuWlzFNg9Jd71e7qzg7S5o8Y7Y5CK37oG0OsB1EYdivlLExh+QFaN37G3N/dPS0cfH1HxmzsAvDNt3qjxqvK+Qa/9N6PqpMkfu0Eq/swGIP4wgHVpGmfsiAREro+67fvTqlT85gEAP5E2L794vT0KO5vz0zu10lgNUq23NqrqVlvDss4RAqq6bdDrXJ2Wx7TffFyAtWnz8o5XT9YMnmx389ZdTG9sBpmut64V1QdsDMkaxxH4nsjU2/vd7c+m4VKttzap6h1pckzGxpCf2Ru295msMdQei0EqfmMzILeZHo76JxJQ1TsHvc6tadgc/Xz42TQ5xmNFOy/95zkbnn9+20GTtawbpOI3bwZwl8mhqH0SAop4IcbKp58KvpSU0eq3Xvmz8fz88O3Ma5Lm2IrLYva0vVk1yNEP5I+kbZLxORFQPBT1gt9Io1b1W59U6IfS5NiL1R9qLHWTJxMtG6Q5x2+r7B0+J1SKpRXtbgdJO1jtr39LDO+JpPFjinswCoMPmKptzSBOvo81RdVFXZXHol471bmLar21TVV/xcVxjutJMGPq2i2LBml0AfGdhz2hDarqtYNe5y+Tjjd9+frV4nlPJY0fa5zgoaib7q1j0n6tGKRab1ykKl9O2hTj8ieg3tQbBk9u/0ZS5WqttUnFna91l+j721EYnJ90tjRxdgxSa92gop9K0xhj8yMggi/1u8ElaRQrfvMxcxchpukkWayKrBt02zuTRSePsmIQV87AJscycZGpPsiuXNk4a9mZ8v1CUVC9O+p1hqcQcv2zYpCK3xyetU31X7Bcpyy5mKj8dr/X/tOkGCr1VhOqTvxgKWnPEHSjbrAmcXzCQDsGqTe/CYWR94gJ5yx1WOzJ5XufbCf+wF3Ey4CGVycPwmD4095c/+wYxG8OLwfg7zlyXV1ysSgMUu25qJcCpZ0zCcFU4JIILhZT8ZuaNZd5oxNIe+BU/cYDCrl29Mp2FZartyLvu6XQIHZ3OJZqaQ1SqTXbr7ynb46l2RGKaixrBrvzvQyeBhlhIUVJTWuQ6Vpjq4hsLMp8x/pU9S4e9Gafz7NvGiRPmo5qpTVIxW/cA8hHHB3npG0tV++cXm92+IvH3P5okNxQuiuU3iCtjwB6j7sTLdrZgSgMzsm7Zxokb6IO6qU1SBF/Cp3laoEkq6JBklAqeMzUwtT5Tz21/dtJx1i9pnFJHEuqn+Qm1TYVJyJ/2++2c//cRIOY2phLuurVo95smKalit8c3g7o59LkjDVW5dejXvuv8u6BBsmbqIN6qvq+Qa+T6n5S037zEwLc5OA4i7Y0r96KZwzcMZ4GKcoRMEKfqrpp0Ot8PI3E0duK/kOanDHGPh6FwTtM1KdBTFB1TFOAP+uHwW+laWt4t/apM05/VofP9HD+TzdHYed2E23SICaouqfZjsJgJm1b1VrzJhV8Im2e5fivxC+9XN+7d9d/mKhLg5ig6qDmv5/x8o/t27XrpTStbdy4ceqfXzgwvOXPZWnyrMZmvIVq0h5pkKSkCh+nvxaFnb9OO0a13ny/KlLnpa2TMd7YZ49j/dAgGTdTuDTBF6Ju8K4sfVf81t8D+p4suSZzFPLuQdg2ep81GsTkBh3TXoin3vj07u1fTdvWZZc1VixMeV1AX5c211S8jbsqDnunQUxt0EHdLF/3HhtjVa2x3hPpODLWzigMrDwugwZxZOOW2ojk0It+v98/lKVepd78HSjuy5KbY85/RWFwwhNzc9Q/TooGMUXWUV2F3DQI25mv1B3nhYwK7BqEgaHnIS6+MBrE0QPZYFv7Duq8/1xv53ey1qjW110KTD2siouzaqTNE5Fb+932nWnzRo2nQUYlWMz8j0Vh8NFRWr/88neeO+8tGz7C7ZdH0UmQ+11AbonC9oMJYnMPoUFyR1oIwQPAgh+FO0a+HezR8yTDR0HnfjJRIPfJsqkte574wtfHRZUGGRf5MddV4NODMLghjzaGZ9y//q8HboTgxjyu3Rr+tkN0YcuecO6LefQ3igYNMgq9gueK6qZ+yqt8TzXypW+98tXL5+fXK7BegPUAfjoFosdFZS7WhbnB7rk9KfKMhtIgRvG6Ly6KG/u94I9NdFqptVaKhzeqDq8IjlcM/y2Qs0V0/+HntIv3ggD7538QP/HMM50fmOhhVE0aZFSCE5AvGjf7vTlXTgI6RZQGcWod42tmuc7/VG+Er37H17nZyjSIWb6FUpdDuKDfD75VqKYNN0uDGAZcNPlY4yv39ua2F61vU/3SIKbIFlpXPxqFnY+5PMJqf+Yte8JZ418D0yAuHwXj7e3vvGXLbh7nSbqTjT/tN28R4ONpb4iXBScNkoVaSXKGX8W+8rXsPVHYvteFkadrM28WiYfXY1017IcGcWEr7GH4q6GuQO7td9vbxoWj6jevU2D4tu81x3qgQca1DdZdlICqboN69+b9DI6T4T58Zn5h4WqovnexJ+7SIDxQXSUwq9DZ03Rhq4lzJ1W/UVN47wUOG+OCk0GgQVw9PNjXjxKYVcXDg17wUFYs1TUzF0K1EgMVASpQbSTRokGSUGKMSwT2KbBPgH2AfgPw9sXAvmWKM9XDWao4S47+b2h8FuBVAK2e6lXiVMPRIC6tnr04R4AGcW4lbMglAjSIS9tgL84RoEGcWwkbcokADeLSNtiLcwRoEOdWwoZcIkCDuLQN9uIcARrEuZWwIZcI0CAubYO9OEeABnFuJWzIJQI0iEvbYC/OEaBBnFsJG3KJAA3i0jbYi3MEaBDnVsKGXCJAg7i0DfbiHAEaxLmVsCGXCNAgLm2DvThHgAZxbiVsyCUCNIhL22AvzhGgQZxbCRtyiQAN4tI22ItzBGgQ51bChlwiQIOY38b3FXDmeXg/Oq4ArwXwJvMIiluBBjG0u+EtNNXDlr3dzpOGSuQiO3wW+SFZtlYEfw7g1bmITpAIDWJgmQLc1Q+D3zcgbUyyWt1wpi4/+ASAaWNFCihMg+S/tJ1RGKzLX9aOYsVvqp1KxahCg+S7p+fk0MtX9Pu7XsxX1p5apdb4TYjcb6+i25VokFz3o/dGYef3cpW0LLbKb73Bg/6L5bLOlqNBclyNirx/0G0/nKPkWKQqfvNrAC4cS3HHitIguS5EfzUKO5/PVXIMYhW/+VUAPz+G0s6VpEFyXImq3jnodW7NUdK61PTbZn5SDsXftV7Y0YI0SJ6LEe1E3U4zT0nbWpV6411QedR2XVfr0SA5b0aBTw/C4IacZa3JVfxmCKBmraDjhWgQAwtS6C8Nws6sAWmjkhW/cdsrj5vdbLRIwcRpEFMLE/lMjPhzRbjUZH5q+S9C9W5+c3XiwUCDmDLI/+nyYkXzjI1VoEGMoaXwJBCgQSZhi5zBGAEaxBhaCk8CARpkErbIGYwRoEGMoaXwJBCgQSZhi5zBGAEaxBhaCk8CARpkErbIGYwRoEGMoaXwJBCgQSZhi5zBGAEaxBhaCk8CARpkErbIGYwRoEGMoaXwJBCgQSZhi5zBGAEaxBhaCk8CARpkErbIGYwRoEGMocXXRPX+BfH27A3bu8yVcVu5+rbm+TqvVShWA3Kb292e2B0NYmBjArmvH7Y/bEC60JLTtZk3e168VRUXF2UQGiT/TRX65tX54zhRsUg3yKZB8j0iCn/z6nxxLK5WpBtk0yD5HhF/EoXBh/KVnDy16pqZCzWOh/f/df6PBslxRSp63aDb+YscJSdWquK39gP6OtcHpEHy3JDohqjb+cc8JSdVq1prDlSwyvX5aJBcN6S3R2GHdyZcgumqVWtf5Z1x+vdyRW9IjAbJE6wiiHpBK0/JSdSqrmleqTEK8UpLg+R/BN4RhcEf5C87OYoVv/UIoBuKMBENYmBLNqAaaNuKZNEer2Bjl2KDvHMnn1Q/GPU6n7ExexFqHPlqd+FuQN5ThH6P9UiDGNyWAt8RkaehcddgGaelBfJaBVbiyD8/7nSzizRHgxRtY+zXKgEaxCpuFisaARqkaBtjv1YJ0CBWcbNY0QjQIEXbGPu1SoAGsYqbxYpGgAYp2sbYr1UCNIhV3CxWNAI0SNE2xn6tEqBBrOJmsaIRoEGKtjH2a5UADWIVN4sVjQANUrSNsV+rBGgQq7hZrGgEJskgBwEsL9oC2K/TBA5FYXCa6Q7t/GCq3vwmFOebHob6JSIg+FbUDS4wPbEdg/jNZwFcYnoY6peKwHNRGFxqemIrBpn2m48LsNb0MNQvDwEFdg3C4ArTE1sxSLXWukFFP2V6GOqXisAtURj8kemJ7Rik3rhIVb5sehjql4iAyi9EvfYzpie2YpDhEBW/0QXENz0Q9UtBoBeFgZVjyaJBWtcA+tlSrI9DGiYgH4jC9oOGixyWt2aQI68izTkA62wMxhoTS2BHFAbrbU1n2SAzG4D4EVvDsc4kEvCuisLZR21NZtUgR19FbgZwl60BWWdyCIjI1f1ue5vNiawb5OgH9s1FfKqqzcWw1vEEVOS6Qbdt/QFIYzHIcPTpeutaUX2ABwIJLE1gfM92GZtBhlCq9dZGVd26NCBGlJiAlROCJ+M7VoMcebt1+IP78Lnl/HarxC5YZPQdgPdJmx/IF8M/doMca6riHz5Pcj2AGo+TMhPQEPDut3WeYynSzhjkf41Sa62EaEuBGQHOg+BcKM7j70mWWmXh/v9DELwIxb8p8KKnsg1e/Fi/2/mKS5M4ZxCX4LAXEqBBeAyQwCkI0CA8PEiABuExQALZCPAVJBs3ZpWEAA1SkkVzzGwEaJBs3JhVEgI0SEkWzTGzEaBBsnFjVkkI0CAlWTTHzEaABsnGjVklIUCDlGTRHDMbARokGzdmlYQADVKSRXPMbARokGzcmFUSAjRISRbNMbMRoEGycWNWSQjQICVZNMfMRoAGycaNWSUhQIOUZNEcMxsBGiQbN2aVhAANUpJFc8xsBGiQbNyYVRICNEhJFs0xsxGgQbJxY1ZJCPwPsnObFFGhrOcAAAAASUVORK5CYII=;" vertex="1" parent="1">
          <mxGeometry x="219" y="398" width="47" height="47" as="geometry" />
        </mxCell>
        <mxCell id="V0m3F8l0XvwCJWidBoo5-9" value="" style="shape=image;imageAspect=0;aspect=fixed;verticalLabelPosition=bottom;verticalAlign=top;image=data:image/png,iVBORw0KGgoAAAANSUhEUgAAAMgAAADICAYAAACtWK6eAAAAAXNSR0IArs4c6QAAEIdJREFUeF7tnX2sHOV1xp8z1wYKLSSCJoXEalpahQRwfXcNO+skjUns3b0lJopakyZqKyJQQ2mTkiJBTSNhpAZCicANTVNS2hDRisZuKxUa3529NvgPws4a76z5CInSNHWKlS/RpnWTBux755T1RxvX174zs/O++87OcyVEpJzznHN+Zx72Y2ZnBPwjARI4KQEhGxIggZMToEF4dJDAKQjQIDw8SIAG4TFAAtkI8BUkGzdmlYQADVKSRXPMbARokGzcmFUSAjRISRbNMbMRoEGycWNWSQjQICVZNMfMRoAGycaNWSUhQIOUZNEcMxsBGiQbN2aVhAANUpJFc8xsBGiQbNyYVRICNEhJFs0xsxGgQbJxY1ZJCNAgJVk0x8xGgAbJxo1ZJSFAg5Rk0eMes1abOfsg8HqonnOayAu93uz+cfeUpD4NkoQSY1IRWFmbef0y6Frx8G5A36SKFQDO/v8iCuwXwQuislOw0N4Tzn0xVSELwTSIBchlKLFq1dpXeWec9ruAvB3AFVlmFmC/Ajsg+HzUDdpZNPLOoUHyJlpCvUq99UGo3gjgohzHf1BjbBnsDp7OUTO1FA2SGhkTjhGY9ltXCQ4bI9MrxtIk9Yeq2OLNn/6H/f6j/710fP4RzhmkUmuthGhLgRkBzoPgXCjOA7A8//HLraiQzw3C9jVZKEzXGneIyKYsuWlzFNg9Jd71e7qzg7S5o8Y7Y5CK37oG0OsB1EYdivlLExh+QFaN37G3N/dPS0cfH1HxmzsAvDNt3qjxqvK+Qa/9N6PqpMkfu0Eq/swGIP4wgHVpGmfsiAREro+67fvTqlT85gEAP5E2L794vT0KO5vz0zu10lgNUq23NqrqVlvDss4RAqq6bdDrXJ2Wx7TffFyAtWnz8o5XT9YMnmx389ZdTG9sBpmut64V1QdsDMkaxxH4nsjU2/vd7c+m4VKttzap6h1pckzGxpCf2Ru295msMdQei0EqfmMzILeZHo76JxJQ1TsHvc6tadgc/Xz42TQ5xmNFOy/95zkbnn9+20GTtawbpOI3bwZwl8mhqH0SAop4IcbKp58KvpSU0eq3Xvmz8fz88O3Ma5Lm2IrLYva0vVk1yNEP5I+kbZLxORFQPBT1gt9Io1b1W59U6IfS5NiL1R9qLHWTJxMtG6Q5x2+r7B0+J1SKpRXtbgdJO1jtr39LDO+JpPFjinswCoMPmKptzSBOvo81RdVFXZXHol471bmLar21TVV/xcVxjutJMGPq2i2LBml0AfGdhz2hDarqtYNe5y+Tjjd9+frV4nlPJY0fa5zgoaib7q1j0n6tGKRab1ykKl9O2hTj8ieg3tQbBk9u/0ZS5WqttUnFna91l+j721EYnJ90tjRxdgxSa92gop9K0xhj8yMggi/1u8ElaRQrfvMxcxchpukkWayKrBt02zuTRSePsmIQV87AJscycZGpPsiuXNk4a9mZ8v1CUVC9O+p1hqcQcv2zYpCK3xyetU31X7Bcpyy5mKj8dr/X/tOkGCr1VhOqTvxgKWnPEHSjbrAmcXzCQDsGqTe/CYWR94gJ5yx1WOzJ5XufbCf+wF3Ey4CGVycPwmD4095c/+wYxG8OLwfg7zlyXV1ysSgMUu25qJcCpZ0zCcFU4JIILhZT8ZuaNZd5oxNIe+BU/cYDCrl29Mp2FZartyLvu6XQIHZ3OJZqaQ1SqTXbr7ynb46l2RGKaixrBrvzvQyeBhlhIUVJTWuQ6Vpjq4hsLMp8x/pU9S4e9Gafz7NvGiRPmo5qpTVIxW/cA8hHHB3npG0tV++cXm92+IvH3P5okNxQuiuU3iCtjwB6j7sTLdrZgSgMzsm7Zxokb6IO6qU1SBF/Cp3laoEkq6JBklAqeMzUwtT5Tz21/dtJx1i9pnFJHEuqn+Qm1TYVJyJ/2++2c//cRIOY2phLuurVo95smKalit8c3g7o59LkjDVW5dejXvuv8u6BBsmbqIN6qvq+Qa+T6n5S037zEwLc5OA4i7Y0r96KZwzcMZ4GKcoRMEKfqrpp0Ot8PI3E0duK/kOanDHGPh6FwTtM1KdBTFB1TFOAP+uHwW+laWt4t/apM05/VofP9HD+TzdHYed2E23SICaouqfZjsJgJm1b1VrzJhV8Im2e5fivxC+9XN+7d9d/mKhLg5ig6qDmv5/x8o/t27XrpTStbdy4ceqfXzgwvOXPZWnyrMZmvIVq0h5pkKSkCh+nvxaFnb9OO0a13ny/KlLnpa2TMd7YZ49j/dAgGTdTuDTBF6Ju8K4sfVf81t8D+p4suSZzFPLuQdg2ep81GsTkBh3TXoin3vj07u1fTdvWZZc1VixMeV1AX5c211S8jbsqDnunQUxt0EHdLF/3HhtjVa2x3hPpODLWzigMrDwugwZxZOOW2ojk0It+v98/lKVepd78HSjuy5KbY85/RWFwwhNzc9Q/TooGMUXWUV2F3DQI25mv1B3nhYwK7BqEgaHnIS6+MBrE0QPZYFv7Duq8/1xv53ey1qjW110KTD2siouzaqTNE5Fb+932nWnzRo2nQUYlWMz8j0Vh8NFRWr/88neeO+8tGz7C7ZdH0UmQ+11AbonC9oMJYnMPoUFyR1oIwQPAgh+FO0a+HezR8yTDR0HnfjJRIPfJsqkte574wtfHRZUGGRf5MddV4NODMLghjzaGZ9y//q8HboTgxjyu3Rr+tkN0YcuecO6LefQ3igYNMgq9gueK6qZ+yqt8TzXypW+98tXL5+fXK7BegPUAfjoFosdFZS7WhbnB7rk9KfKMhtIgRvG6Ly6KG/u94I9NdFqptVaKhzeqDq8IjlcM/y2Qs0V0/+HntIv3ggD7538QP/HMM50fmOhhVE0aZFSCE5AvGjf7vTlXTgI6RZQGcWod42tmuc7/VG+Er37H17nZyjSIWb6FUpdDuKDfD75VqKYNN0uDGAZcNPlY4yv39ua2F61vU/3SIKbIFlpXPxqFnY+5PMJqf+Yte8JZ418D0yAuHwXj7e3vvGXLbh7nSbqTjT/tN28R4ONpb4iXBScNkoVaSXKGX8W+8rXsPVHYvteFkadrM28WiYfXY1017IcGcWEr7GH4q6GuQO7td9vbxoWj6jevU2D4tu81x3qgQca1DdZdlICqboN69+b9DI6T4T58Zn5h4WqovnexJ+7SIDxQXSUwq9DZ03Rhq4lzJ1W/UVN47wUOG+OCk0GgQVw9PNjXjxKYVcXDg17wUFYs1TUzF0K1EgMVASpQbSTRokGSUGKMSwT2KbBPgH2AfgPw9sXAvmWKM9XDWao4S47+b2h8FuBVAK2e6lXiVMPRIC6tnr04R4AGcW4lbMglAjSIS9tgL84RoEGcWwkbcokADeLSNtiLcwRoEOdWwoZcIkCDuLQN9uIcARrEuZWwIZcI0CAubYO9OEeABnFuJWzIJQI0iEvbYC/OEaBBnFsJG3KJAA3i0jbYi3MEaBDnVsKGXCJAg7i0DfbiHAEaxLmVsCGXCNAgLm2DvThHgAZxbiVsyCUCNIhL22AvzhGgQZxbCRtyiQAN4tI22ItzBGgQ51bChlwiQIOY38b3FXDmeXg/Oq4ArwXwJvMIiluBBjG0u+EtNNXDlr3dzpOGSuQiO3wW+SFZtlYEfw7g1bmITpAIDWJgmQLc1Q+D3zcgbUyyWt1wpi4/+ASAaWNFCihMg+S/tJ1RGKzLX9aOYsVvqp1KxahCg+S7p+fk0MtX9Pu7XsxX1p5apdb4TYjcb6+i25VokFz3o/dGYef3cpW0LLbKb73Bg/6L5bLOlqNBclyNirx/0G0/nKPkWKQqfvNrAC4cS3HHitIguS5EfzUKO5/PVXIMYhW/+VUAPz+G0s6VpEFyXImq3jnodW7NUdK61PTbZn5SDsXftV7Y0YI0SJ6LEe1E3U4zT0nbWpV6411QedR2XVfr0SA5b0aBTw/C4IacZa3JVfxmCKBmraDjhWgQAwtS6C8Nws6sAWmjkhW/cdsrj5vdbLRIwcRpEFMLE/lMjPhzRbjUZH5q+S9C9W5+c3XiwUCDmDLI/+nyYkXzjI1VoEGMoaXwJBCgQSZhi5zBGAEaxBhaCk8CARpkErbIGYwRoEGMoaXwJBCgQSZhi5zBGAEaxBhaCk8CARpkErbIGYwRoEGMoaXwJBCgQSZhi5zBGAEaxBhaCk8CARpkErbIGYwRoEGMoaXwJBCgQSZhi5zBGAEaxBhaCk8CARpkErbIGYwRoEGMocXXRPX+BfH27A3bu8yVcVu5+rbm+TqvVShWA3Kb292e2B0NYmBjArmvH7Y/bEC60JLTtZk3e168VRUXF2UQGiT/TRX65tX54zhRsUg3yKZB8j0iCn/z6nxxLK5WpBtk0yD5HhF/EoXBh/KVnDy16pqZCzWOh/f/df6PBslxRSp63aDb+YscJSdWquK39gP6OtcHpEHy3JDohqjb+cc8JSdVq1prDlSwyvX5aJBcN6S3R2GHdyZcgumqVWtf5Z1x+vdyRW9IjAbJE6wiiHpBK0/JSdSqrmleqTEK8UpLg+R/BN4RhcEf5C87OYoVv/UIoBuKMBENYmBLNqAaaNuKZNEer2Bjl2KDvHMnn1Q/GPU6n7ExexFqHPlqd+FuQN5ThH6P9UiDGNyWAt8RkaehcddgGaelBfJaBVbiyD8/7nSzizRHgxRtY+zXKgEaxCpuFisaARqkaBtjv1YJ0CBWcbNY0QjQIEXbGPu1SoAGsYqbxYpGgAYp2sbYr1UCNIhV3CxWNAI0SNE2xn6tEqBBrOJmsaIRoEGKtjH2a5UADWIVN4sVjQANUrSNsV+rBGgQq7hZrGgEJskgBwEsL9oC2K/TBA5FYXCa6Q7t/GCq3vwmFOebHob6JSIg+FbUDS4wPbEdg/jNZwFcYnoY6peKwHNRGFxqemIrBpn2m48LsNb0MNQvDwEFdg3C4ArTE1sxSLXWukFFP2V6GOqXisAtURj8kemJ7Rik3rhIVb5sehjql4iAyi9EvfYzpie2YpDhEBW/0QXENz0Q9UtBoBeFgZVjyaJBWtcA+tlSrI9DGiYgH4jC9oOGixyWt2aQI68izTkA62wMxhoTS2BHFAbrbU1n2SAzG4D4EVvDsc4kEvCuisLZR21NZtUgR19FbgZwl60BWWdyCIjI1f1ue5vNiawb5OgH9s1FfKqqzcWw1vEEVOS6Qbdt/QFIYzHIcPTpeutaUX2ABwIJLE1gfM92GZtBhlCq9dZGVd26NCBGlJiAlROCJ+M7VoMcebt1+IP78Lnl/HarxC5YZPQdgPdJmx/IF8M/doMca6riHz5Pcj2AGo+TMhPQEPDut3WeYynSzhjkf41Sa62EaEuBGQHOg+BcKM7j70mWWmXh/v9DELwIxb8p8KKnsg1e/Fi/2/mKS5M4ZxCX4LAXEqBBeAyQwCkI0CA8PEiABuExQALZCPAVJBs3ZpWEAA1SkkVzzGwEaJBs3JhVEgI0SEkWzTGzEaBBsnFjVkkI0CAlWTTHzEaABsnGjVklIUCDlGTRHDMbARokGzdmlYQADVKSRXPMbARokGzcmFUSAjRISRbNMbMRoEGycWNWSQjQICVZNMfMRoAGycaNWSUhQIOUZNEcMxsBGiQbN2aVhAANUpJFc8xsBGiQbNyYVRICNEhJFs0xsxGgQbJxY1ZJCPwPsnObFFGhrOcAAAAASUVORK5CYII=;" vertex="1" parent="1">
          <mxGeometry x="172" y="450" width="47" height="47" as="geometry" />
        </mxCell>
        <mxCell id="V0m3F8l0XvwCJWidBoo5-10" value="" style="shape=image;imageAspect=0;aspect=fixed;verticalLabelPosition=bottom;verticalAlign=top;image=data:image/png,iVBORw0KGgoAAAANSUhEUgAAAMgAAADICAYAAACtWK6eAAAAAXNSR0IArs4c6QAAEIdJREFUeF7tnX2sHOV1xp8z1wYKLSSCJoXEalpahQRwfXcNO+skjUns3b0lJopakyZqKyJQQ2mTkiJBTSNhpAZCicANTVNS2hDRisZuKxUa3529NvgPws4a76z5CInSNHWKlS/RpnWTBux755T1RxvX174zs/O++87OcyVEpJzznHN+Zx72Y2ZnBPwjARI4KQEhGxIggZMToEF4dJDAKQjQIDw8SIAG4TFAAtkI8BUkGzdmlYQADVKSRXPMbARokGzcmFUSAjRISRbNMbMRoEGycWNWSQjQICVZNMfMRoAGycaNWSUhQIOUZNEcMxsBGiQbN2aVhAANUpJFc8xsBGiQbNyYVRICNEhJFs0xsxGgQbJxY1ZJCNAgJVk0x8xGgAbJxo1ZJSFAg5Rk0eMes1abOfsg8HqonnOayAu93uz+cfeUpD4NkoQSY1IRWFmbef0y6Frx8G5A36SKFQDO/v8iCuwXwQuislOw0N4Tzn0xVSELwTSIBchlKLFq1dpXeWec9ruAvB3AFVlmFmC/Ajsg+HzUDdpZNPLOoUHyJlpCvUq99UGo3gjgohzHf1BjbBnsDp7OUTO1FA2SGhkTjhGY9ltXCQ4bI9MrxtIk9Yeq2OLNn/6H/f6j/710fP4RzhmkUmuthGhLgRkBzoPgXCjOA7A8//HLraiQzw3C9jVZKEzXGneIyKYsuWlzFNg9Jd71e7qzg7S5o8Y7Y5CK37oG0OsB1EYdivlLExh+QFaN37G3N/dPS0cfH1HxmzsAvDNt3qjxqvK+Qa/9N6PqpMkfu0Eq/swGIP4wgHVpGmfsiAREro+67fvTqlT85gEAP5E2L794vT0KO5vz0zu10lgNUq23NqrqVlvDss4RAqq6bdDrXJ2Wx7TffFyAtWnz8o5XT9YMnmx389ZdTG9sBpmut64V1QdsDMkaxxH4nsjU2/vd7c+m4VKttzap6h1pckzGxpCf2Ru295msMdQei0EqfmMzILeZHo76JxJQ1TsHvc6tadgc/Xz42TQ5xmNFOy/95zkbnn9+20GTtawbpOI3bwZwl8mhqH0SAop4IcbKp58KvpSU0eq3Xvmz8fz88O3Ma5Lm2IrLYva0vVk1yNEP5I+kbZLxORFQPBT1gt9Io1b1W59U6IfS5NiL1R9qLHWTJxMtG6Q5x2+r7B0+J1SKpRXtbgdJO1jtr39LDO+JpPFjinswCoMPmKptzSBOvo81RdVFXZXHol471bmLar21TVV/xcVxjutJMGPq2i2LBml0AfGdhz2hDarqtYNe5y+Tjjd9+frV4nlPJY0fa5zgoaib7q1j0n6tGKRab1ykKl9O2hTj8ieg3tQbBk9u/0ZS5WqttUnFna91l+j721EYnJ90tjRxdgxSa92gop9K0xhj8yMggi/1u8ElaRQrfvMxcxchpukkWayKrBt02zuTRSePsmIQV87AJscycZGpPsiuXNk4a9mZ8v1CUVC9O+p1hqcQcv2zYpCK3xyetU31X7Bcpyy5mKj8dr/X/tOkGCr1VhOqTvxgKWnPEHSjbrAmcXzCQDsGqTe/CYWR94gJ5yx1WOzJ5XufbCf+wF3Ey4CGVycPwmD4095c/+wYxG8OLwfg7zlyXV1ysSgMUu25qJcCpZ0zCcFU4JIILhZT8ZuaNZd5oxNIe+BU/cYDCrl29Mp2FZartyLvu6XQIHZ3OJZqaQ1SqTXbr7ynb46l2RGKaixrBrvzvQyeBhlhIUVJTWuQ6Vpjq4hsLMp8x/pU9S4e9Gafz7NvGiRPmo5qpTVIxW/cA8hHHB3npG0tV++cXm92+IvH3P5okNxQuiuU3iCtjwB6j7sTLdrZgSgMzsm7Zxokb6IO6qU1SBF/Cp3laoEkq6JBklAqeMzUwtT5Tz21/dtJx1i9pnFJHEuqn+Qm1TYVJyJ/2++2c//cRIOY2phLuurVo95smKalit8c3g7o59LkjDVW5dejXvuv8u6BBsmbqIN6qvq+Qa+T6n5S037zEwLc5OA4i7Y0r96KZwzcMZ4GKcoRMEKfqrpp0Ot8PI3E0duK/kOanDHGPh6FwTtM1KdBTFB1TFOAP+uHwW+laWt4t/apM05/VofP9HD+TzdHYed2E23SICaouqfZjsJgJm1b1VrzJhV8Im2e5fivxC+9XN+7d9d/mKhLg5ig6qDmv5/x8o/t27XrpTStbdy4ceqfXzgwvOXPZWnyrMZmvIVq0h5pkKSkCh+nvxaFnb9OO0a13ny/KlLnpa2TMd7YZ49j/dAgGTdTuDTBF6Ju8K4sfVf81t8D+p4suSZzFPLuQdg2ep81GsTkBh3TXoin3vj07u1fTdvWZZc1VixMeV1AX5c211S8jbsqDnunQUxt0EHdLF/3HhtjVa2x3hPpODLWzigMrDwugwZxZOOW2ojk0It+v98/lKVepd78HSjuy5KbY85/RWFwwhNzc9Q/TooGMUXWUV2F3DQI25mv1B3nhYwK7BqEgaHnIS6+MBrE0QPZYFv7Duq8/1xv53ey1qjW110KTD2siouzaqTNE5Fb+932nWnzRo2nQUYlWMz8j0Vh8NFRWr/88neeO+8tGz7C7ZdH0UmQ+11AbonC9oMJYnMPoUFyR1oIwQPAgh+FO0a+HezR8yTDR0HnfjJRIPfJsqkte574wtfHRZUGGRf5MddV4NODMLghjzaGZ9y//q8HboTgxjyu3Rr+tkN0YcuecO6LefQ3igYNMgq9gueK6qZ+yqt8TzXypW+98tXL5+fXK7BegPUAfjoFosdFZS7WhbnB7rk9KfKMhtIgRvG6Ly6KG/u94I9NdFqptVaKhzeqDq8IjlcM/y2Qs0V0/+HntIv3ggD7538QP/HMM50fmOhhVE0aZFSCE5AvGjf7vTlXTgI6RZQGcWod42tmuc7/VG+Er37H17nZyjSIWb6FUpdDuKDfD75VqKYNN0uDGAZcNPlY4yv39ua2F61vU/3SIKbIFlpXPxqFnY+5PMJqf+Yte8JZ418D0yAuHwXj7e3vvGXLbh7nSbqTjT/tN28R4ONpb4iXBScNkoVaSXKGX8W+8rXsPVHYvteFkadrM28WiYfXY1017IcGcWEr7GH4q6GuQO7td9vbxoWj6jevU2D4tu81x3qgQca1DdZdlICqboN69+b9DI6T4T58Zn5h4WqovnexJ+7SIDxQXSUwq9DZ03Rhq4lzJ1W/UVN47wUOG+OCk0GgQVw9PNjXjxKYVcXDg17wUFYs1TUzF0K1EgMVASpQbSTRokGSUGKMSwT2KbBPgH2AfgPw9sXAvmWKM9XDWao4S47+b2h8FuBVAK2e6lXiVMPRIC6tnr04R4AGcW4lbMglAjSIS9tgL84RoEGcWwkbcokADeLSNtiLcwRoEOdWwoZcIkCDuLQN9uIcARrEuZWwIZcI0CAubYO9OEeABnFuJWzIJQI0iEvbYC/OEaBBnFsJG3KJAA3i0jbYi3MEaBDnVsKGXCJAg7i0DfbiHAEaxLmVsCGXCNAgLm2DvThHgAZxbiVsyCUCNIhL22AvzhGgQZxbCRtyiQAN4tI22ItzBGgQ51bChlwiQIOY38b3FXDmeXg/Oq4ArwXwJvMIiluBBjG0u+EtNNXDlr3dzpOGSuQiO3wW+SFZtlYEfw7g1bmITpAIDWJgmQLc1Q+D3zcgbUyyWt1wpi4/+ASAaWNFCihMg+S/tJ1RGKzLX9aOYsVvqp1KxahCg+S7p+fk0MtX9Pu7XsxX1p5apdb4TYjcb6+i25VokFz3o/dGYef3cpW0LLbKb73Bg/6L5bLOlqNBclyNirx/0G0/nKPkWKQqfvNrAC4cS3HHitIguS5EfzUKO5/PVXIMYhW/+VUAPz+G0s6VpEFyXImq3jnodW7NUdK61PTbZn5SDsXftV7Y0YI0SJ6LEe1E3U4zT0nbWpV6411QedR2XVfr0SA5b0aBTw/C4IacZa3JVfxmCKBmraDjhWgQAwtS6C8Nws6sAWmjkhW/cdsrj5vdbLRIwcRpEFMLE/lMjPhzRbjUZH5q+S9C9W5+c3XiwUCDmDLI/+nyYkXzjI1VoEGMoaXwJBCgQSZhi5zBGAEaxBhaCk8CARpkErbIGYwRoEGMoaXwJBCgQSZhi5zBGAEaxBhaCk8CARpkErbIGYwRoEGMoaXwJBCgQSZhi5zBGAEaxBhaCk8CARpkErbIGYwRoEGMoaXwJBCgQSZhi5zBGAEaxBhaCk8CARpkErbIGYwRoEGMocXXRPX+BfH27A3bu8yVcVu5+rbm+TqvVShWA3Kb292e2B0NYmBjArmvH7Y/bEC60JLTtZk3e168VRUXF2UQGiT/TRX65tX54zhRsUg3yKZB8j0iCn/z6nxxLK5WpBtk0yD5HhF/EoXBh/KVnDy16pqZCzWOh/f/df6PBslxRSp63aDb+YscJSdWquK39gP6OtcHpEHy3JDohqjb+cc8JSdVq1prDlSwyvX5aJBcN6S3R2GHdyZcgumqVWtf5Z1x+vdyRW9IjAbJE6wiiHpBK0/JSdSqrmleqTEK8UpLg+R/BN4RhcEf5C87OYoVv/UIoBuKMBENYmBLNqAaaNuKZNEer2Bjl2KDvHMnn1Q/GPU6n7ExexFqHPlqd+FuQN5ThH6P9UiDGNyWAt8RkaehcddgGaelBfJaBVbiyD8/7nSzizRHgxRtY+zXKgEaxCpuFisaARqkaBtjv1YJ0CBWcbNY0QjQIEXbGPu1SoAGsYqbxYpGgAYp2sbYr1UCNIhV3CxWNAI0SNE2xn6tEqBBrOJmsaIRoEGKtjH2a5UADWIVN4sVjQANUrSNsV+rBGgQq7hZrGgEJskgBwEsL9oC2K/TBA5FYXCa6Q7t/GCq3vwmFOebHob6JSIg+FbUDS4wPbEdg/jNZwFcYnoY6peKwHNRGFxqemIrBpn2m48LsNb0MNQvDwEFdg3C4ArTE1sxSLXWukFFP2V6GOqXisAtURj8kemJ7Rik3rhIVb5sehjql4iAyi9EvfYzpie2YpDhEBW/0QXENz0Q9UtBoBeFgZVjyaJBWtcA+tlSrI9DGiYgH4jC9oOGixyWt2aQI68izTkA62wMxhoTS2BHFAbrbU1n2SAzG4D4EVvDsc4kEvCuisLZR21NZtUgR19FbgZwl60BWWdyCIjI1f1ue5vNiawb5OgH9s1FfKqqzcWw1vEEVOS6Qbdt/QFIYzHIcPTpeutaUX2ABwIJLE1gfM92GZtBhlCq9dZGVd26NCBGlJiAlROCJ+M7VoMcebt1+IP78Lnl/HarxC5YZPQdgPdJmx/IF8M/doMca6riHz5Pcj2AGo+TMhPQEPDut3WeYynSzhjkf41Sa62EaEuBGQHOg+BcKM7j70mWWmXh/v9DELwIxb8p8KKnsg1e/Fi/2/mKS5M4ZxCX4LAXEqBBeAyQwCkI0CA8PEiABuExQALZCPAVJBs3ZpWEAA1SkkVzzGwEaJBs3JhVEgI0SEkWzTGzEaBBsnFjVkkI0CAlWTTHzEaABsnGjVklIUCDlGTRHDMbARokGzdmlYQADVKSRXPMbARokGzcmFUSAjRISRbNMbMRoEGycWNWSQjQICVZNMfMRoAGycaNWSUhQIOUZNEcMxsBGiQbN2aVhAANUpJFc8xsBGiQbNyYVRICNEhJFs0xsxGgQbJxY1ZJCPwPsnObFFGhrOcAAAAASUVORK5CYII=;" vertex="1" parent="1">
          <mxGeometry x="219" y="450" width="47" height="47" as="geometry" />
        </mxCell>
        <mxCell id="V0m3F8l0XvwCJWidBoo5-12" value="Prompt素材集" style="swimlane;whiteSpace=wrap;html=1;" vertex="1" parent="1">
          <mxGeometry x="155" y="359" width="124" height="155" as="geometry" />
        </mxCell>
        <mxCell id="V0m3F8l0XvwCJWidBoo5-24" style="edgeStyle=orthogonalEdgeStyle;rounded=0;orthogonalLoop=1;jettySize=auto;html=1;exitX=0.5;exitY=0;exitDx=0;exitDy=0;entryX=0;entryY=0.5;entryDx=0;entryDy=0;curved=1;fillColor=#fff2cc;strokeColor=#d6b656;" edge="1" parent="1" source="V0m3F8l0XvwCJWidBoo5-17" target="V0m3F8l0XvwCJWidBoo5-3">
          <mxGeometry relative="1" as="geometry" />
        </mxCell>
        <mxCell id="V0m3F8l0XvwCJWidBoo5-17" value="抽取规则素材集" style="swimlane;whiteSpace=wrap;html=1;" vertex="1" parent="1">
          <mxGeometry x="297" y="359" width="124" height="155" as="geometry" />
        </mxCell>
        <mxCell id="V0m3F8l0XvwCJWidBoo5-18" value="" style="shape=image;imageAspect=0;aspect=fixed;verticalLabelPosition=bottom;verticalAlign=top;image=data:image/png,iVBORw0KGgoAAAANSUhEUgAAAMgAAADICAYAAACtWK6eAAAAAXNSR0IArs4c6QAAHfNJREFUeF7tXXmcHFW1/k71kITp6gSS6eoEMQhGkq4OIARUCDzBhUVABJEnW+TBExSBB4Ig8HyKG/siiwv6wBAQJQoKKKvCT1lciGzT1YkJwg94yXT1JCSZ6sk2XedRnQyG0NNVt/pWd0337d8v/6TP+c45373fVFfVvecS1EcxoBgYkQFS3CgGFAMjM6AEomaHYqAOA0oganooBpRA1BxQDIRjQF1BwvGmvDqEASWQDhloVWY4BpRAwvGmvDqEASWQDhloVWY4BpRAwvGmvDqEASWQDhloVWY4BpRAwvGmvDqEgVgKhHna2HWlraayRlMrLqYyY4cOGY/YlkkarWLm15nd17u6xrzWPemF12ObrMTEYiOQcn9uL67wh4lwBAP7SqxRQUXHwHww7iWt8odketHS6MK0DrmlAuHF08aWJ4w5h4HPETCjdTSoyBIYuA8J7UZ9Uu/DErBiA9EygThF8wQieOLYIzZsqEQaZ4Bwh+a6N3VnFj7dOFjrEZouEF4xa4KzYc2tRDiy9eWrDCJjgOhKPZ0/PzL8JgE3VSCr7Ny0BPh+ANObVJ8K01oGfqcb1qGtTaGx6E0TyGBf9kOuRm1x2W2M8o7zfkU3rB1Ha9VNEcjKvl126tIqL41WklTeDTJAeENPWxMbRGmJe+QCWb105x6tq+sVAMmWVKiCxoIBBn6VMqyjY5GMQBKRCmTx4mljp0wYczeATwjkpEzblQGmK/XM6Lpxj1Qgjm3+BMAp7Treqi5xBoj5S8lM4fvinq3xiEwgTjF3EIgfbE1ZKmpcGWDGS3DX752asqQU1xw3zys6gdimJ46DRgMJKscmM+DiMn2ydWGTo4YKF4lAynb2FAZ5P69CfQhwGJjPzM+4rva3CVPyfwsFpJykMVAuZaeAsTuA3V1gDwIdFRqcsW5oiPfZ5l2Fv4fGaJJjJAJx7Nx9AB8WpgYCP1XhxFfGZ3qfCuOvfJrDgFPMngiiKwFkwkQk8NeSRuHbYXyb6SNdILx82vhyZYwNYKxwIYRz9bR1jbCfcmgZA46dmwvwnBAJ/FE3rA+H8Guqi3SBDNjmZwi4S7QKDTir27BuEPVT9q1nwLHN3wE4RDQTrqw34n6zLl0gIR/tPqAblnpXIjrDYmLv3Z8wk/h+EMaJesa6PSZl1ExDukDKtrlAdAm7y+7s8ZmF6p4jzjPFJ7cBO/clAt8oVALztXqm8GUhnyYbSxeIU8zaIEoL1NGrG9YuAvbKNIYMrLVz04bAiwVTm68b1jGCPk01lyqQTTsE14pUwKBfpIz8Z0V8lG08GXBs81UA7w6aHQFPJw1rn6D2rbCTKpC1xZnvHSJ3iVAhGl+g9xSuEPJRxrFkIMTN+uu6YQUWVCuKliqQgWUz9qeE9phIIVxxD0hNWfi4iI+yjScDA0XzG0T4ukh2umFJnYMisYPYSk1OCSQI5e1rowTi9yRDXUHad/YHqEwJRAkkwDTpXBMlECWQzp39ASpXAlECCTBNOtdECUQJpHNnf4DKlUCUQAJMk841UQJRAunc2R+gciWQUSIQXrnLts6aDbsFGNOONKm4tHrCdt0vEi3YIJMAJZCYC6RcMr/AjNMBqMWPfjOfsY7BC6BpN6TS+Z/7mQf5XgkkxgJxSmYvGLkgA6ls3s4AMy5JZaxvNMqLEkhMBVIumfcy4/BGB7iT/V3g38Yb1p8a4UAJJIYCcYrZj4OorQ5taWSSNuC7aBDY0zAsJyyGEkgcBdKXPRsaXRt2UJXfvxhwWZvdSDcZJZA4CqRozgPhBDXRG2eACF9Mpq0fhkVSAomjQGzzVgAnhR1U5fcvBohwWjJt3RyWEyWQGApk06PdH4QdVOW3uUDcPZPphQvCcqIEEkuBzJjFrD0TdlCV30YGiHBvMm0d0QgfSiAxFIiX0oBtXk/AmY0Mbqf7stuVSU1+weuIGfqjBBJTgXhplW3zBgbOCD26Hewoqy+AEkiMBeKl5hRzc0B8nlpqEkDtw0tNXL5YVtMMJZCYC2Q4PbVYsf5AqcWKAf6AbDJRXU2Cc6Us/f5AqrY/9RlSbX86W0PqJ5bfXxDV9qejFaIEogTS0QLwK14JRAnEb4509PdKIEogHS0Av+KVQJRA/OZIR3+vBKIE0tEC8CteCUQJxG+OdPT3SiBKIB0tAL/ilUCUQPzmSEd/rwSiBNLRAvArXglECcRvjnT090ogSiAdLQC/4pVAlED85khHf68EogTS0QLwK14JRAnEb4509PdKIEogHS0Av+KVQJRA/OZIR3+vBKIE0tEC8CteCUQJxG+OdPT3SiAxF4htm/o44GgN2B3gXdtqtjK9DuYFIOT1TOGRONamBBJjgawuztxH09ybO+GUKSLcl0xbn4ybSJRAYioQp2QeD8btcZswkebjXUnS1sxIYwiCK4HEUCCrVuUmdq3nF5mxneB4jnrzRs/zkE2AEkgMBeKUcseB+Q7Zgz1K8F7UDSs291qDxeyRLtHdAtw9pxvW7gL2TTcd9Z0VnT7zUmj4atOZi0nA5JjERNrmxTfikM7K4sz3dpG7JGguzPhhKmN9Mah9K+xGv0Ds7GMA7d8K8uIQU1Zndlm1iJw4TKQdnkz33i8rdhQ4o18g6goSmyuIN0G9e8LEOl7uO1kZd+gZK/ZnS45+gah7kNjcgwyLYs3K6TsOrU88QMD0mkJhvkDPFK7wFVEMDEa9QNRTrPCn0kY5/7hv12Q5MXQJmGcBNIuBZeS96GTtPn1y/s4oY8vEHvUC8chQ70FkTgmFtTkDbSEQryD1Jl1N7CgYaBuBeOSotVhRTJHOxmwrgXT2UKrqo2BACSQKVhVm2zCgBNI2Q6kKiYIBJZAoWFWYbcOAEkjbDKUqJAoGlECiYFVhtg0DSiBtM5SqkCgYUAKJglWF2TYMKIG0zVCqQqJgQAkkClYVZtswoATSNkMZvJByf24vb6MViA4A4wMAP8RE96QMa35wlI2WTil3LZi9DWvv91b7AHQnD7l3p7Yr/FEUK472SiBxHBXJOfEb799mzfp1BzDRAQwcAKBmNxQGjhERiWObdwH4TM10mV4G+B50aQ/pk3ofllxS0+CUQJpGdfMDrezbZaeE5p5M4JMBTPHLgIC1XQmaNXZS3vKzFexg8jyI5rrrKreN336h/25Dv+BN/F4JpIlkNyvUuuU5c8MQnwINJ4OxjVDcAP22vK0FCc2dH6LV0usEmluhym3j0wv/IZRXi4yVQFpEfBRhnWJuN9ZwmsZ8MgNjw8fgx4kSV2/ZUKFcyk4B6FRmfCM8NgDmNaTR3CHmayYYhcUNYUXsrAQSMcHNgh8oml8gwrcBTJIWk/AoEV4lF7ZL9B4C/1uIq0a9dIoAX6obhe9Jy1kykBKIZEKbDTe4fNft3aEN3wHRnGbHlhePHmbCZal0/jF5mHKQlEDk8NgSlAHb/AyhetXYuSUJyA5KuCrZY11ABFc2dFg8JZCwzLXYb8DOfZvAF7c4DenhmfGbNYQTDMNypIOHAFQCCUFaq13Kdu4mBp/e6jyii0+PcGXd8akpS0rRxQiGrAQSjKdYWL322vZbbzt2wq0A/3ssEoowCQKepC4c1z3RejXCML7QSiC+FMXDoFyavh27iXkgfCQeGTUli2e7qHLsuPSiRU2JViNIWwnEe4FFcD/35glMs4Dqv4Y/DKwm4GkQvdDFuHmckQ/cvbzh4JsAnOLMDKjyMECxazMqq8Y6OA/phnVwE+LUDNE2AhFc+hCabw04q9uwbggNEMLRKZrngXBlCNcRXPjxKDviE+E1ZrxbWr5MB+uZ/EPS8ASA2kIgA7Z5PQFnCtTdmGmXtps+sfeFxkCCezu2ycGt61ouBvO39ExhXvURMfNNIEpLwgYYLwLaeXqm92GnlD0bTFcD0BrFb+VJWqNeIOXSjFnM2jONDoKYPz2sG/mDxHzCW5dt8ykG9g6NwFhBxNcmjYL3zuStj/eSsVLZ8HUC/Wdo7KojvczMt6Uy1tuWoDBDW9Ofu8xl/koj+C5rs8dnep9qBCOsbxsIJPd5Zr45LAGh/Zp4FRkoZm8ionCPdRl3cEL7TqqntzBSrQPLZuyvJehMBh0lwgcBf3aBn+mJ9XNp0pLVI/mueSO7Q2U9LgXRsSL4VVvGikHCDq16LzLqBdLQ5BEerc0cmOd4P1UagQjqu9o2T9KAW4PaD08saDhLT1uBz28c6MvO1IhmM2g2wNMZ6CGqru3qJqCfGctB3E+M+ZVE1x/G97y4UCSnQdvc1wX+JOKDFh+0M+oFUi6Z9zDjU0KkyzBmnKdnLO83dlM+ovchzLhky588TUnUJ4hoHa14KLJ5CaNeIPKf8ASbRs0+G1B0YrWLQAj4RNKwHgg2KvKt2kAgMw4EaU19BEjAS4NU2T2dXjQgf0jeiTiwbFqaEmNskVjtIhC4fI4+uXCdSO0ybUe9QDwyRE5WlUGexnxUd6ZwjwysIBirbXNfTfC3OwNnpgzrxiD4zbRxbNM7slpkl+MDumF9opk5ttVPrOFiHNv01uzIezk10ogQHtXT1sebOWBOKXsNmM4Risl8oJ4pPCLk0wTjAdv8BwHvEwnlAvuNN6wnRHxk2bbFFeQtkRTNK0E4TxY5NXAu1Q3rogjx3wFd3V9e4T8AyIjE1RLa1O5Jva+J+AzbVp9mJRLvYapsq7m0bYUxkZhXuhqtBPNKcnllasrCx0NhF7NPEtE+gr7zdcM6RtBHinlbCcRjZGVx5nvHoLJrBbSbDIZIo1U8VHkWGMo3e/l19SUotLlg5ARr6dcNS+gNefWMR3IPB+HwIPGY8U8A81zGAxMmW38Jml8DS4LmE7mXJ9MLFwSNJcOu7QQig5RWYniNESih7VTZwHOIcGrIXG7RDeuUIL4DfbmPQOMzCDgyiH0tGwbugUs3pibnvStd3c+qvuyHEho97Wc30vdv7om/GeDn4HKBt9qqT/RdjGhcJRBRxiKwL9vZT4DwKWbyJmlPoyGIcEQybd1bD8fpm7ELado5DPxHo/GG/Qm4lYHrdcN6rm5s2/Te6s+QEbf6Np/xUFTvfJRAZIxSAxgDK7IzMURPEZBqAGZz1wW6Ye1ZD6tcyh4K0M2SO5QMh1wJly+p92jWsXMXAHyZpHo3wrB7kJ5ZKL2DoxKI1FESB3OK5qMgfFTcs7YHEU5Lpq0R16Y1cA8gliLRPD2dr9lphXn/rnLJ9hYf7iUGOrK1dyVJGlb4BZ0jQCuByBqhEDirizP21kiTuUq17tVjwDbvbuReQ7RE734hlbFOq+U3aJvHuMAvRDHr2XOFcqkp/m1TRWIqgYiwJdnWKeXOAfM1smDZ5WNTkws/r4XXtCvHFsE1Tft0d0/v3SPk9KMGHkS8A5KBs1KSN7MpgcianSFwBormL4nw6RCu75wcjC+mMtYPa07EZTP2p4TWsqZsRNpeyXRvzT07jm16/y9nezTj16mMFfppXC3ulEBkzM6QGI5trgQwIaT7Zm50m27kPzcSjmObvwNwSONxQiPUXS4iuhBzpCy8/gEpw5LA578iKIGEHvPGHKXdf9S5GfYydEq5Y8H8s8ayleBNdJyezt9ZR8RyriQaf1zvKTwqIeMqhBKILCYFcQb6sheTRm/bAisI4fs41cMr29knGcJLOwRT8Tcn8FNJozC7nmXdA3n8Q1QtNKIru9P58wOa+5opgfhSFI2BY2cfC9tZJPALuZJ5PBi3R1NBGFQ6STfyc+t5eg8TNA2fD/uOhoAnkoa1X5jsavkogchiUhDHsbPPi/a58v4Ku672tSBLOqo/r4rm7SAcL5jasPmt3mQDuc9765+cFTN3xYbKbtBwCDjE3vLqsSC4N5WxjvDLx3tPMlgqXgCi04WFEuAAIL/4m3+vBCLClkTbcsl8VbB31IO6YQW+0V61KjcxsY5DHXfmd1ahU8pdDuZQP2O4st4QWfTp2Ka3mzBw47g3HxsvTaatd8kaKiUQWUwK4ji26XUvTwq4/VQ3rMDrpspF8zQm1HzsWy9m0I1W5dLMw5jd+wTyr5oS85eSmcL3g/o5pdxtYD4xqD0Ba5KG1R3U3s9OCcSPoQi+X7x42tgpE8asFYPmy3Wj8NWgPk7JvBIsujeGb9ONwoiPi7eM7RTNq0A4N2hOGxWCq/S0FbhPllM0rwbhyyIxkunBrYleEeS3dgQlEBHmJdk6tjkZwDIhOMa5esYK/Na9XMr9mJnFGsIJ9voq2+buDPxdpA4i+kkynf98UB+nP3s+XLo8qH1Vg8TbJdMFMX5HCKAEIsK8JNuBZTmTEpwXgUsQTthaoMdV2TbnM3B00BgElJOGpQe1H7Yr22aZgcA/aQj4ZdKwap+tXiO4U8zO8Y6QFslrqwTlghxlHQRTCSQIS5JtBou52S6x2B7rBB+oTwq+x9wpmY+A8TGB1P+mG9YHBOyrpsJLRQT39DtF8a41Whft2z0x/6RoLbXslUBksCiIEeqnCfjQpFHwlowE+pRLufuY+bBAxhuNXtENa0cB+2GBCDXLIKL7k+n84UHjrO6bcZimaUIPAwjYI2lYzwaNUc9OCUQGi4IYg8tnvtutuEInJ2ngz3YbhcDLw52SOQ+ME4RSY22ynuktBvXxtgcz09Kg9lU7wu162gr8VMopmieAINTitZGGFVvWogQiNLpyjJcundU9vmtNWQTNbyPUllhl27yBgTNEYmhMR3dn8r8K6lPuM49gDb8Oar9RH7gxaViBj6oYsHNfIrBQf6/VQ1snt9tuwaBIXiPZKoHIYDEEhujNrfdiTs8UAh+iU+7PfYtd/m+h1AhvrN6w9fZBJhezOWawHy+Lvun21p8le/JfC5rXatu8UAO+G9SegMGkYYm8X6oLrQQSlHnJdsKN7giPEtyvBm17s6rP/GBCw59DpP2sblh7+PmVbfNPDOzrZ7fl9yI9jaubvIALQRgjEOc13bCmCtgrgcgiSyaOY5ve+4PdRTG9baya5t4cRChO0XwRhJnCMYB/MnDSeMN6x1EFq/vMT2oafgzAEMUFsFg3rJ39/KqnU7l0Ngg7+NnW+D6QwIPiqitIUKYk2zV6bEOQ5tTlkvl1Zrzt1CeRMhhYBIZ3wuyzRDDh/RNvYrdZyPqrAQZXmFPdIfo+wIeK5Lm5bdAFkUHxlUCCMiXZzunLng2Nrm0Mlh/XjcIBI2GUS9k9mMnretjVWBwp3kNE/MFkulDzzXuYBt01s2K+QM8UrpCSsdowJYtGcZxVy3J7JRL8V3HPd3rohjXiHzrHzl0L8Nky4jSGQdfpRr5mA27HNi+EwI14vTxcpn3HZ+S8JPTiqCtIY6PekHeIowBG+KM5cnsdr1dxF9y/YONRaq35MJYPQfvgNpnel7ZMwLFNb4XyLTISU3vSZbAYI4yBovlrr02ojJSY+fRUpvCDWlitavkznMtI90uDK3KzeYgfYWBrGRwAeEg3rMB7R4LEVFeQICxFZFO2sxczGtqX/rbMiNw9R3q61cgW30bKJw23JHtqN9Ju9EHFlnkFeXAhWosSiChjEu2d5TMPRMWVdnxcvU6Gtm3q3UBTjozbnKJkev04oiXrtqTNO3paeq8upoP1TF4an+oeROJkDwvlFM15IME1U3WC1buKbDoDRMoq1yD11r+imd6x1icFwQloI7TjMiCmukkPSlRUdtW942v5+mpjN8LERuMwcEPKsM4aCWfFip0mjK2Mm8eMwCtqQ+T0HFg7eKSFj2vt3LQh8OIQuLVdCIUuVI4cl17kvbOR+lE/saTSGR7ME4q2jj9KzHuTRvsyh+t8zsCSlGH5ngHo2OalAAJv4Q1cGdF1err249xhjEHbPNMFvD8KYT8PEuEV10VR09z7gqwqCBtICSQscxH7DfbPPMpl95th3lxXXHwoyLFo1Z9cqJwBCtfG520UMN/pInHj+Eyvb7f6sm0+wUDdJnK16NWAszaMpTsmTMiviJj+t+CVQJrFdIg41QM8Xb5LVCSiT3PKtnkIM59IRIczILLtdgMYdxHhjqRhee15fD9rS9OnD3Fioa/hOw0u1A1L7qE7AZJQAglAUitNyiXzVGb8SCwH/rluFI4V8wGqT7oYn/LezTCwIwPbErAtNv7zGm1v+scrwbilMk77rehf83LJ/CQzfiOYm++pWYJ4gc2VQAJT1TpD4X3fgNQVrTIrL9vmyQz8rwim6GYxEWw/WyUQP4Zi8L1TNO8A4bigqcjeNBQ0bhA7p5g9HyTWxqeLKjOieEIVJF8lkCAstdhGdKlIFGuSZFEQ5gDPeosxZeU1Eo5cgfTPzJLrWiJJt/LyKZJnK23Fm1DTy7qR36mVOY8UO8w9VRfofeOM/JJW1CNVINy3a7KsDXk9ZwN/6i2PCAzS5oaO8Lni/IxuFKSdICuT3oHijKOItMCNIbzYLvOR4zMFoeYQsnKWKhAvKcc2+wGhpdUte0Ihi8QocVb1ZT+U0OjpEDEu0g3LexkY6sPPzNqqv2ewZ9w4TAJzD4j6167F8p7+7n7ac8GGUKAbj2QQbuPjtzogbC5B/KIQiPhe64gOgQ9CQNxtyiXzC8youYzdL3cCHmTAe3/wnJ+tJwhn6uBRGrAfA/vVP7uEvePSfs/QntFfHfebIIIZXL7r9m5l6GoAx/jlsuX3QVcHiOIGsZcukHLJ/AEzvhAk+Fs2zC/omcJuQj4dYuzYDS7qY14DxkX65MJ1tSirNtJmngON5oi+kKziEfJw+TaQd5Co1VcrRvXRLsFbFRD63A6XtdlB3tLLnhbSBbJqWfbQRILuF02UmW9KZQpCjc5EY4xGe9EnWCPWSCi4jNvHG9ZbPaa8Mz7A7rUMTGuYG8JrYL5aNwrfG8aq4sP1XnQ2vDBSdHVAw/VsApAuELZNvQyUAIwTTpJwgi7QwVwYfxQ6vLFsxnu2Smgvy0qdgTfAuJ6o+nZ8xFW/DcT745tXih+D+L8A2rMBnLe5yjzSQCQn6QLxgpdt824Gwh3ozrijQnzJBKMgbzm0CCMxtC2Xcl9j5m/GMLWmpNTKJ50RCSR7CoN+Epo9xgpo9Fu4/IILelpml4rQObXY0SmZ54JxVYvTaHp4Bv8kZRQCH7gjO8FIBOIl6djmgwAOkp1w3PC8t9YEPA2iF7oYN0f5QmugmD2diG6KGweR5cN8hZ4pXBAZfgDg6ARSzB0EYk8kHfXx9ix0G9YNURUts01OVDlKwZXcAC5sTpEJZNNVxPuZdUrY5Eatn+BZf6J1On25Y1njHxGQEvUdDfYEnJI0LCm9shqtN1KB8NJZ3YNda7wu4L7dwhstJF7+9LBu5CP9eblqmfmBhIbvgvDReNUePhsi/JUJF+k91u/Do8j1jFQgXqpvLM3usFWCFoEwVm7qMUeL+CoyXL1jm957Da9156j+eO/BdM29kNKLmt6aqB5xkQvEC14uzZjFrHnLEzrnwzxHzxSEjg4LS87qYvZIIvouATPCYrTQ7//AfJGeKdzWwhxGDN0UgXjRV5emT9fC7UWOI2/+ORF9WU/nG+ze7h9m2GKwf+d3VSpd/0OEU4N71bf03j8A/BxcLmgJbSeX8UGZ+ATc06UlLhrb82KYPeqyyqyL0zSBeFk4zswMBt35by50268p1bUwiMhJSjLT9K7Wrqud2thE5seJ+Lxa7XSqvwagzQ21bmu4UKJ5qPBcfXJ87jVGGoOmCsRLYtON+1yRQ+5lTqBmYXFlvZGassRbctOST2ihEPJ62vI9lcopmb2CIlkFYC4Rzx3pjJCWEOUTtOkCGc7H2xdAhHPa8QlXK5dGbDnem+7/5oBwILj+PQoBa5OGFbjTetk2B/zaBBHwhMv4fdcY96dbb7vwlTiKoF5OLRNI9WqyeNrY8oQx3qEq3hkRvmfXjRZyW7mHuh5Ha2xzv0r1eDPyHkG//222hH9omvax7km9rwXlefXSnXu0rq5HAWyxVYEf10D3JBL06NhJeaEt2EFjN8uupQLZvMhB29y3AjqIwN7gxXK7qO+gML6iZ6xRsV5qTd/0HYe0xGFgTILrPr62ixekQzxi5eXTxpeHxu7N4L01sA0N9yTThWW+XI0Sg9gIZHO+mKeNXVfaaiprNLXiYipzqNNOmzIEBDiA+wLQ9fxIzZqbkogKEgkDsRRIJJUqUMVACAaUQEKQplw6hwElkM4Za1VpCAaUQEKQplw6hwElkM4Za1VpCAaUQEKQplw6hwElkM4Za1VpCAaUQEKQplw6hwElkM4Za1VpCAaUQEKQplw6hwElkM4Za1VpCAaUQEKQplw6h4H/B4afrpvOHEHOAAAAAElFTkSuQmCC;" vertex="1" parent="V0m3F8l0XvwCJWidBoo5-17">
          <mxGeometry x="7" y="32" width="57" height="57" as="geometry" />
        </mxCell>
        <mxCell id="V0m3F8l0XvwCJWidBoo5-19" value="" style="shape=image;imageAspect=0;aspect=fixed;verticalLabelPosition=bottom;verticalAlign=top;image=data:image/png,iVBORw0KGgoAAAANSUhEUgAAAMgAAADICAYAAACtWK6eAAAAAXNSR0IArs4c6QAAHfNJREFUeF7tXXmcHFW1/k71kITp6gSS6eoEMQhGkq4OIARUCDzBhUVABJEnW+TBExSBB4Ig8HyKG/siiwv6wBAQJQoKKKvCT1lciGzT1YkJwg94yXT1JCSZ6sk2XedRnQyG0NNVt/pWd0337d8v/6TP+c45373fVFfVvecS1EcxoBgYkQFS3CgGFAMjM6AEomaHYqAOA0oganooBpRA1BxQDIRjQF1BwvGmvDqEASWQDhloVWY4BpRAwvGmvDqEASWQDhloVWY4BpRAwvGmvDqEASWQDhloVWY4BpRAwvGmvDqEgVgKhHna2HWlraayRlMrLqYyY4cOGY/YlkkarWLm15nd17u6xrzWPemF12ObrMTEYiOQcn9uL67wh4lwBAP7SqxRQUXHwHww7iWt8odketHS6MK0DrmlAuHF08aWJ4w5h4HPETCjdTSoyBIYuA8J7UZ9Uu/DErBiA9EygThF8wQieOLYIzZsqEQaZ4Bwh+a6N3VnFj7dOFjrEZouEF4xa4KzYc2tRDiy9eWrDCJjgOhKPZ0/PzL8JgE3VSCr7Ny0BPh+ANObVJ8K01oGfqcb1qGtTaGx6E0TyGBf9kOuRm1x2W2M8o7zfkU3rB1Ha9VNEcjKvl126tIqL41WklTeDTJAeENPWxMbRGmJe+QCWb105x6tq+sVAMmWVKiCxoIBBn6VMqyjY5GMQBKRCmTx4mljp0wYczeATwjkpEzblQGmK/XM6Lpxj1Qgjm3+BMAp7Treqi5xBoj5S8lM4fvinq3xiEwgTjF3EIgfbE1ZKmpcGWDGS3DX752asqQU1xw3zys6gdimJ46DRgMJKscmM+DiMn2ydWGTo4YKF4lAynb2FAZ5P69CfQhwGJjPzM+4rva3CVPyfwsFpJykMVAuZaeAsTuA3V1gDwIdFRqcsW5oiPfZ5l2Fv4fGaJJjJAJx7Nx9AB8WpgYCP1XhxFfGZ3qfCuOvfJrDgFPMngiiKwFkwkQk8NeSRuHbYXyb6SNdILx82vhyZYwNYKxwIYRz9bR1jbCfcmgZA46dmwvwnBAJ/FE3rA+H8Guqi3SBDNjmZwi4S7QKDTir27BuEPVT9q1nwLHN3wE4RDQTrqw34n6zLl0gIR/tPqAblnpXIjrDYmLv3Z8wk/h+EMaJesa6PSZl1ExDukDKtrlAdAm7y+7s8ZmF6p4jzjPFJ7cBO/clAt8oVALztXqm8GUhnyYbSxeIU8zaIEoL1NGrG9YuAvbKNIYMrLVz04bAiwVTm68b1jGCPk01lyqQTTsE14pUwKBfpIz8Z0V8lG08GXBs81UA7w6aHQFPJw1rn6D2rbCTKpC1xZnvHSJ3iVAhGl+g9xSuEPJRxrFkIMTN+uu6YQUWVCuKliqQgWUz9qeE9phIIVxxD0hNWfi4iI+yjScDA0XzG0T4ukh2umFJnYMisYPYSk1OCSQI5e1rowTi9yRDXUHad/YHqEwJRAkkwDTpXBMlECWQzp39ASpXAlECCTBNOtdECUQJpHNnf4DKlUCUQAJMk841UQJRAunc2R+gciWQUSIQXrnLts6aDbsFGNOONKm4tHrCdt0vEi3YIJMAJZCYC6RcMr/AjNMBqMWPfjOfsY7BC6BpN6TS+Z/7mQf5XgkkxgJxSmYvGLkgA6ls3s4AMy5JZaxvNMqLEkhMBVIumfcy4/BGB7iT/V3g38Yb1p8a4UAJJIYCcYrZj4OorQ5taWSSNuC7aBDY0zAsJyyGEkgcBdKXPRsaXRt2UJXfvxhwWZvdSDcZJZA4CqRozgPhBDXRG2eACF9Mpq0fhkVSAomjQGzzVgAnhR1U5fcvBohwWjJt3RyWEyWQGApk06PdH4QdVOW3uUDcPZPphQvCcqIEEkuBzJjFrD0TdlCV30YGiHBvMm0d0QgfSiAxFIiX0oBtXk/AmY0Mbqf7stuVSU1+weuIGfqjBBJTgXhplW3zBgbOCD26Hewoqy+AEkiMBeKl5hRzc0B8nlpqEkDtw0tNXL5YVtMMJZCYC2Q4PbVYsf5AqcWKAf6AbDJRXU2Cc6Us/f5AqrY/9RlSbX86W0PqJ5bfXxDV9qejFaIEogTS0QLwK14JRAnEb4509PdKIEogHS0Av+KVQJRA/OZIR3+vBKIE0tEC8CteCUQJxG+OdPT3SiBKIB0tAL/ilUCUQPzmSEd/rwSiBNLRAvArXglECcRvjnT090ogSiAdLQC/4pVAlED85khHf68EogTS0QLwK14JRAnEb4509PdKIEogHS0Av+KVQJRA/OZIR3+vBKIE0tEC8CteCUQJxG+OdPT3SiAxF4htm/o44GgN2B3gXdtqtjK9DuYFIOT1TOGRONamBBJjgawuztxH09ybO+GUKSLcl0xbn4ybSJRAYioQp2QeD8btcZswkebjXUnS1sxIYwiCK4HEUCCrVuUmdq3nF5mxneB4jnrzRs/zkE2AEkgMBeKUcseB+Q7Zgz1K8F7UDSs291qDxeyRLtHdAtw9pxvW7gL2TTcd9Z0VnT7zUmj4atOZi0nA5JjERNrmxTfikM7K4sz3dpG7JGguzPhhKmN9Mah9K+xGv0Ds7GMA7d8K8uIQU1Zndlm1iJw4TKQdnkz33i8rdhQ4o18g6goSmyuIN0G9e8LEOl7uO1kZd+gZK/ZnS45+gah7kNjcgwyLYs3K6TsOrU88QMD0mkJhvkDPFK7wFVEMDEa9QNRTrPCn0kY5/7hv12Q5MXQJmGcBNIuBZeS96GTtPn1y/s4oY8vEHvUC8chQ70FkTgmFtTkDbSEQryD1Jl1N7CgYaBuBeOSotVhRTJHOxmwrgXT2UKrqo2BACSQKVhVm2zCgBNI2Q6kKiYIBJZAoWFWYbcOAEkjbDKUqJAoGlECiYFVhtg0DSiBtM5SqkCgYUAKJglWF2TYMKIG0zVCqQqJgQAkkClYVZtswoATSNkMZvJByf24vb6MViA4A4wMAP8RE96QMa35wlI2WTil3LZi9DWvv91b7AHQnD7l3p7Yr/FEUK472SiBxHBXJOfEb799mzfp1BzDRAQwcAKBmNxQGjhERiWObdwH4TM10mV4G+B50aQ/pk3ofllxS0+CUQJpGdfMDrezbZaeE5p5M4JMBTPHLgIC1XQmaNXZS3vKzFexg8jyI5rrrKreN336h/25Dv+BN/F4JpIlkNyvUuuU5c8MQnwINJ4OxjVDcAP22vK0FCc2dH6LV0usEmluhym3j0wv/IZRXi4yVQFpEfBRhnWJuN9ZwmsZ8MgNjw8fgx4kSV2/ZUKFcyk4B6FRmfCM8NgDmNaTR3CHmayYYhcUNYUXsrAQSMcHNgh8oml8gwrcBTJIWk/AoEV4lF7ZL9B4C/1uIq0a9dIoAX6obhe9Jy1kykBKIZEKbDTe4fNft3aEN3wHRnGbHlhePHmbCZal0/jF5mHKQlEDk8NgSlAHb/AyhetXYuSUJyA5KuCrZY11ABFc2dFg8JZCwzLXYb8DOfZvAF7c4DenhmfGbNYQTDMNypIOHAFQCCUFaq13Kdu4mBp/e6jyii0+PcGXd8akpS0rRxQiGrAQSjKdYWL322vZbbzt2wq0A/3ssEoowCQKepC4c1z3RejXCML7QSiC+FMXDoFyavh27iXkgfCQeGTUli2e7qHLsuPSiRU2JViNIWwnEe4FFcD/35glMs4Dqv4Y/DKwm4GkQvdDFuHmckQ/cvbzh4JsAnOLMDKjyMECxazMqq8Y6OA/phnVwE+LUDNE2AhFc+hCabw04q9uwbggNEMLRKZrngXBlCNcRXPjxKDviE+E1ZrxbWr5MB+uZ/EPS8ASA2kIgA7Z5PQFnCtTdmGmXtps+sfeFxkCCezu2ycGt61ouBvO39ExhXvURMfNNIEpLwgYYLwLaeXqm92GnlD0bTFcD0BrFb+VJWqNeIOXSjFnM2jONDoKYPz2sG/mDxHzCW5dt8ykG9g6NwFhBxNcmjYL3zuStj/eSsVLZ8HUC/Wdo7KojvczMt6Uy1tuWoDBDW9Ofu8xl/koj+C5rs8dnep9qBCOsbxsIJPd5Zr45LAGh/Zp4FRkoZm8ionCPdRl3cEL7TqqntzBSrQPLZuyvJehMBh0lwgcBf3aBn+mJ9XNp0pLVI/mueSO7Q2U9LgXRsSL4VVvGikHCDq16LzLqBdLQ5BEerc0cmOd4P1UagQjqu9o2T9KAW4PaD08saDhLT1uBz28c6MvO1IhmM2g2wNMZ6CGqru3qJqCfGctB3E+M+ZVE1x/G97y4UCSnQdvc1wX+JOKDFh+0M+oFUi6Z9zDjU0KkyzBmnKdnLO83dlM+ovchzLhky588TUnUJ4hoHa14KLJ5CaNeIPKf8ASbRs0+G1B0YrWLQAj4RNKwHgg2KvKt2kAgMw4EaU19BEjAS4NU2T2dXjQgf0jeiTiwbFqaEmNskVjtIhC4fI4+uXCdSO0ybUe9QDwyRE5WlUGexnxUd6ZwjwysIBirbXNfTfC3OwNnpgzrxiD4zbRxbNM7slpkl+MDumF9opk5ttVPrOFiHNv01uzIezk10ogQHtXT1sebOWBOKXsNmM4Risl8oJ4pPCLk0wTjAdv8BwHvEwnlAvuNN6wnRHxk2bbFFeQtkRTNK0E4TxY5NXAu1Q3rogjx3wFd3V9e4T8AyIjE1RLa1O5Jva+J+AzbVp9mJRLvYapsq7m0bYUxkZhXuhqtBPNKcnllasrCx0NhF7NPEtE+gr7zdcM6RtBHinlbCcRjZGVx5nvHoLJrBbSbDIZIo1U8VHkWGMo3e/l19SUotLlg5ARr6dcNS+gNefWMR3IPB+HwIPGY8U8A81zGAxMmW38Jml8DS4LmE7mXJ9MLFwSNJcOu7QQig5RWYniNESih7VTZwHOIcGrIXG7RDeuUIL4DfbmPQOMzCDgyiH0tGwbugUs3pibnvStd3c+qvuyHEho97Wc30vdv7om/GeDn4HKBt9qqT/RdjGhcJRBRxiKwL9vZT4DwKWbyJmlPoyGIcEQybd1bD8fpm7ELado5DPxHo/GG/Qm4lYHrdcN6rm5s2/Te6s+QEbf6Np/xUFTvfJRAZIxSAxgDK7IzMURPEZBqAGZz1wW6Ye1ZD6tcyh4K0M2SO5QMh1wJly+p92jWsXMXAHyZpHo3wrB7kJ5ZKL2DoxKI1FESB3OK5qMgfFTcs7YHEU5Lpq0R16Y1cA8gliLRPD2dr9lphXn/rnLJ9hYf7iUGOrK1dyVJGlb4BZ0jQCuByBqhEDirizP21kiTuUq17tVjwDbvbuReQ7RE734hlbFOq+U3aJvHuMAvRDHr2XOFcqkp/m1TRWIqgYiwJdnWKeXOAfM1smDZ5WNTkws/r4XXtCvHFsE1Tft0d0/v3SPk9KMGHkS8A5KBs1KSN7MpgcianSFwBormL4nw6RCu75wcjC+mMtYPa07EZTP2p4TWsqZsRNpeyXRvzT07jm16/y9nezTj16mMFfppXC3ulEBkzM6QGI5trgQwIaT7Zm50m27kPzcSjmObvwNwSONxQiPUXS4iuhBzpCy8/gEpw5LA578iKIGEHvPGHKXdf9S5GfYydEq5Y8H8s8ayleBNdJyezt9ZR8RyriQaf1zvKTwqIeMqhBKILCYFcQb6sheTRm/bAisI4fs41cMr29knGcJLOwRT8Tcn8FNJozC7nmXdA3n8Q1QtNKIru9P58wOa+5opgfhSFI2BY2cfC9tZJPALuZJ5PBi3R1NBGFQ6STfyc+t5eg8TNA2fD/uOhoAnkoa1X5jsavkogchiUhDHsbPPi/a58v4Ku672tSBLOqo/r4rm7SAcL5jasPmt3mQDuc9765+cFTN3xYbKbtBwCDjE3vLqsSC4N5WxjvDLx3tPMlgqXgCi04WFEuAAIL/4m3+vBCLClkTbcsl8VbB31IO6YQW+0V61KjcxsY5DHXfmd1ahU8pdDuZQP2O4st4QWfTp2Ka3mzBw47g3HxsvTaatd8kaKiUQWUwK4ji26XUvTwq4/VQ3rMDrpspF8zQm1HzsWy9m0I1W5dLMw5jd+wTyr5oS85eSmcL3g/o5pdxtYD4xqD0Ba5KG1R3U3s9OCcSPoQi+X7x42tgpE8asFYPmy3Wj8NWgPk7JvBIsujeGb9ONwoiPi7eM7RTNq0A4N2hOGxWCq/S0FbhPllM0rwbhyyIxkunBrYleEeS3dgQlEBHmJdk6tjkZwDIhOMa5esYK/Na9XMr9mJnFGsIJ9voq2+buDPxdpA4i+kkynf98UB+nP3s+XLo8qH1Vg8TbJdMFMX5HCKAEIsK8JNuBZTmTEpwXgUsQTthaoMdV2TbnM3B00BgElJOGpQe1H7Yr22aZgcA/aQj4ZdKwap+tXiO4U8zO8Y6QFslrqwTlghxlHQRTCSQIS5JtBou52S6x2B7rBB+oTwq+x9wpmY+A8TGB1P+mG9YHBOyrpsJLRQT39DtF8a41Whft2z0x/6RoLbXslUBksCiIEeqnCfjQpFHwlowE+pRLufuY+bBAxhuNXtENa0cB+2GBCDXLIKL7k+n84UHjrO6bcZimaUIPAwjYI2lYzwaNUc9OCUQGi4IYg8tnvtutuEInJ2ngz3YbhcDLw52SOQ+ME4RSY22ynuktBvXxtgcz09Kg9lU7wu162gr8VMopmieAINTitZGGFVvWogQiNLpyjJcundU9vmtNWQTNbyPUllhl27yBgTNEYmhMR3dn8r8K6lPuM49gDb8Oar9RH7gxaViBj6oYsHNfIrBQf6/VQ1snt9tuwaBIXiPZKoHIYDEEhujNrfdiTs8UAh+iU+7PfYtd/m+h1AhvrN6w9fZBJhezOWawHy+Lvun21p8le/JfC5rXatu8UAO+G9SegMGkYYm8X6oLrQQSlHnJdsKN7giPEtyvBm17s6rP/GBCw59DpP2sblh7+PmVbfNPDOzrZ7fl9yI9jaubvIALQRgjEOc13bCmCtgrgcgiSyaOY5ve+4PdRTG9baya5t4cRChO0XwRhJnCMYB/MnDSeMN6x1EFq/vMT2oafgzAEMUFsFg3rJ39/KqnU7l0Ngg7+NnW+D6QwIPiqitIUKYk2zV6bEOQ5tTlkvl1Zrzt1CeRMhhYBIZ3wuyzRDDh/RNvYrdZyPqrAQZXmFPdIfo+wIeK5Lm5bdAFkUHxlUCCMiXZzunLng2Nrm0Mlh/XjcIBI2GUS9k9mMnretjVWBwp3kNE/MFkulDzzXuYBt01s2K+QM8UrpCSsdowJYtGcZxVy3J7JRL8V3HPd3rohjXiHzrHzl0L8Nky4jSGQdfpRr5mA27HNi+EwI14vTxcpn3HZ+S8JPTiqCtIY6PekHeIowBG+KM5cnsdr1dxF9y/YONRaq35MJYPQfvgNpnel7ZMwLFNb4XyLTISU3vSZbAYI4yBovlrr02ojJSY+fRUpvCDWlitavkznMtI90uDK3KzeYgfYWBrGRwAeEg3rMB7R4LEVFeQICxFZFO2sxczGtqX/rbMiNw9R3q61cgW30bKJw23JHtqN9Ju9EHFlnkFeXAhWosSiChjEu2d5TMPRMWVdnxcvU6Gtm3q3UBTjozbnKJkev04oiXrtqTNO3paeq8upoP1TF4an+oeROJkDwvlFM15IME1U3WC1buKbDoDRMoq1yD11r+imd6x1icFwQloI7TjMiCmukkPSlRUdtW942v5+mpjN8LERuMwcEPKsM4aCWfFip0mjK2Mm8eMwCtqQ+T0HFg7eKSFj2vt3LQh8OIQuLVdCIUuVI4cl17kvbOR+lE/saTSGR7ME4q2jj9KzHuTRvsyh+t8zsCSlGH5ngHo2OalAAJv4Q1cGdF1err249xhjEHbPNMFvD8KYT8PEuEV10VR09z7gqwqCBtICSQscxH7DfbPPMpl95th3lxXXHwoyLFo1Z9cqJwBCtfG520UMN/pInHj+Eyvb7f6sm0+wUDdJnK16NWAszaMpTsmTMiviJj+t+CVQJrFdIg41QM8Xb5LVCSiT3PKtnkIM59IRIczILLtdgMYdxHhjqRhee15fD9rS9OnD3Fioa/hOw0u1A1L7qE7AZJQAglAUitNyiXzVGb8SCwH/rluFI4V8wGqT7oYn/LezTCwIwPbErAtNv7zGm1v+scrwbilMk77rehf83LJ/CQzfiOYm++pWYJ4gc2VQAJT1TpD4X3fgNQVrTIrL9vmyQz8rwim6GYxEWw/WyUQP4Zi8L1TNO8A4bigqcjeNBQ0bhA7p5g9HyTWxqeLKjOieEIVJF8lkCAstdhGdKlIFGuSZFEQ5gDPeosxZeU1Eo5cgfTPzJLrWiJJt/LyKZJnK23Fm1DTy7qR36mVOY8UO8w9VRfofeOM/JJW1CNVINy3a7KsDXk9ZwN/6i2PCAzS5oaO8Lni/IxuFKSdICuT3oHijKOItMCNIbzYLvOR4zMFoeYQsnKWKhAvKcc2+wGhpdUte0Ihi8QocVb1ZT+U0OjpEDEu0g3LexkY6sPPzNqqv2ewZ9w4TAJzD4j6167F8p7+7n7ac8GGUKAbj2QQbuPjtzogbC5B/KIQiPhe64gOgQ9CQNxtyiXzC8youYzdL3cCHmTAe3/wnJ+tJwhn6uBRGrAfA/vVP7uEvePSfs/QntFfHfebIIIZXL7r9m5l6GoAx/jlsuX3QVcHiOIGsZcukHLJ/AEzvhAk+Fs2zC/omcJuQj4dYuzYDS7qY14DxkX65MJ1tSirNtJmngON5oi+kKziEfJw+TaQd5Co1VcrRvXRLsFbFRD63A6XtdlB3tLLnhbSBbJqWfbQRILuF02UmW9KZQpCjc5EY4xGe9EnWCPWSCi4jNvHG9ZbPaa8Mz7A7rUMTGuYG8JrYL5aNwrfG8aq4sP1XnQ2vDBSdHVAw/VsApAuELZNvQyUAIwTTpJwgi7QwVwYfxQ6vLFsxnu2Smgvy0qdgTfAuJ6o+nZ8xFW/DcT745tXih+D+L8A2rMBnLe5yjzSQCQn6QLxgpdt824Gwh3ozrijQnzJBKMgbzm0CCMxtC2Xcl9j5m/GMLWmpNTKJ50RCSR7CoN+Epo9xgpo9Fu4/IILelpml4rQObXY0SmZ54JxVYvTaHp4Bv8kZRQCH7gjO8FIBOIl6djmgwAOkp1w3PC8t9YEPA2iF7oYN0f5QmugmD2diG6KGweR5cN8hZ4pXBAZfgDg6ARSzB0EYk8kHfXx9ix0G9YNURUts01OVDlKwZXcAC5sTpEJZNNVxPuZdUrY5Eatn+BZf6J1On25Y1njHxGQEvUdDfYEnJI0LCm9shqtN1KB8NJZ3YNda7wu4L7dwhstJF7+9LBu5CP9eblqmfmBhIbvgvDReNUePhsi/JUJF+k91u/Do8j1jFQgXqpvLM3usFWCFoEwVm7qMUeL+CoyXL1jm957Da9156j+eO/BdM29kNKLmt6aqB5xkQvEC14uzZjFrHnLEzrnwzxHzxSEjg4LS87qYvZIIvouATPCYrTQ7//AfJGeKdzWwhxGDN0UgXjRV5emT9fC7UWOI2/+ORF9WU/nG+ze7h9m2GKwf+d3VSpd/0OEU4N71bf03j8A/BxcLmgJbSeX8UGZ+ATc06UlLhrb82KYPeqyyqyL0zSBeFk4zswMBt35by50268p1bUwiMhJSjLT9K7Wrqud2thE5seJ+Lxa7XSqvwagzQ21bmu4UKJ5qPBcfXJ87jVGGoOmCsRLYtON+1yRQ+5lTqBmYXFlvZGassRbctOST2ihEPJ62vI9lcopmb2CIlkFYC4Rzx3pjJCWEOUTtOkCGc7H2xdAhHPa8QlXK5dGbDnem+7/5oBwILj+PQoBa5OGFbjTetk2B/zaBBHwhMv4fdcY96dbb7vwlTiKoF5OLRNI9WqyeNrY8oQx3qEq3hkRvmfXjRZyW7mHuh5Ha2xzv0r1eDPyHkG//222hH9omvax7km9rwXlefXSnXu0rq5HAWyxVYEf10D3JBL06NhJeaEt2EFjN8uupQLZvMhB29y3AjqIwN7gxXK7qO+gML6iZ6xRsV5qTd/0HYe0xGFgTILrPr62ixekQzxi5eXTxpeHxu7N4L01sA0N9yTThWW+XI0Sg9gIZHO+mKeNXVfaaiprNLXiYipzqNNOmzIEBDiA+wLQ9fxIzZqbkogKEgkDsRRIJJUqUMVACAaUQEKQplw6hwElkM4Za1VpCAaUQEKQplw6hwElkM4Za1VpCAaUQEKQplw6hwElkM4Za1VpCAaUQEKQplw6hwElkM4Za1VpCAaUQEKQplw6hwElkM4Za1VpCAaUQEKQplw6h4H/B4afrpvOHEHOAAAAAElFTkSuQmCC;" vertex="1" parent="V0m3F8l0XvwCJWidBoo5-17">
          <mxGeometry x="56" y="34" width="57" height="57" as="geometry" />
        </mxCell>
        <mxCell id="V0m3F8l0XvwCJWidBoo5-20" value="" style="shape=image;imageAspect=0;aspect=fixed;verticalLabelPosition=bottom;verticalAlign=top;image=data:image/png,iVBORw0KGgoAAAANSUhEUgAAAMgAAADICAYAAACtWK6eAAAAAXNSR0IArs4c6QAAHfNJREFUeF7tXXmcHFW1/k71kITp6gSS6eoEMQhGkq4OIARUCDzBhUVABJEnW+TBExSBB4Ig8HyKG/siiwv6wBAQJQoKKKvCT1lciGzT1YkJwg94yXT1JCSZ6sk2XedRnQyG0NNVt/pWd0337d8v/6TP+c45373fVFfVvecS1EcxoBgYkQFS3CgGFAMjM6AEomaHYqAOA0oganooBpRA1BxQDIRjQF1BwvGmvDqEASWQDhloVWY4BpRAwvGmvDqEASWQDhloVWY4BpRAwvGmvDqEASWQDhloVWY4BpRAwvGmvDqEgVgKhHna2HWlraayRlMrLqYyY4cOGY/YlkkarWLm15nd17u6xrzWPemF12ObrMTEYiOQcn9uL67wh4lwBAP7SqxRQUXHwHww7iWt8odketHS6MK0DrmlAuHF08aWJ4w5h4HPETCjdTSoyBIYuA8J7UZ9Uu/DErBiA9EygThF8wQieOLYIzZsqEQaZ4Bwh+a6N3VnFj7dOFjrEZouEF4xa4KzYc2tRDiy9eWrDCJjgOhKPZ0/PzL8JgE3VSCr7Ny0BPh+ANObVJ8K01oGfqcb1qGtTaGx6E0TyGBf9kOuRm1x2W2M8o7zfkU3rB1Ha9VNEcjKvl126tIqL41WklTeDTJAeENPWxMbRGmJe+QCWb105x6tq+sVAMmWVKiCxoIBBn6VMqyjY5GMQBKRCmTx4mljp0wYczeATwjkpEzblQGmK/XM6Lpxj1Qgjm3+BMAp7Treqi5xBoj5S8lM4fvinq3xiEwgTjF3EIgfbE1ZKmpcGWDGS3DX752asqQU1xw3zys6gdimJ46DRgMJKscmM+DiMn2ydWGTo4YKF4lAynb2FAZ5P69CfQhwGJjPzM+4rva3CVPyfwsFpJykMVAuZaeAsTuA3V1gDwIdFRqcsW5oiPfZ5l2Fv4fGaJJjJAJx7Nx9AB8WpgYCP1XhxFfGZ3qfCuOvfJrDgFPMngiiKwFkwkQk8NeSRuHbYXyb6SNdILx82vhyZYwNYKxwIYRz9bR1jbCfcmgZA46dmwvwnBAJ/FE3rA+H8Guqi3SBDNjmZwi4S7QKDTir27BuEPVT9q1nwLHN3wE4RDQTrqw34n6zLl0gIR/tPqAblnpXIjrDYmLv3Z8wk/h+EMaJesa6PSZl1ExDukDKtrlAdAm7y+7s8ZmF6p4jzjPFJ7cBO/clAt8oVALztXqm8GUhnyYbSxeIU8zaIEoL1NGrG9YuAvbKNIYMrLVz04bAiwVTm68b1jGCPk01lyqQTTsE14pUwKBfpIz8Z0V8lG08GXBs81UA7w6aHQFPJw1rn6D2rbCTKpC1xZnvHSJ3iVAhGl+g9xSuEPJRxrFkIMTN+uu6YQUWVCuKliqQgWUz9qeE9phIIVxxD0hNWfi4iI+yjScDA0XzG0T4ukh2umFJnYMisYPYSk1OCSQI5e1rowTi9yRDXUHad/YHqEwJRAkkwDTpXBMlECWQzp39ASpXAlECCTBNOtdECUQJpHNnf4DKlUCUQAJMk841UQJRAunc2R+gciWQUSIQXrnLts6aDbsFGNOONKm4tHrCdt0vEi3YIJMAJZCYC6RcMr/AjNMBqMWPfjOfsY7BC6BpN6TS+Z/7mQf5XgkkxgJxSmYvGLkgA6ls3s4AMy5JZaxvNMqLEkhMBVIumfcy4/BGB7iT/V3g38Yb1p8a4UAJJIYCcYrZj4OorQ5taWSSNuC7aBDY0zAsJyyGEkgcBdKXPRsaXRt2UJXfvxhwWZvdSDcZJZA4CqRozgPhBDXRG2eACF9Mpq0fhkVSAomjQGzzVgAnhR1U5fcvBohwWjJt3RyWEyWQGApk06PdH4QdVOW3uUDcPZPphQvCcqIEEkuBzJjFrD0TdlCV30YGiHBvMm0d0QgfSiAxFIiX0oBtXk/AmY0Mbqf7stuVSU1+weuIGfqjBBJTgXhplW3zBgbOCD26Hewoqy+AEkiMBeKl5hRzc0B8nlpqEkDtw0tNXL5YVtMMJZCYC2Q4PbVYsf5AqcWKAf6AbDJRXU2Cc6Us/f5AqrY/9RlSbX86W0PqJ5bfXxDV9qejFaIEogTS0QLwK14JRAnEb4509PdKIEogHS0Av+KVQJRA/OZIR3+vBKIE0tEC8CteCUQJxG+OdPT3SiBKIB0tAL/ilUCUQPzmSEd/rwSiBNLRAvArXglECcRvjnT090ogSiAdLQC/4pVAlED85khHf68EogTS0QLwK14JRAnEb4509PdKIEogHS0Av+KVQJRA/OZIR3+vBKIE0tEC8CteCUQJxG+OdPT3SiAxF4htm/o44GgN2B3gXdtqtjK9DuYFIOT1TOGRONamBBJjgawuztxH09ybO+GUKSLcl0xbn4ybSJRAYioQp2QeD8btcZswkebjXUnS1sxIYwiCK4HEUCCrVuUmdq3nF5mxneB4jnrzRs/zkE2AEkgMBeKUcseB+Q7Zgz1K8F7UDSs291qDxeyRLtHdAtw9pxvW7gL2TTcd9Z0VnT7zUmj4atOZi0nA5JjERNrmxTfikM7K4sz3dpG7JGguzPhhKmN9Mah9K+xGv0Ds7GMA7d8K8uIQU1Zndlm1iJw4TKQdnkz33i8rdhQ4o18g6goSmyuIN0G9e8LEOl7uO1kZd+gZK/ZnS45+gah7kNjcgwyLYs3K6TsOrU88QMD0mkJhvkDPFK7wFVEMDEa9QNRTrPCn0kY5/7hv12Q5MXQJmGcBNIuBZeS96GTtPn1y/s4oY8vEHvUC8chQ70FkTgmFtTkDbSEQryD1Jl1N7CgYaBuBeOSotVhRTJHOxmwrgXT2UKrqo2BACSQKVhVm2zCgBNI2Q6kKiYIBJZAoWFWYbcOAEkjbDKUqJAoGlECiYFVhtg0DSiBtM5SqkCgYUAKJglWF2TYMKIG0zVCqQqJgQAkkClYVZtswoATSNkMZvJByf24vb6MViA4A4wMAP8RE96QMa35wlI2WTil3LZi9DWvv91b7AHQnD7l3p7Yr/FEUK472SiBxHBXJOfEb799mzfp1BzDRAQwcAKBmNxQGjhERiWObdwH4TM10mV4G+B50aQ/pk3ofllxS0+CUQJpGdfMDrezbZaeE5p5M4JMBTPHLgIC1XQmaNXZS3vKzFexg8jyI5rrrKreN336h/25Dv+BN/F4JpIlkNyvUuuU5c8MQnwINJ4OxjVDcAP22vK0FCc2dH6LV0usEmluhym3j0wv/IZRXi4yVQFpEfBRhnWJuN9ZwmsZ8MgNjw8fgx4kSV2/ZUKFcyk4B6FRmfCM8NgDmNaTR3CHmayYYhcUNYUXsrAQSMcHNgh8oml8gwrcBTJIWk/AoEV4lF7ZL9B4C/1uIq0a9dIoAX6obhe9Jy1kykBKIZEKbDTe4fNft3aEN3wHRnGbHlhePHmbCZal0/jF5mHKQlEDk8NgSlAHb/AyhetXYuSUJyA5KuCrZY11ABFc2dFg8JZCwzLXYb8DOfZvAF7c4DenhmfGbNYQTDMNypIOHAFQCCUFaq13Kdu4mBp/e6jyii0+PcGXd8akpS0rRxQiGrAQSjKdYWL322vZbbzt2wq0A/3ssEoowCQKepC4c1z3RejXCML7QSiC+FMXDoFyavh27iXkgfCQeGTUli2e7qHLsuPSiRU2JViNIWwnEe4FFcD/35glMs4Dqv4Y/DKwm4GkQvdDFuHmckQ/cvbzh4JsAnOLMDKjyMECxazMqq8Y6OA/phnVwE+LUDNE2AhFc+hCabw04q9uwbggNEMLRKZrngXBlCNcRXPjxKDviE+E1ZrxbWr5MB+uZ/EPS8ASA2kIgA7Z5PQFnCtTdmGmXtps+sfeFxkCCezu2ycGt61ouBvO39ExhXvURMfNNIEpLwgYYLwLaeXqm92GnlD0bTFcD0BrFb+VJWqNeIOXSjFnM2jONDoKYPz2sG/mDxHzCW5dt8ykG9g6NwFhBxNcmjYL3zuStj/eSsVLZ8HUC/Wdo7KojvczMt6Uy1tuWoDBDW9Ofu8xl/koj+C5rs8dnep9qBCOsbxsIJPd5Zr45LAGh/Zp4FRkoZm8ionCPdRl3cEL7TqqntzBSrQPLZuyvJehMBh0lwgcBf3aBn+mJ9XNp0pLVI/mueSO7Q2U9LgXRsSL4VVvGikHCDq16LzLqBdLQ5BEerc0cmOd4P1UagQjqu9o2T9KAW4PaD08saDhLT1uBz28c6MvO1IhmM2g2wNMZ6CGqru3qJqCfGctB3E+M+ZVE1x/G97y4UCSnQdvc1wX+JOKDFh+0M+oFUi6Z9zDjU0KkyzBmnKdnLO83dlM+ovchzLhky588TUnUJ4hoHa14KLJ5CaNeIPKf8ASbRs0+G1B0YrWLQAj4RNKwHgg2KvKt2kAgMw4EaU19BEjAS4NU2T2dXjQgf0jeiTiwbFqaEmNskVjtIhC4fI4+uXCdSO0ybUe9QDwyRE5WlUGexnxUd6ZwjwysIBirbXNfTfC3OwNnpgzrxiD4zbRxbNM7slpkl+MDumF9opk5ttVPrOFiHNv01uzIezk10ogQHtXT1sebOWBOKXsNmM4Risl8oJ4pPCLk0wTjAdv8BwHvEwnlAvuNN6wnRHxk2bbFFeQtkRTNK0E4TxY5NXAu1Q3rogjx3wFd3V9e4T8AyIjE1RLa1O5Jva+J+AzbVp9mJRLvYapsq7m0bYUxkZhXuhqtBPNKcnllasrCx0NhF7NPEtE+gr7zdcM6RtBHinlbCcRjZGVx5nvHoLJrBbSbDIZIo1U8VHkWGMo3e/l19SUotLlg5ARr6dcNS+gNefWMR3IPB+HwIPGY8U8A81zGAxMmW38Jml8DS4LmE7mXJ9MLFwSNJcOu7QQig5RWYniNESih7VTZwHOIcGrIXG7RDeuUIL4DfbmPQOMzCDgyiH0tGwbugUs3pibnvStd3c+qvuyHEho97Wc30vdv7om/GeDn4HKBt9qqT/RdjGhcJRBRxiKwL9vZT4DwKWbyJmlPoyGIcEQybd1bD8fpm7ELado5DPxHo/GG/Qm4lYHrdcN6rm5s2/Te6s+QEbf6Np/xUFTvfJRAZIxSAxgDK7IzMURPEZBqAGZz1wW6Ye1ZD6tcyh4K0M2SO5QMh1wJly+p92jWsXMXAHyZpHo3wrB7kJ5ZKL2DoxKI1FESB3OK5qMgfFTcs7YHEU5Lpq0R16Y1cA8gliLRPD2dr9lphXn/rnLJ9hYf7iUGOrK1dyVJGlb4BZ0jQCuByBqhEDirizP21kiTuUq17tVjwDbvbuReQ7RE734hlbFOq+U3aJvHuMAvRDHr2XOFcqkp/m1TRWIqgYiwJdnWKeXOAfM1smDZ5WNTkws/r4XXtCvHFsE1Tft0d0/v3SPk9KMGHkS8A5KBs1KSN7MpgcianSFwBormL4nw6RCu75wcjC+mMtYPa07EZTP2p4TWsqZsRNpeyXRvzT07jm16/y9nezTj16mMFfppXC3ulEBkzM6QGI5trgQwIaT7Zm50m27kPzcSjmObvwNwSONxQiPUXS4iuhBzpCy8/gEpw5LA578iKIGEHvPGHKXdf9S5GfYydEq5Y8H8s8ayleBNdJyezt9ZR8RyriQaf1zvKTwqIeMqhBKILCYFcQb6sheTRm/bAisI4fs41cMr29knGcJLOwRT8Tcn8FNJozC7nmXdA3n8Q1QtNKIru9P58wOa+5opgfhSFI2BY2cfC9tZJPALuZJ5PBi3R1NBGFQ6STfyc+t5eg8TNA2fD/uOhoAnkoa1X5jsavkogchiUhDHsbPPi/a58v4Ku672tSBLOqo/r4rm7SAcL5jasPmt3mQDuc9765+cFTN3xYbKbtBwCDjE3vLqsSC4N5WxjvDLx3tPMlgqXgCi04WFEuAAIL/4m3+vBCLClkTbcsl8VbB31IO6YQW+0V61KjcxsY5DHXfmd1ahU8pdDuZQP2O4st4QWfTp2Ka3mzBw47g3HxsvTaatd8kaKiUQWUwK4ji26XUvTwq4/VQ3rMDrpspF8zQm1HzsWy9m0I1W5dLMw5jd+wTyr5oS85eSmcL3g/o5pdxtYD4xqD0Ba5KG1R3U3s9OCcSPoQi+X7x42tgpE8asFYPmy3Wj8NWgPk7JvBIsujeGb9ONwoiPi7eM7RTNq0A4N2hOGxWCq/S0FbhPllM0rwbhyyIxkunBrYleEeS3dgQlEBHmJdk6tjkZwDIhOMa5esYK/Na9XMr9mJnFGsIJ9voq2+buDPxdpA4i+kkynf98UB+nP3s+XLo8qH1Vg8TbJdMFMX5HCKAEIsK8JNuBZTmTEpwXgUsQTthaoMdV2TbnM3B00BgElJOGpQe1H7Yr22aZgcA/aQj4ZdKwap+tXiO4U8zO8Y6QFslrqwTlghxlHQRTCSQIS5JtBou52S6x2B7rBB+oTwq+x9wpmY+A8TGB1P+mG9YHBOyrpsJLRQT39DtF8a41Whft2z0x/6RoLbXslUBksCiIEeqnCfjQpFHwlowE+pRLufuY+bBAxhuNXtENa0cB+2GBCDXLIKL7k+n84UHjrO6bcZimaUIPAwjYI2lYzwaNUc9OCUQGi4IYg8tnvtutuEInJ2ngz3YbhcDLw52SOQ+ME4RSY22ynuktBvXxtgcz09Kg9lU7wu162gr8VMopmieAINTitZGGFVvWogQiNLpyjJcundU9vmtNWQTNbyPUllhl27yBgTNEYmhMR3dn8r8K6lPuM49gDb8Oar9RH7gxaViBj6oYsHNfIrBQf6/VQ1snt9tuwaBIXiPZKoHIYDEEhujNrfdiTs8UAh+iU+7PfYtd/m+h1AhvrN6w9fZBJhezOWawHy+Lvun21p8le/JfC5rXatu8UAO+G9SegMGkYYm8X6oLrQQSlHnJdsKN7giPEtyvBm17s6rP/GBCw59DpP2sblh7+PmVbfNPDOzrZ7fl9yI9jaubvIALQRgjEOc13bCmCtgrgcgiSyaOY5ve+4PdRTG9baya5t4cRChO0XwRhJnCMYB/MnDSeMN6x1EFq/vMT2oafgzAEMUFsFg3rJ39/KqnU7l0Ngg7+NnW+D6QwIPiqitIUKYk2zV6bEOQ5tTlkvl1Zrzt1CeRMhhYBIZ3wuyzRDDh/RNvYrdZyPqrAQZXmFPdIfo+wIeK5Lm5bdAFkUHxlUCCMiXZzunLng2Nrm0Mlh/XjcIBI2GUS9k9mMnretjVWBwp3kNE/MFkulDzzXuYBt01s2K+QM8UrpCSsdowJYtGcZxVy3J7JRL8V3HPd3rohjXiHzrHzl0L8Nky4jSGQdfpRr5mA27HNi+EwI14vTxcpn3HZ+S8JPTiqCtIY6PekHeIowBG+KM5cnsdr1dxF9y/YONRaq35MJYPQfvgNpnel7ZMwLFNb4XyLTISU3vSZbAYI4yBovlrr02ojJSY+fRUpvCDWlitavkznMtI90uDK3KzeYgfYWBrGRwAeEg3rMB7R4LEVFeQICxFZFO2sxczGtqX/rbMiNw9R3q61cgW30bKJw23JHtqN9Ju9EHFlnkFeXAhWosSiChjEu2d5TMPRMWVdnxcvU6Gtm3q3UBTjozbnKJkev04oiXrtqTNO3paeq8upoP1TF4an+oeROJkDwvlFM15IME1U3WC1buKbDoDRMoq1yD11r+imd6x1icFwQloI7TjMiCmukkPSlRUdtW942v5+mpjN8LERuMwcEPKsM4aCWfFip0mjK2Mm8eMwCtqQ+T0HFg7eKSFj2vt3LQh8OIQuLVdCIUuVI4cl17kvbOR+lE/saTSGR7ME4q2jj9KzHuTRvsyh+t8zsCSlGH5ngHo2OalAAJv4Q1cGdF1err249xhjEHbPNMFvD8KYT8PEuEV10VR09z7gqwqCBtICSQscxH7DfbPPMpl95th3lxXXHwoyLFo1Z9cqJwBCtfG520UMN/pInHj+Eyvb7f6sm0+wUDdJnK16NWAszaMpTsmTMiviJj+t+CVQJrFdIg41QM8Xb5LVCSiT3PKtnkIM59IRIczILLtdgMYdxHhjqRhee15fD9rS9OnD3Fioa/hOw0u1A1L7qE7AZJQAglAUitNyiXzVGb8SCwH/rluFI4V8wGqT7oYn/LezTCwIwPbErAtNv7zGm1v+scrwbilMk77rehf83LJ/CQzfiOYm++pWYJ4gc2VQAJT1TpD4X3fgNQVrTIrL9vmyQz8rwim6GYxEWw/WyUQP4Zi8L1TNO8A4bigqcjeNBQ0bhA7p5g9HyTWxqeLKjOieEIVJF8lkCAstdhGdKlIFGuSZFEQ5gDPeosxZeU1Eo5cgfTPzJLrWiJJt/LyKZJnK23Fm1DTy7qR36mVOY8UO8w9VRfofeOM/JJW1CNVINy3a7KsDXk9ZwN/6i2PCAzS5oaO8Lni/IxuFKSdICuT3oHijKOItMCNIbzYLvOR4zMFoeYQsnKWKhAvKcc2+wGhpdUte0Ihi8QocVb1ZT+U0OjpEDEu0g3LexkY6sPPzNqqv2ewZ9w4TAJzD4j6167F8p7+7n7ac8GGUKAbj2QQbuPjtzogbC5B/KIQiPhe64gOgQ9CQNxtyiXzC8youYzdL3cCHmTAe3/wnJ+tJwhn6uBRGrAfA/vVP7uEvePSfs/QntFfHfebIIIZXL7r9m5l6GoAx/jlsuX3QVcHiOIGsZcukHLJ/AEzvhAk+Fs2zC/omcJuQj4dYuzYDS7qY14DxkX65MJ1tSirNtJmngON5oi+kKziEfJw+TaQd5Co1VcrRvXRLsFbFRD63A6XtdlB3tLLnhbSBbJqWfbQRILuF02UmW9KZQpCjc5EY4xGe9EnWCPWSCi4jNvHG9ZbPaa8Mz7A7rUMTGuYG8JrYL5aNwrfG8aq4sP1XnQ2vDBSdHVAw/VsApAuELZNvQyUAIwTTpJwgi7QwVwYfxQ6vLFsxnu2Smgvy0qdgTfAuJ6o+nZ8xFW/DcT745tXih+D+L8A2rMBnLe5yjzSQCQn6QLxgpdt824Gwh3ozrijQnzJBKMgbzm0CCMxtC2Xcl9j5m/GMLWmpNTKJ50RCSR7CoN+Epo9xgpo9Fu4/IILelpml4rQObXY0SmZ54JxVYvTaHp4Bv8kZRQCH7gjO8FIBOIl6djmgwAOkp1w3PC8t9YEPA2iF7oYN0f5QmugmD2diG6KGweR5cN8hZ4pXBAZfgDg6ARSzB0EYk8kHfXx9ix0G9YNURUts01OVDlKwZXcAC5sTpEJZNNVxPuZdUrY5Eatn+BZf6J1On25Y1njHxGQEvUdDfYEnJI0LCm9shqtN1KB8NJZ3YNda7wu4L7dwhstJF7+9LBu5CP9eblqmfmBhIbvgvDReNUePhsi/JUJF+k91u/Do8j1jFQgXqpvLM3usFWCFoEwVm7qMUeL+CoyXL1jm957Da9156j+eO/BdM29kNKLmt6aqB5xkQvEC14uzZjFrHnLEzrnwzxHzxSEjg4LS87qYvZIIvouATPCYrTQ7//AfJGeKdzWwhxGDN0UgXjRV5emT9fC7UWOI2/+ORF9WU/nG+ze7h9m2GKwf+d3VSpd/0OEU4N71bf03j8A/BxcLmgJbSeX8UGZ+ATc06UlLhrb82KYPeqyyqyL0zSBeFk4zswMBt35by50268p1bUwiMhJSjLT9K7Wrqud2thE5seJ+Lxa7XSqvwagzQ21bmu4UKJ5qPBcfXJ87jVGGoOmCsRLYtON+1yRQ+5lTqBmYXFlvZGassRbctOST2ihEPJ62vI9lcopmb2CIlkFYC4Rzx3pjJCWEOUTtOkCGc7H2xdAhHPa8QlXK5dGbDnem+7/5oBwILj+PQoBa5OGFbjTetk2B/zaBBHwhMv4fdcY96dbb7vwlTiKoF5OLRNI9WqyeNrY8oQx3qEq3hkRvmfXjRZyW7mHuh5Ha2xzv0r1eDPyHkG//222hH9omvax7km9rwXlefXSnXu0rq5HAWyxVYEf10D3JBL06NhJeaEt2EFjN8uupQLZvMhB29y3AjqIwN7gxXK7qO+gML6iZ6xRsV5qTd/0HYe0xGFgTILrPr62ixekQzxi5eXTxpeHxu7N4L01sA0N9yTThWW+XI0Sg9gIZHO+mKeNXVfaaiprNLXiYipzqNNOmzIEBDiA+wLQ9fxIzZqbkogKEgkDsRRIJJUqUMVACAaUQEKQplw6hwElkM4Za1VpCAaUQEKQplw6hwElkM4Za1VpCAaUQEKQplw6hwElkM4Za1VpCAaUQEKQplw6hwElkM4Za1VpCAaUQEKQplw6hwElkM4Za1VpCAaUQEKQplw6h4H/B4afrpvOHEHOAAAAAElFTkSuQmCC;" vertex="1" parent="V0m3F8l0XvwCJWidBoo5-17">
          <mxGeometry x="7" y="89" width="57" height="57" as="geometry" />
        </mxCell>
        <mxCell id="V0m3F8l0XvwCJWidBoo5-21" value="" style="shape=image;imageAspect=0;aspect=fixed;verticalLabelPosition=bottom;verticalAlign=top;image=data:image/png,iVBORw0KGgoAAAANSUhEUgAAAMgAAADICAYAAACtWK6eAAAAAXNSR0IArs4c6QAAHfNJREFUeF7tXXmcHFW1/k71kITp6gSS6eoEMQhGkq4OIARUCDzBhUVABJEnW+TBExSBB4Ig8HyKG/siiwv6wBAQJQoKKKvCT1lciGzT1YkJwg94yXT1JCSZ6sk2XedRnQyG0NNVt/pWd0337d8v/6TP+c45373fVFfVvecS1EcxoBgYkQFS3CgGFAMjM6AEomaHYqAOA0oganooBpRA1BxQDIRjQF1BwvGmvDqEASWQDhloVWY4BpRAwvGmvDqEASWQDhloVWY4BpRAwvGmvDqEASWQDhloVWY4BpRAwvGmvDqEgVgKhHna2HWlraayRlMrLqYyY4cOGY/YlkkarWLm15nd17u6xrzWPemF12ObrMTEYiOQcn9uL67wh4lwBAP7SqxRQUXHwHww7iWt8odketHS6MK0DrmlAuHF08aWJ4w5h4HPETCjdTSoyBIYuA8J7UZ9Uu/DErBiA9EygThF8wQieOLYIzZsqEQaZ4Bwh+a6N3VnFj7dOFjrEZouEF4xa4KzYc2tRDiy9eWrDCJjgOhKPZ0/PzL8JgE3VSCr7Ny0BPh+ANObVJ8K01oGfqcb1qGtTaGx6E0TyGBf9kOuRm1x2W2M8o7zfkU3rB1Ha9VNEcjKvl126tIqL41WklTeDTJAeENPWxMbRGmJe+QCWb105x6tq+sVAMmWVKiCxoIBBn6VMqyjY5GMQBKRCmTx4mljp0wYczeATwjkpEzblQGmK/XM6Lpxj1Qgjm3+BMAp7Treqi5xBoj5S8lM4fvinq3xiEwgTjF3EIgfbE1ZKmpcGWDGS3DX752asqQU1xw3zys6gdimJ46DRgMJKscmM+DiMn2ydWGTo4YKF4lAynb2FAZ5P69CfQhwGJjPzM+4rva3CVPyfwsFpJykMVAuZaeAsTuA3V1gDwIdFRqcsW5oiPfZ5l2Fv4fGaJJjJAJx7Nx9AB8WpgYCP1XhxFfGZ3qfCuOvfJrDgFPMngiiKwFkwkQk8NeSRuHbYXyb6SNdILx82vhyZYwNYKxwIYRz9bR1jbCfcmgZA46dmwvwnBAJ/FE3rA+H8Guqi3SBDNjmZwi4S7QKDTir27BuEPVT9q1nwLHN3wE4RDQTrqw34n6zLl0gIR/tPqAblnpXIjrDYmLv3Z8wk/h+EMaJesa6PSZl1ExDukDKtrlAdAm7y+7s8ZmF6p4jzjPFJ7cBO/clAt8oVALztXqm8GUhnyYbSxeIU8zaIEoL1NGrG9YuAvbKNIYMrLVz04bAiwVTm68b1jGCPk01lyqQTTsE14pUwKBfpIz8Z0V8lG08GXBs81UA7w6aHQFPJw1rn6D2rbCTKpC1xZnvHSJ3iVAhGl+g9xSuEPJRxrFkIMTN+uu6YQUWVCuKliqQgWUz9qeE9phIIVxxD0hNWfi4iI+yjScDA0XzG0T4ukh2umFJnYMisYPYSk1OCSQI5e1rowTi9yRDXUHad/YHqEwJRAkkwDTpXBMlECWQzp39ASpXAlECCTBNOtdECUQJpHNnf4DKlUCUQAJMk841UQJRAunc2R+gciWQUSIQXrnLts6aDbsFGNOONKm4tHrCdt0vEi3YIJMAJZCYC6RcMr/AjNMBqMWPfjOfsY7BC6BpN6TS+Z/7mQf5XgkkxgJxSmYvGLkgA6ls3s4AMy5JZaxvNMqLEkhMBVIumfcy4/BGB7iT/V3g38Yb1p8a4UAJJIYCcYrZj4OorQ5taWSSNuC7aBDY0zAsJyyGEkgcBdKXPRsaXRt2UJXfvxhwWZvdSDcZJZA4CqRozgPhBDXRG2eACF9Mpq0fhkVSAomjQGzzVgAnhR1U5fcvBohwWjJt3RyWEyWQGApk06PdH4QdVOW3uUDcPZPphQvCcqIEEkuBzJjFrD0TdlCV30YGiHBvMm0d0QgfSiAxFIiX0oBtXk/AmY0Mbqf7stuVSU1+weuIGfqjBBJTgXhplW3zBgbOCD26Hewoqy+AEkiMBeKl5hRzc0B8nlpqEkDtw0tNXL5YVtMMJZCYC2Q4PbVYsf5AqcWKAf6AbDJRXU2Cc6Us/f5AqrY/9RlSbX86W0PqJ5bfXxDV9qejFaIEogTS0QLwK14JRAnEb4509PdKIEogHS0Av+KVQJRA/OZIR3+vBKIE0tEC8CteCUQJxG+OdPT3SiBKIB0tAL/ilUCUQPzmSEd/rwSiBNLRAvArXglECcRvjnT090ogSiAdLQC/4pVAlED85khHf68EogTS0QLwK14JRAnEb4509PdKIEogHS0Av+KVQJRA/OZIR3+vBKIE0tEC8CteCUQJxG+OdPT3SiAxF4htm/o44GgN2B3gXdtqtjK9DuYFIOT1TOGRONamBBJjgawuztxH09ybO+GUKSLcl0xbn4ybSJRAYioQp2QeD8btcZswkebjXUnS1sxIYwiCK4HEUCCrVuUmdq3nF5mxneB4jnrzRs/zkE2AEkgMBeKUcseB+Q7Zgz1K8F7UDSs291qDxeyRLtHdAtw9pxvW7gL2TTcd9Z0VnT7zUmj4atOZi0nA5JjERNrmxTfikM7K4sz3dpG7JGguzPhhKmN9Mah9K+xGv0Ds7GMA7d8K8uIQU1Zndlm1iJw4TKQdnkz33i8rdhQ4o18g6goSmyuIN0G9e8LEOl7uO1kZd+gZK/ZnS45+gah7kNjcgwyLYs3K6TsOrU88QMD0mkJhvkDPFK7wFVEMDEa9QNRTrPCn0kY5/7hv12Q5MXQJmGcBNIuBZeS96GTtPn1y/s4oY8vEHvUC8chQ70FkTgmFtTkDbSEQryD1Jl1N7CgYaBuBeOSotVhRTJHOxmwrgXT2UKrqo2BACSQKVhVm2zCgBNI2Q6kKiYIBJZAoWFWYbcOAEkjbDKUqJAoGlECiYFVhtg0DSiBtM5SqkCgYUAKJglWF2TYMKIG0zVCqQqJgQAkkClYVZtswoATSNkMZvJByf24vb6MViA4A4wMAP8RE96QMa35wlI2WTil3LZi9DWvv91b7AHQnD7l3p7Yr/FEUK472SiBxHBXJOfEb799mzfp1BzDRAQwcAKBmNxQGjhERiWObdwH4TM10mV4G+B50aQ/pk3ofllxS0+CUQJpGdfMDrezbZaeE5p5M4JMBTPHLgIC1XQmaNXZS3vKzFexg8jyI5rrrKreN336h/25Dv+BN/F4JpIlkNyvUuuU5c8MQnwINJ4OxjVDcAP22vK0FCc2dH6LV0usEmluhym3j0wv/IZRXi4yVQFpEfBRhnWJuN9ZwmsZ8MgNjw8fgx4kSV2/ZUKFcyk4B6FRmfCM8NgDmNaTR3CHmayYYhcUNYUXsrAQSMcHNgh8oml8gwrcBTJIWk/AoEV4lF7ZL9B4C/1uIq0a9dIoAX6obhe9Jy1kykBKIZEKbDTe4fNft3aEN3wHRnGbHlhePHmbCZal0/jF5mHKQlEDk8NgSlAHb/AyhetXYuSUJyA5KuCrZY11ABFc2dFg8JZCwzLXYb8DOfZvAF7c4DenhmfGbNYQTDMNypIOHAFQCCUFaq13Kdu4mBp/e6jyii0+PcGXd8akpS0rRxQiGrAQSjKdYWL322vZbbzt2wq0A/3ssEoowCQKepC4c1z3RejXCML7QSiC+FMXDoFyavh27iXkgfCQeGTUli2e7qHLsuPSiRU2JViNIWwnEe4FFcD/35glMs4Dqv4Y/DKwm4GkQvdDFuHmckQ/cvbzh4JsAnOLMDKjyMECxazMqq8Y6OA/phnVwE+LUDNE2AhFc+hCabw04q9uwbggNEMLRKZrngXBlCNcRXPjxKDviE+E1ZrxbWr5MB+uZ/EPS8ASA2kIgA7Z5PQFnCtTdmGmXtps+sfeFxkCCezu2ycGt61ouBvO39ExhXvURMfNNIEpLwgYYLwLaeXqm92GnlD0bTFcD0BrFb+VJWqNeIOXSjFnM2jONDoKYPz2sG/mDxHzCW5dt8ykG9g6NwFhBxNcmjYL3zuStj/eSsVLZ8HUC/Wdo7KojvczMt6Uy1tuWoDBDW9Ofu8xl/koj+C5rs8dnep9qBCOsbxsIJPd5Zr45LAGh/Zp4FRkoZm8ionCPdRl3cEL7TqqntzBSrQPLZuyvJehMBh0lwgcBf3aBn+mJ9XNp0pLVI/mueSO7Q2U9LgXRsSL4VVvGikHCDq16LzLqBdLQ5BEerc0cmOd4P1UagQjqu9o2T9KAW4PaD08saDhLT1uBz28c6MvO1IhmM2g2wNMZ6CGqru3qJqCfGctB3E+M+ZVE1x/G97y4UCSnQdvc1wX+JOKDFh+0M+oFUi6Z9zDjU0KkyzBmnKdnLO83dlM+ovchzLhky588TUnUJ4hoHa14KLJ5CaNeIPKf8ASbRs0+G1B0YrWLQAj4RNKwHgg2KvKt2kAgMw4EaU19BEjAS4NU2T2dXjQgf0jeiTiwbFqaEmNskVjtIhC4fI4+uXCdSO0ybUe9QDwyRE5WlUGexnxUd6ZwjwysIBirbXNfTfC3OwNnpgzrxiD4zbRxbNM7slpkl+MDumF9opk5ttVPrOFiHNv01uzIezk10ogQHtXT1sebOWBOKXsNmM4Risl8oJ4pPCLk0wTjAdv8BwHvEwnlAvuNN6wnRHxk2bbFFeQtkRTNK0E4TxY5NXAu1Q3rogjx3wFd3V9e4T8AyIjE1RLa1O5Jva+J+AzbVp9mJRLvYapsq7m0bYUxkZhXuhqtBPNKcnllasrCx0NhF7NPEtE+gr7zdcM6RtBHinlbCcRjZGVx5nvHoLJrBbSbDIZIo1U8VHkWGMo3e/l19SUotLlg5ARr6dcNS+gNefWMR3IPB+HwIPGY8U8A81zGAxMmW38Jml8DS4LmE7mXJ9MLFwSNJcOu7QQig5RWYniNESih7VTZwHOIcGrIXG7RDeuUIL4DfbmPQOMzCDgyiH0tGwbugUs3pibnvStd3c+qvuyHEho97Wc30vdv7om/GeDn4HKBt9qqT/RdjGhcJRBRxiKwL9vZT4DwKWbyJmlPoyGIcEQybd1bD8fpm7ELado5DPxHo/GG/Qm4lYHrdcN6rm5s2/Te6s+QEbf6Np/xUFTvfJRAZIxSAxgDK7IzMURPEZBqAGZz1wW6Ye1ZD6tcyh4K0M2SO5QMh1wJly+p92jWsXMXAHyZpHo3wrB7kJ5ZKL2DoxKI1FESB3OK5qMgfFTcs7YHEU5Lpq0R16Y1cA8gliLRPD2dr9lphXn/rnLJ9hYf7iUGOrK1dyVJGlb4BZ0jQCuByBqhEDirizP21kiTuUq17tVjwDbvbuReQ7RE734hlbFOq+U3aJvHuMAvRDHr2XOFcqkp/m1TRWIqgYiwJdnWKeXOAfM1smDZ5WNTkws/r4XXtCvHFsE1Tft0d0/v3SPk9KMGHkS8A5KBs1KSN7MpgcianSFwBormL4nw6RCu75wcjC+mMtYPa07EZTP2p4TWsqZsRNpeyXRvzT07jm16/y9nezTj16mMFfppXC3ulEBkzM6QGI5trgQwIaT7Zm50m27kPzcSjmObvwNwSONxQiPUXS4iuhBzpCy8/gEpw5LA578iKIGEHvPGHKXdf9S5GfYydEq5Y8H8s8ayleBNdJyezt9ZR8RyriQaf1zvKTwqIeMqhBKILCYFcQb6sheTRm/bAisI4fs41cMr29knGcJLOwRT8Tcn8FNJozC7nmXdA3n8Q1QtNKIru9P58wOa+5opgfhSFI2BY2cfC9tZJPALuZJ5PBi3R1NBGFQ6STfyc+t5eg8TNA2fD/uOhoAnkoa1X5jsavkogchiUhDHsbPPi/a58v4Ku672tSBLOqo/r4rm7SAcL5jasPmt3mQDuc9765+cFTN3xYbKbtBwCDjE3vLqsSC4N5WxjvDLx3tPMlgqXgCi04WFEuAAIL/4m3+vBCLClkTbcsl8VbB31IO6YQW+0V61KjcxsY5DHXfmd1ahU8pdDuZQP2O4st4QWfTp2Ka3mzBw47g3HxsvTaatd8kaKiUQWUwK4ji26XUvTwq4/VQ3rMDrpspF8zQm1HzsWy9m0I1W5dLMw5jd+wTyr5oS85eSmcL3g/o5pdxtYD4xqD0Ba5KG1R3U3s9OCcSPoQi+X7x42tgpE8asFYPmy3Wj8NWgPk7JvBIsujeGb9ONwoiPi7eM7RTNq0A4N2hOGxWCq/S0FbhPllM0rwbhyyIxkunBrYleEeS3dgQlEBHmJdk6tjkZwDIhOMa5esYK/Na9XMr9mJnFGsIJ9voq2+buDPxdpA4i+kkynf98UB+nP3s+XLo8qH1Vg8TbJdMFMX5HCKAEIsK8JNuBZTmTEpwXgUsQTthaoMdV2TbnM3B00BgElJOGpQe1H7Yr22aZgcA/aQj4ZdKwap+tXiO4U8zO8Y6QFslrqwTlghxlHQRTCSQIS5JtBou52S6x2B7rBB+oTwq+x9wpmY+A8TGB1P+mG9YHBOyrpsJLRQT39DtF8a41Whft2z0x/6RoLbXslUBksCiIEeqnCfjQpFHwlowE+pRLufuY+bBAxhuNXtENa0cB+2GBCDXLIKL7k+n84UHjrO6bcZimaUIPAwjYI2lYzwaNUc9OCUQGi4IYg8tnvtutuEInJ2ngz3YbhcDLw52SOQ+ME4RSY22ynuktBvXxtgcz09Kg9lU7wu162gr8VMopmieAINTitZGGFVvWogQiNLpyjJcundU9vmtNWQTNbyPUllhl27yBgTNEYmhMR3dn8r8K6lPuM49gDb8Oar9RH7gxaViBj6oYsHNfIrBQf6/VQ1snt9tuwaBIXiPZKoHIYDEEhujNrfdiTs8UAh+iU+7PfYtd/m+h1AhvrN6w9fZBJhezOWawHy+Lvun21p8le/JfC5rXatu8UAO+G9SegMGkYYm8X6oLrQQSlHnJdsKN7giPEtyvBm17s6rP/GBCw59DpP2sblh7+PmVbfNPDOzrZ7fl9yI9jaubvIALQRgjEOc13bCmCtgrgcgiSyaOY5ve+4PdRTG9baya5t4cRChO0XwRhJnCMYB/MnDSeMN6x1EFq/vMT2oafgzAEMUFsFg3rJ39/KqnU7l0Ngg7+NnW+D6QwIPiqitIUKYk2zV6bEOQ5tTlkvl1Zrzt1CeRMhhYBIZ3wuyzRDDh/RNvYrdZyPqrAQZXmFPdIfo+wIeK5Lm5bdAFkUHxlUCCMiXZzunLng2Nrm0Mlh/XjcIBI2GUS9k9mMnretjVWBwp3kNE/MFkulDzzXuYBt01s2K+QM8UrpCSsdowJYtGcZxVy3J7JRL8V3HPd3rohjXiHzrHzl0L8Nky4jSGQdfpRr5mA27HNi+EwI14vTxcpn3HZ+S8JPTiqCtIY6PekHeIowBG+KM5cnsdr1dxF9y/YONRaq35MJYPQfvgNpnel7ZMwLFNb4XyLTISU3vSZbAYI4yBovlrr02ojJSY+fRUpvCDWlitavkznMtI90uDK3KzeYgfYWBrGRwAeEg3rMB7R4LEVFeQICxFZFO2sxczGtqX/rbMiNw9R3q61cgW30bKJw23JHtqN9Ju9EHFlnkFeXAhWosSiChjEu2d5TMPRMWVdnxcvU6Gtm3q3UBTjozbnKJkev04oiXrtqTNO3paeq8upoP1TF4an+oeROJkDwvlFM15IME1U3WC1buKbDoDRMoq1yD11r+imd6x1icFwQloI7TjMiCmukkPSlRUdtW942v5+mpjN8LERuMwcEPKsM4aCWfFip0mjK2Mm8eMwCtqQ+T0HFg7eKSFj2vt3LQh8OIQuLVdCIUuVI4cl17kvbOR+lE/saTSGR7ME4q2jj9KzHuTRvsyh+t8zsCSlGH5ngHo2OalAAJv4Q1cGdF1err249xhjEHbPNMFvD8KYT8PEuEV10VR09z7gqwqCBtICSQscxH7DfbPPMpl95th3lxXXHwoyLFo1Z9cqJwBCtfG520UMN/pInHj+Eyvb7f6sm0+wUDdJnK16NWAszaMpTsmTMiviJj+t+CVQJrFdIg41QM8Xb5LVCSiT3PKtnkIM59IRIczILLtdgMYdxHhjqRhee15fD9rS9OnD3Fioa/hOw0u1A1L7qE7AZJQAglAUitNyiXzVGb8SCwH/rluFI4V8wGqT7oYn/LezTCwIwPbErAtNv7zGm1v+scrwbilMk77rehf83LJ/CQzfiOYm++pWYJ4gc2VQAJT1TpD4X3fgNQVrTIrL9vmyQz8rwim6GYxEWw/WyUQP4Zi8L1TNO8A4bigqcjeNBQ0bhA7p5g9HyTWxqeLKjOieEIVJF8lkCAstdhGdKlIFGuSZFEQ5gDPeosxZeU1Eo5cgfTPzJLrWiJJt/LyKZJnK23Fm1DTy7qR36mVOY8UO8w9VRfofeOM/JJW1CNVINy3a7KsDXk9ZwN/6i2PCAzS5oaO8Lni/IxuFKSdICuT3oHijKOItMCNIbzYLvOR4zMFoeYQsnKWKhAvKcc2+wGhpdUte0Ihi8QocVb1ZT+U0OjpEDEu0g3LexkY6sPPzNqqv2ewZ9w4TAJzD4j6167F8p7+7n7ac8GGUKAbj2QQbuPjtzogbC5B/KIQiPhe64gOgQ9CQNxtyiXzC8youYzdL3cCHmTAe3/wnJ+tJwhn6uBRGrAfA/vVP7uEvePSfs/QntFfHfebIIIZXL7r9m5l6GoAx/jlsuX3QVcHiOIGsZcukHLJ/AEzvhAk+Fs2zC/omcJuQj4dYuzYDS7qY14DxkX65MJ1tSirNtJmngON5oi+kKziEfJw+TaQd5Co1VcrRvXRLsFbFRD63A6XtdlB3tLLnhbSBbJqWfbQRILuF02UmW9KZQpCjc5EY4xGe9EnWCPWSCi4jNvHG9ZbPaa8Mz7A7rUMTGuYG8JrYL5aNwrfG8aq4sP1XnQ2vDBSdHVAw/VsApAuELZNvQyUAIwTTpJwgi7QwVwYfxQ6vLFsxnu2Smgvy0qdgTfAuJ6o+nZ8xFW/DcT745tXih+D+L8A2rMBnLe5yjzSQCQn6QLxgpdt824Gwh3ozrijQnzJBKMgbzm0CCMxtC2Xcl9j5m/GMLWmpNTKJ50RCSR7CoN+Epo9xgpo9Fu4/IILelpml4rQObXY0SmZ54JxVYvTaHp4Bv8kZRQCH7gjO8FIBOIl6djmgwAOkp1w3PC8t9YEPA2iF7oYN0f5QmugmD2diG6KGweR5cN8hZ4pXBAZfgDg6ARSzB0EYk8kHfXx9ix0G9YNURUts01OVDlKwZXcAC5sTpEJZNNVxPuZdUrY5Eatn+BZf6J1On25Y1njHxGQEvUdDfYEnJI0LCm9shqtN1KB8NJZ3YNda7wu4L7dwhstJF7+9LBu5CP9eblqmfmBhIbvgvDReNUePhsi/JUJF+k91u/Do8j1jFQgXqpvLM3usFWCFoEwVm7qMUeL+CoyXL1jm957Da9156j+eO/BdM29kNKLmt6aqB5xkQvEC14uzZjFrHnLEzrnwzxHzxSEjg4LS87qYvZIIvouATPCYrTQ7//AfJGeKdzWwhxGDN0UgXjRV5emT9fC7UWOI2/+ORF9WU/nG+ze7h9m2GKwf+d3VSpd/0OEU4N71bf03j8A/BxcLmgJbSeX8UGZ+ATc06UlLhrb82KYPeqyyqyL0zSBeFk4zswMBt35by50268p1bUwiMhJSjLT9K7Wrqud2thE5seJ+Lxa7XSqvwagzQ21bmu4UKJ5qPBcfXJ87jVGGoOmCsRLYtON+1yRQ+5lTqBmYXFlvZGassRbctOST2ihEPJ62vI9lcopmb2CIlkFYC4Rzx3pjJCWEOUTtOkCGc7H2xdAhHPa8QlXK5dGbDnem+7/5oBwILj+PQoBa5OGFbjTetk2B/zaBBHwhMv4fdcY96dbb7vwlTiKoF5OLRNI9WqyeNrY8oQx3qEq3hkRvmfXjRZyW7mHuh5Ha2xzv0r1eDPyHkG//222hH9omvax7km9rwXlefXSnXu0rq5HAWyxVYEf10D3JBL06NhJeaEt2EFjN8uupQLZvMhB29y3AjqIwN7gxXK7qO+gML6iZ6xRsV5qTd/0HYe0xGFgTILrPr62ixekQzxi5eXTxpeHxu7N4L01sA0N9yTThWW+XI0Sg9gIZHO+mKeNXVfaaiprNLXiYipzqNNOmzIEBDiA+wLQ9fxIzZqbkogKEgkDsRRIJJUqUMVACAaUQEKQplw6hwElkM4Za1VpCAaUQEKQplw6hwElkM4Za1VpCAaUQEKQplw6hwElkM4Za1VpCAaUQEKQplw6hwElkM4Za1VpCAaUQEKQplw6hwElkM4Za1VpCAaUQEKQplw6h4H/B4afrpvOHEHOAAAAAElFTkSuQmCC;" vertex="1" parent="V0m3F8l0XvwCJWidBoo5-17">
          <mxGeometry x="56" y="89" width="57" height="57" as="geometry" />
        </mxCell>
        <mxCell id="V0m3F8l0XvwCJWidBoo5-25" style="edgeStyle=orthogonalEdgeStyle;rounded=0;orthogonalLoop=1;jettySize=auto;html=1;exitX=0.5;exitY=0;exitDx=0;exitDy=0;entryX=0;entryY=0.5;entryDx=0;entryDy=0;curved=1;fillColor=#ffe6cc;strokeColor=#d79b00;" edge="1" parent="1" source="V0m3F8l0XvwCJWidBoo5-12" target="V0m3F8l0XvwCJWidBoo5-2">
          <mxGeometry relative="1" as="geometry">
            <mxPoint x="452" y="413.5" as="sourcePoint" />
            <mxPoint x="536" y="533.5" as="targetPoint" />
          </mxGeometry>
        </mxCell>
        <mxCell id="V0m3F8l0XvwCJWidBoo5-30" style="edgeStyle=orthogonalEdgeStyle;rounded=0;orthogonalLoop=1;jettySize=auto;html=1;exitX=0.5;exitY=0;exitDx=0;exitDy=0;entryX=0.5;entryY=1;entryDx=0;entryDy=0;curved=1;fillColor=#dae8fc;strokeColor=#6c8ebf;" edge="1" parent="1" source="V0m3F8l0XvwCJWidBoo5-27" target="V0m3F8l0XvwCJWidBoo5-12">
          <mxGeometry relative="1" as="geometry" />
        </mxCell>
        <mxCell id="V0m3F8l0XvwCJWidBoo5-32" style="edgeStyle=orthogonalEdgeStyle;rounded=0;orthogonalLoop=1;jettySize=auto;html=1;exitX=0.5;exitY=0;exitDx=0;exitDy=0;entryX=0.5;entryY=1;entryDx=0;entryDy=0;curved=1;" edge="1" parent="1" source="V0m3F8l0XvwCJWidBoo5-27" target="V0m3F8l0XvwCJWidBoo5-17">
          <mxGeometry relative="1" as="geometry" />
        </mxCell>
        <mxCell id="V0m3F8l0XvwCJWidBoo5-27" value="专家编辑" style="shape=image;imageAspect=0;aspect=fixed;verticalLabelPosition=bottom;verticalAlign=top;image=data:image/png,iVBORw0KGgoAAAANSUhEUgAAAMgAAADICAYAAACtWK6eAAAAAXNSR0IArs4c6QAAGztJREFUeF7tXQuYHFWV/k/1DAnvdHUiEgiSTNdMRB5q5LE85PktiiIiC3wKggiYdHUCCoKyul9gBeUhsCTTNYkPMAguKoKAoLwEAeURdBdkITPVIWh4BaarAwRIYLrOpjoTCOQxXV11blV3bn3ffB2Yc/5zzn/7n3rdey5hIzuycxduDZ8ngDEBwATCqs/gh8E7DP+/VxhYjPoP1z+JjX+u+m8s9or54FMfAMwfu9tjBSbUgBWEtyud5FdeLu68rF3IoXYpZEN1jOkd+KRh4HDAOBzgnjhqJuAWBm7u6Mzc8tKpk5bEgZlWjDF9T+2Y8TMHMGhXELav//iYUP9cx8F1saACQoUZFYP5Lhh8Z6XQ80haa1xfXm0pkB2vWjT61TeHDgdwKBiHrm8g4xosBu4F4XZw5raqPenxuHCTwqkLgjv3Z/B+AO0b1x8VEJ5lxj0E4x6fjHuWFiY+k1SNjcZtK4Fke/sPg2F8MRAFEcY1SkKsdoQH4ft3vN2B3tem9gzGii0MlnXKXyPwSQD2Eg41DM/zDDbmDRbz96iJFz5KWwgkO3fhvlTzpwM4NjwFYh5PAyh5QyjhNGuFWJQYgANhAPy1lZeNU2KACw1BwM1gY16l2HVDaGdhh5YWyJg5/bsZnCmC+VRhnqLAPwb2S16x58dRQCR8kxbG2jXR/WCe5xWtn0rU2wxmSwpka6d/UgZGkYAiA6OaKVy5D/MDgNHrFfO/VB57HQHNPvcyML6RhlzWIZRbYfAF3jTrwaTzazmBmKX+c0FGEcDYpMlrKj7RbT74u0sL1v805R+jk+mUHwF49xgh44NiHgL4Am+n7vNxIA3FBxwOqaUEknXc3uCsEa7EVFovBuMUr2jdkWR2ud6BPdmgh5LMYcTYjAeZ+IKq3X3riLYCBi0hkHGlJ7ao0eifAJymm/DIw8Hg46p29y8iA0UAMPvKZ4L5hxEglLjWRVLo/q6SYGsESb1AxvQt2jHDQ3cx0KWaHBXxiOj0SiE/S0Ws9cXIOu5NBHwuyRwaiU0Ep1KwlF5BpFoguVL/7kxGy719bWSw32vD8zy7+yvh/eLxyPaV96H6Q4SWOG7fbPnoI589Y8KbKrJNrUBMxz0FQOoejQoOylOebe0kiL9B6Fxf+SJmPjup+CHjvmqMGvXhwZN3eD6kX2jzVArEdNyvA7g8dDWt7/CmZ1ubJVHGlnP7x3bW6AGAYpmrpqIGzhj7Vad2iZ75UieQXG//kWwYqXujqmLAh2M84dnWLgrjvRPK7HO/unKWc2pe0jXCQQ1+1yt2TzBrQeRIlUDG9LkfMxh/E6m0hUCZcFO1YH0+iZRzjnszI5j53CoHe94QjZeazpMagWz1k8Vmx9vLnwRjm1YZGuE8L/Ns60zhGGvBZ53+TxOM21THjRjvYc+2RCZYpkYgpuP+GcDeEYlqK3eCP71i95RUF2X2ub8E4xjVcaPEI8a1laJ1fBSMdfmmQiDZPvdqYnw57uLaAM8H1z7jFSf/QWUtY2a7BxgZpHYK+nq5YP88r9hzbpxcJS4Qs8+dCUasRcVJUAqwXCL/wEqh5zmVuZhO+WcAn6gyZuRYwfytDH0yzkmOiQpkeFbuwy078TDyiDYGsHLG8g+qtvXvjVnHY9US87TWWSrd6tn5z8bDApCoQEzHvRTAGXEV0744/BplOveoTJ24QGWNWcf9OQGxX9dL10DEp1cK3bFM30lMIMFip4xvPNwy6zmkR3UEfAZKVdsKVk0qO8xS+VgQX6csYHyBXqKav39lRk/kPyiJCcTsK/8o5SsB4xuumJCI/D2VdgaZyYa5TTlocTQ+phKUwTBwTdW2Ij/4SUQgw2vI71fGVpsEYuDqqm0pvXE2nfLcYL16S1JI+JRXsG6PknsiAjEdNzhtp2Ftx/MMussg/NUHPU3kP73VqI6nl71F2Zo/NMkAT2Lf7wJlDgZ43yhEx+VLvnFIZXrX3XHhjYQztlQ+0Cf+4zt2hOuZ8ahBNJ82GZo/ePLk19bEGFcq54cIlgHkfeAgAicyI6CeE9F/e4X8l0aqcUO/Vy6QoDUPGUYiq8NWEcHLwHwpG5k7q4V88HKyoWPs3Ge2Zf/tQ5jrN63/2pCThBHRjV4h/wUJ6PVhmo7bD+ANA5g5aFs3h4ldf6fSQSeCOZHp/FEvS9ULxHHnEXBCGJLjs6V5nKFLq1O7/h4FM1samEpEwTQQKwpOs75GBlMGp1rK5qwFfQCivoDLOf2H+DAuVN1aKOoiK7UCmeWOMjtoEcDbNvvliOB3jGdbv47g/x7XLWa540ZlcDkTjosLs1EcBp1dtfOXNGqfFrutnX9kM1hxIUAq72lezxjGx16e1uU2w4NSgSR1ecVkHF4tdP2uGYJG8sn1uSVm2CPZxfz7OzzbOjRmTGVww51pZqoKGGU9u1KBJPFi0Mh0jh+cuuMLkoOR7XOPI8Y1kjHej80Z40PVqV1Bx/mWPBSLpOnVmqoFEixsmahqRP1NO7JLT5q4VEW8XK97BBv4rYpYq2IYX/XsrqvUxYs/kkqRGD6mDE4Pf9+mTCC5vv49mI1g3pWSwyd8XHVztlyp/B0mPl9FgcHWC1XbOkJFLMkYqhZoNds9RplAsqWB84noO5Jkr8YmNo5KqhGyyhY6ozObb/781PFvqOBUKoY5x90JPu6Uflsf7OdSsa3QrY2UCcR03CcBfFiK6HdxaZ5n5xN55h7ksGqzHvqTfJ3BizAc6xWsXymJJRgk2+cWiOEIhgjIqnljuzbDMfRWmDhKBBJse0Y1X8G9AC/jTGbvqO85whC4Lluzr/xfYD49Ks6I/oTLvYLV8rOhh78fwcZDwRZ4cgfTp71iPtTiMzUC6SvvTMyRXs41xJrAirKG4r7PyCyVJ4Dq9W7djH/DPoTrvYJ1dMP2KTbMldwfMOHbkikS48JK0TonTAw1AnHKnyaweCMAMoxDKtPUzVPaENGmU/4dwJ8JMxhN2Io1K2gil0gu2dkLd6GML7p9XTPr1lUJJNjaa24kBkdyJlriFfIfHMlM1e+zpYGziegi4XjPe7a1nXAMZfCmM/AYgo1CpQ7CfV7B2j8MvBKBmE75ewALd+bm6zy7+4thipe0Hes83eOjFnnBzkg5ekue7cR5Bya2f8ZI+YX5fdZxryaINu9Y5NnWpDA5qRKIeAOAZp9zhyErrK3puB6AbFi/MPa1Wm3SKzMmLwrjk1bbXKk8nYlnC+Y35NlWZxh8VQK5G+CDwiQW1lZyvlXYXFbbZx33UenZq77P+y+d3n1fszmmyU9Fu6GwU4+UCCTruC4BedHBMPARb5oVvGtJzWE6bvCOQvQpExOOrxasa1NTdIREVAiEfN6rMr274RkdqgSynIQ329xq045Nnzlp4vII4xO7a85xL2TgW7EDrwHIhHOqBetCyRiqsFUIBIyjvaJ1faM1KRGI6bhLAHyg0aSasQt76mwmRlgf0xmYK732gRnFatESfgsdtvLm7BUJ5AyvaDW8tYYSgai4FmeifcMsoW1uCMN5mU75ToAPCecVzjqN917hKnjX2uxbeBTYb/ive1NxmM7yivmG92RUJZAbCRBdvE+EEyoF6+dNkSbkZDruQgChHiuGTcU3Mh9dOm3SY2H90mifKw18h4lEZ0MT04mVYv7qRutXJJCBWQSa0WhSTdmlZJrJmrmbjstN1RLCaWiT0blXT5kQPE5u+cN03GDLvWDrPbkjZCsgVQI5i0AXy1UdINN8z87vIRujcfSxjvs5H7ipcY+mLF/3bGuLpjxT6KTikjTsOiElAlHWwpJpB6+YDzoBJn7kHNdhoCCaCGOBV7QULCEQraIOni0t3JfIF28maNRGbTc4o/HNP1UJZG8QN9yDqvnhSM8yVLPPfRwM2b0GGXd6RSu5Hl3ND9Rankr+oAAIOzVHlUCC6d8qGgykotuH2eceA8YvY/z+rBuKcaVXtE4WjyMcIDt34Q5Uq8/klV0eAFQ82xobphwlAgkSUnHDGsRh5mnVYrfszOENMTyTO8xt3L8AtHuYgWjKNoUPJpqpw3QGLgHom834hvQJ3d1EoUAGfgOQipaZ7ltD2GfZadbLIcmLxTzruN8iQMmbbc4Yuya9ejIqaUpeDg4nycC9Vds6MEzOygSSdRZ+ieArmTNE4DkVu1v2BnkdLI8pDXzUIApuNFU8WXI92+oOM9hptDUdN1gCq6QJHoFOq9j5ULOFlQlky7n9YztrhrK/6gyjULW75qj8UqjcqZeAiyq2JbpEVZo7lW2Sglp8Gpq4tPDhZ8LUpUwg9fuQ0sCtIDosTIKRbJtYpN9svJwz0Megac36h/Xzazhw6Qzr3rB+abHPllybCCq3uH7Is61/CVu/UoHkHLfIQG/YJCPan+nZ1mURMTborqr52RpJLPZsS7YDiCBhOcc9h4HvC4ZYC5qBb1dtK/QSaLUCmbtoMteGnlJJzHCsn3i2dWrccXNzFh7MPjsAK70XINCcip1Xfo8VB3+m4/4ewKfiwAqDYRjG7oPTuh4N4xPYKhXI8GXW/SBSvltT0KqTfb40ltV3M7kju035TCI6F8yjw5Ie2T7kmoao8caVFn3w5eLEF6Pg5Gb3T17ZcDvoJbxXFJzmfPkxz+7+aDO+CQik/1yQoaz1/VqkEF0BH5c2OyVl1UtA/qaS9xzrHtHnanhzl1fsXavNDHgzPlnHvdEAHhmV2fyKsK1Og525/KEVU0FGcAZPaDNQ+qFn589qpnblAhl+mhUseRSdBj4CGcGX665gf0IftbtesXuCrvPrPYLdkQDjEB84RHqN+UiDSMC/V2zrByPZxfX7rPP0roTa6un0TzFh9ibL3rh6yVm7vb6hGNmgWaBf+7dkhTGcYYSHNcoFUr/MctygXealcQ1iDDhVBp5euTVc/YfBWcCYBHAg4iSF/N7SmBcYo7N7DJ487j0bZ8ZQ/3ohzJJ7GQjfeK8BBY9KHyLiZ9j3V6z5OyLj4wxMSe5s8b5Mm2xavRolEYGgvhUbgrPIbpKD227YBEyv2JayR6NjL1qwpb9lpiy9XFpynKKuuExGIPV3Iv2ngowfSZLTZtiPeLa1p8qaFPSpEi2n2S0P3nNGFM1wBHCzNJDIE60ka242dtilos3GWdPPLLl/ASH0y7U4YseBEfXsEeSQ2Bmkfi9SKh8L4uviIKOtMYjv9grdos0f3s9fds7Cw8j3E9zPPtqIxnH2SFwgdZH0lW8Fs7rpJ9F4T8SbfP8Llek9N6oMnnXcnxNwvMqYccaK4+yRCoGs2ruQbgMoFydBbYPFPMsrdstvxrMGYfWXegb9HUQdrchjXGePVAgkSCJbGvgiEf2iFQdDNme+1bO7PysbY210lbvPCtT2Ggwc6k2zHowDO9F7kDULyDkD32XQ9+Ioqi0wmBd44/53ZxxzTE1lPfXdscDzQdhGZdy4YjH8qVW7J7ano6kRyKqb9oGrQJTYBpxxDVJ0HH67Bp480hv+6HHWRsg67gXB23oJbGlMBs+u2t2nxRknVQKpi8QZuA+g/eIsstWwDKaDBov5e1TnvbXTPylDxnwwTNWxo8Zj4J6qbcW+xUbqBDIskucASmhiW9ShiuZPRCdVCvmfRUNpztt0yhcD3NSkvuYixuY16NnWuNjQ1gBKpUBWicR9BcBWEkWnFjPBLiWrpqPTfIBUrKePdQiMzNvjB6fu9EKsoMNgqRXIKpHId0eXILUZTAYdVrXzwWKiRA5le7vHXR3TPl4x/5e4YVfjpVogQZKtfNPY4KAth4EpSe6OlZ27cBej5s9n4U2OGuSjUbPlRq3WNThj8vONOjRjl3qBDF9uBR2/g87f7XUw39dpGEcvKeRfSrKwXJ9bYoadZA7hYtP8DC8/6OXizsvC+YW3bgmBBGXlnPLnGbge4Ez4MlPpcZW35JpTcN55fpLZjXXKU/zgvUfC8/Ia5oD5Z16x+6SG7SMatoxA6pdbfeV9iP2fAtQTse6E3fkSz+4+O+Ek6uFVbDQaW50JTLtpKYHUzyR9/dv5bBQJPB2gLWMjXwUQ8d1U45LqiYfrK810Bk4C6EoVpUePwed7dvd/RMcJh9ByAlldXm7uosl+bWg6AcVwJSdi/QgxlcJs/SWd5bhSOV8j/2GA0v1SkPl6RuaKarHrAWlO1oXfsgJ5Ryh9/XusOqPghCQI3GBM5gVE1KtymWyjHJilgTlE9JW0PrkKGk0bRLMqhbzSaf7v56/lBfKOUHoXHswZLoL5yEa/JIJ2zxFQolFjelU2WAhbz5jeJz9kZDY5AczBTe/EsP5C9v/H8GfFOeEwSp5tI5B3hFJauDuodijXO4arbFBHL6xcnno7+/4dtRVv3f7qGTu3zMaa21+2eNPXR6/4MoGDs/A+Ub5QzfoSEOwIfKXBK2apeHzbaJ5tJ5A1C996ltuV6cDhYP4siA5ulJTG7egZgv8HH8bNSb4FbzzfkS1zff1HMhufGe6A+JGRPZq3WHn/+DIzbiGiWyp2/rfNI8l5trVA1qRtXOmJLYawyeFk1Hd+mgDGhPpnY93+Xgcj2Bx0+MdfbHQYNw9Otf4mNzTJIwc38j78fZkoOKsEzRsiC4aAFUEb2JVYv/Zs69fJV7nhDDYagayXhpn3dGw9dtsJRMYEytAq0fh4FYbxTyZa7Hd0Lm6Xfcijfhm37H0q10kdU0C8HbExHgaP931sR0Tjwf52CD6BoGtl0IivSqAqwPWf4N8M/LUVRLEmT1ogUb812r+tGdACaevh1cVFZUALJCqD2r+tGdACaevh1cVFZUALJCqD2r+tGdACaevh1cVFZUALJCqD2r+tGdACaevh1cVFZUALJCqD2r+tGdACaevh1cVFZUALJCqD2r+tGdACaevhbe/itv/V4k3feGV5zq9lchn2c8ycW9mfN2cwgs/O1dUzdbxIzI9nsPzxsFPpYxNI0B2jBkwh5m6AxzPRtrRqpuy2K3e0ba214+39vdqYq1tMTBdXivneRkloWiC53oE9mehoJkwZ3jtci6BR1rVdsgwQ7gTh64006wstkFxv/8Eg4yQmHJdslTq6ZiACA4xnkalvtPPkhlAaFkhwxvAzdA4xjoiQlnbVDKSLAR97e9PXvxtVQwLJ9rnHEeOadFWms9EMxMPAW0P4wLLTrJfXhTaiQExnYC5AX4snFY2iGUgfAwyUq7ZlhRaI6bicvnJ0RpqB+Bkg5msrxe61tr1e7xnEdAYWtH4P3PiJ1IjtywARzagU3vsIeJ0CyTruTQR8rn2p0JVpBtbJwItg2sMr5oPuNfVjLYHk+soXMXMqOo/rQdQMqGaACBdWCtY56xTImDkDnzR8+pPqpHQ8zUCKGHiNav4elRk9C9Y6g5il8g2gVPS2TRFfOpWNjYE191t/5xLLLJWPBfF1GxsZul7NwNoMUM3I8B5B58x3BeK4Dw73Y9WMaQY2egYImB5sW1EXSDC/ig3jro2eFU2AZuDdu/MrvYJ1cl0gG8FWy3rgNQMhGeB+z+6eXBeI6bhPxNG5O2QG2lwzkGoGiEZvT9m+8s7E/PdUZ6qT0wwkwMBKXRxFZqn/XJAxM4H4OqRmINUMMPB9CjZzBNHUVGeqk9MMJMPATynb5/5WL4JKhn0dNe0M8K1kOu5DAPZMe6o6P82AcgYYjwYC+cfK3UV3UB5cB9QMpJ+BxYFAVgDYJP256gw1A4oZILwVCESvGlTMuw7XOgyoEwj753nFnnNbh5p0Zxo06vPBwXbKQXM+2SNlY6fy1YQagbB/nu8b9y6dYd0rO5IbF7pZck8G8cUAmaKVp0wgY2a7BxiGf4CK93dKBGIYxu6D07oeFR3EjRTcdNzrARwlWn7KBBLUOnbOwk/4vj9ftO5gya2Ke5DO19/YYslZu70uXczGiG865YsBPku09hQKZJtLHtv87c03WyZatyqBeLY1Yv8t6ULbFV/J9XgKBRKMp4o/7krOIFogcvLUApHjNkDWApHlVxxdC0SWYi0QWX7F0bVAZCnWApHlVxxdC0SWYi0QWX7F0bVAZCnWApHlVxxdC0SWYi0QWX7F0bVAZCnWApHlVxxdC0SWYi0QWX7F0bVAZCnWApHlVxxdC0SWYi0QWX7F0bVAZCnWApHlVxxdC0SWYi0QWX7F0bVAZCnWApHlVxxdC0SWYi0QWX7F0bVAZCnWApHlVxxdC0SWYi0QWX7F0bVAZCnWApHlVxxdC0SWYi0QWX7F0bVAZCnWApHlVxxdC0SWYi0QWX7F0bVAZCnWApHlVxxdC0SWYi0QWX7F0bVAZCnWApHlVxxdC0SWYi0QWX7F0bVAZCnWApHlVxxdC0SWYi0QWX7F0bVAZCnWApHlVxxdC0SWYi0QWX7F0bVAZCnWApHlVxxdC0SWYi0QWX7F0bVAZCnWApHlVxxdC0SWYi0QWX7F0bVAZCnWApHlVxxdC0SWYi0QWX7F0bVAZCnWApHlVxxdC0SWYi0QWX7F0bVARClergUiyq88uBaIIMeEJ7VABPlVAa0FIsky3aoFIsmvAmwtEDmSmdGrBSLHrxJkLRBRms/UAhHlVx7cdMoXA3yWaCT2z/OKPeeKxggJPubyRWOMUUPVkG6hzAl0pBZIKMrSZ2w67vUAjhLNLIUCyZUGvsBEv5Gsu5NoGy0QSYaFsc2SezKILwbIFA2VMoFknQW7EjK3AdhOqm4G7q3a1oFaIFIMC+OOdcpTfPDNAMYLhwJSJhAV911ENKNSyKu5SRcfQB1AMxAzA8S8U6XY/ZSSM0jMuWs4zYAwA/yAZ3fvFwTRAhGmWsO3IAOEc72CdZ4WSAuOnU5ZnIHnjUznJwan7viCFog41zpAyzHwvgcS+hKr5UZQJyzGAPOiTsPYa0kh/9LqGFogYmxr4JZjgPnrXrH7ijXz1gJpuVHUCcswQPd7dv6T78fWApFhW6O2GAMMOqxq53+vBdJiA6fTlWeAwbOrdvdp64qkzyDy/OsIKWaAgXIHd+z3cnHii1ogKR4onVoyDDDh+GrBunZ90fUZJJlx0VHTwADjUK9o3bGhVLRA0jBQOgflDPjAEUttK5gNvcFDC2QkhvTv244BYv/ESrHn6kYK0wJphCVt0zYMkM+nV6Z3z2q0IC2QRpnSdu3AwEzPtv4zTCFaIGHY0ratzMBlnm2dGbYALZCwjGn71mOAcKVXsE5uJnEtkGZY0z4txADd4Nn5pru+aIG00FDrVMMyQH/07PzBYb3WtNcCicKe9k0tAwQ+rWJ3z46aoBZIVAa1f9oYWMREX64W8n+OIzEtkDhY1BgpYYBvMDKbTF+9njyOpLRA4mBRYyTFwCsg/BOMR/warlk6w7o37kT+Hy4gx0McMeyQAAAAAElFTkSuQmCC;" vertex="1" parent="1">
          <mxGeometry x="217" y="574" width="59" height="59" as="geometry" />
        </mxCell>
        <mxCell id="V0m3F8l0XvwCJWidBoo5-31" style="edgeStyle=orthogonalEdgeStyle;rounded=0;orthogonalLoop=1;jettySize=auto;html=1;exitX=0.5;exitY=0;exitDx=0;exitDy=0;entryX=0.5;entryY=1;entryDx=0;entryDy=0;fillColor=#dae8fc;strokeColor=#6c8ebf;" edge="1" parent="1" source="V0m3F8l0XvwCJWidBoo5-28" target="V0m3F8l0XvwCJWidBoo5-17">
          <mxGeometry relative="1" as="geometry" />
        </mxCell>
        <mxCell id="V0m3F8l0XvwCJWidBoo5-33" style="edgeStyle=orthogonalEdgeStyle;rounded=0;orthogonalLoop=1;jettySize=auto;html=1;exitX=0.5;exitY=0;exitDx=0;exitDy=0;entryX=0.5;entryY=1;entryDx=0;entryDy=0;curved=1;" edge="1" parent="1" source="V0m3F8l0XvwCJWidBoo5-28" target="V0m3F8l0XvwCJWidBoo5-12">
          <mxGeometry relative="1" as="geometry" />
        </mxCell>
        <mxCell id="V0m3F8l0XvwCJWidBoo5-28" value="GPT生成" style="shape=image;imageAspect=0;aspect=fixed;verticalLabelPosition=bottom;verticalAlign=top;image=data:image/png,iVBORw0KGgoAAAANSUhEUgAAAMgAAADICAYAAACtWK6eAAAAAXNSR0IArs4c6QAAIABJREFUeF7tXXmcHFW1/k71TEiCGFAE0eeCgsiS6eoEBXFBREUgSVcnBEEEVB4CEhaBQNhMgLA+9h0EF1Ylkq4OSBQVwQUfaNLVYX+IIIJA2JEkZGa6zptb3QMzyUzXvbduVXfP1P395q85995zz62v73bOdwhpSS2QWmBYC1Bqm9QCqQWGt0AKkPTrSC3QwAIpQNLPI7VACpD0G0gtoGeBdAXRs1taa5RYIAXIKJnodJh6FkgBome3tNYosUAKkFEy0ekw9SyQAkTPbmmtUWKBFCCjZKLTYepZIAWInt3SWqPEAilARslEp8PUs0AKED27pbVGiQVSgIySiU6HqWeBFCB6dktrjRILpAAZJROdDlPPAilA9OyW1holFkgBMkomOh2mngVSgOjZLa01SiyQAsTwRHPXtC1gWZu83axlvQWi12BZr9FfFzxvuLu0uZgtkAJE08A8efom8Ktbg2ED1kQwbw3CZInmXgfwJICnAHoSzEvB1t20bOEzEnVTkYQtkAJE0uDc9dV1QeP2BLAniLYHsL5kVVmxxwG+G6A7yHNd2UqpXLwWSAESYl/OOl8F+NsAHBCNjXc63m59pQAK2P8FVUo/T6jPtJshLJACZAij8BbT1sO4zOEADgH4g03+cp4D0cUY89bldN/iN5qsy6jrPgXIgCnnyVPHw88cD4YAx7tb7GtYAdBFyPSeTktuW9liuo1YdVKA1KeWc87eYPqfFlgxwj62Z0A4ksrurWGC6f+jW2DUA4RzM98H9FwPxi7RzZloC78BWQdSeeE/E+11lHU2qgHCduErAF8PYOM2nff/gHAolV0xhrTEYIFRCRCeOTODx3vOADAbQPvbgLAQY1Z/Oz3Em0dI+38cijYJtlTcI94ZdlCs2uriT4Oru1HltodaXdF20m9UAYQnOx9HFXcB+LDxSWIWLiXLATwL8CsgegHMzwHUG/TFvA6IugDx8o4PGO+/1uAb8HkKLSv9Mab2R12zowYgPDE/ERkS4NjQ0CyLq9a7QLgTRL+lpcVHZNsNVjHqnQzfnwRYXwZ4J9m6UnKMr1PFvUVKNhVqaIFRARC2Z2wOVP8M4H0Rv4c3wPghLLqNysV7Irb1dnXebtd3o3udfN/qcyAYnzfSLvNRVCldYKStUdzIiAcIZ6d8ENRxb8Rt1csAnY1V1SvpsUX/ifN74UmFLeHzSQC+EbkfxiUAd4KsjQHeYPgLCfIBvAb4LwHWiyB+BUwvAfQSMvQELbn10ci6tGkDIxogwS/z6rH3Arx1hPm5EJnOebRkgfDCTazU3OYz8wHeI7FOh+/oBYD+COZ7kPH/QEsXLWsBnRJRYWQDJOv8FoSdNS35ILi6V7NvhTg3bVvAOt/Y1kvTGGtUewOE38KnG7HBhDvo7p+8ZabZ1mtlxAKEbUfsv4/UMzmdS15RvJG0TGG7cCLA81tGoXcUWQXQjeCeeVS5/dkW1C+SSiMSIJxzdgXjDi3LMB1AleKPtOrGXIlzzs5g/DbmbvSbF2eeMZ1njKTIyREHEO4qbASL/w/ABOWZZv4OVUo/Vq6XQAXO5beCj2vrwVoJ9KjZhXgPsuhcrPTPiftCQ1NDpWojDyC285O+kNb9laxQE/42ea6o21Kl7oJ/GhhHtZRi4cq8DMJB7e51PKIAwnZ+B4DEe4dKYRB/i8ql61QqJSHLdmFm30p4QRu44DcwB/8Q629weLse5EcYQAoVgIU7h3xpwQc1tp2PgvkKEH1NfiAtLfkwMr270pLbn25pLYdQbsQAJIgdJ/xacQJuIs/dR7FObOK81cwxWKfnOPh8QoLx77GNZ42GX6r7id2XVIcm+hlJAFF886CHyCtuY8KIJtpge/rugH8RgI+baE+iDeERsBzg5+sOlZ0AtgDwXom6+iJEe1O5+DP9BpKtOSIAwl3TJ8HylyiZjqvbNPsRUOjLk2d8EtXqxQC+oqS/vPBzwZU38V2w6DF083J6sPSv4arz1jPfg0y34PjaCpaV63s9F46Un5DvTkaSDySvdI2MZLNlRgZAsvmbQbSXgjFPIM89U0HeuChPnjkBvd2ngkgQRJgubwSRkj6up2WlyFsa/tTM96OndwbA4uF1MzPK0rfIK/7UTFvxtdL2AAkYDqv+vxVM9DB5bhTfLIWuhhblrDMLhFMBCAdCk+VJgM8lr3S5yUYHtsXZwhRYPMtMDD99k7zijXHpaqLd9geI7czr26nMlTcGf5a8kvDuTbxwV+FLsFh8vGKvb7LcD8Z5ScaABA+XTCdG9jom+qLJ0AGTRhVttTVAeKuZ78KYnr9Lky4QFlLZnWHaiGHt1SIZA0qhQpis0v8ZS/qmcB5Vircr1TMoXAe98D7QjdJ8FWTlWpWdpe0AEmypeqtfA1m7AfxlJY5c3/8kLVv0mMHvo2FTwTmj2nsSwMcY7vNhEM+lcukXhtvVai7gLc6MvxiM72g1QHgAVnX7ViTEawuA1OI61hH8uN+qx3SrzwPhNiq709Qr6tXgXOFgMItzRtQoxgEKkPCWPa5V9+2cc2aAIRw9NVgp6cfkFfUApjdFUrVaGiD1OPJZYN4v+sMZ705eSc/DV8qUNSHOTtsJlnURGBMVqoWJCpfy07H+hPNa3WUj8AIQsfrApmGDWuv/jF2o4t6pXC/GCi0JEJ40fXuwP8/MTUlgvefIc+NiEqkBo8aYcm7AAm+00HXI0BxasvA5o83G2Bjnpn8EzH9W9iEj/AurO7eihxe8GaN6Sk23FEBiAEb9Z52vpErpECXLSAoH7vXknwKigyWrSIrxn2HREbTUVXsAlWw9bjHumroprIxwHH0n25ZMpxzfXMl0v6ZMSwCk9pbBF8cWf03YjcruYh0DDVcnOJha40XUofgbb7DtZ0A0u53cMYa1UY2A4k8A3qNkHyKbysWKUp2YhJsOELbzx4irSgDrxjRGYAxtSPcXXzbVPmfzB4HoNLMH8EC7eVh//bNb/ZyhYkee5EyGD0FkN066HuEuKru6XALS3cgINg0gdToecX8vmAbjK8zPU6WktswPo00tRQIEMEw7FN4E3zpupOYpZLswG+Bz1CY5mUuVMJ2aAhC2HRvMi0H0/jAFDfz/HvLcL0ZphydP3RDVjAio2jVKO2vXpWWAf0izXvbNjqVxa2w7HoCsQp9l8txJCvKxiCYOEM7mdwGReOB6VywjWrvRW8hzv67bV32l+6vyYbNxhy+CaU6rkkPo2qpRPbanfwrw71dq27cm07KFS5XqGBZOFCCcdb4JQtK5LK4mzz1I125sO2JSP6Vbf4hV4wKsqs4dCYQGqjbhrHMxCIcp1LuCPPd7CvLGRRMDCGed74JwlfERhDXIfDFVSkeEiQ31/+DRjyzx6GWgUBEZnk1L3CcMNCbVBH9m5jis7DkgyN9O2ATMTwPWPc16ia/7zglXH9k3qdfJc02n25ayXb9QIgDhXOFwMItouajlCYDmAv4mgHD+kyoXkedqEcix7QjP26jvJ4/0cd0eTuVSonxWbDviR+EEAButZSXm52HRqVR2r5CyoEEh5W+Bea9mpsKOHSD1K9ErI9lYTCgwr+82KliBFFejC8lzv6/TP9uFewD+gk7dIFcH6ATyipdp1teqxrlp08CWeNHfXKKBB+HTEbSsaGiVDO8xiFjs7FG5cr+BPHff8JbjkYgVIMHLuO+Lh6KMpvpVMC7E+M6T6S8LVvW3wbn8fmCSjUaLABBHbAdUw017Ab4KPWN+QA8teEVz3MrVODt1ayBzkSYXcQlV6yh6YOE/lDvWqMBqEaCvw3M3IIA1uopcJTaA1BkOHxhyiZdT20OV96MHSqKNQaXGF8WSCWLoAvKKWqRrbDtPAfiInLpiacPv0JGZlWS6gOAK2u+YD+b/jvBDJIbY3Rc6cCFW+fPjvkBQp1BtXpBbfACJcvtDdDaVi3OG+zDrDCByQUKE86nsHi39kQ8QVADI/wHWUeQt/KVOP7p1OFs4SsSF6LmXD9vri2A+Lm4KVrYdcVnxMamxE35AZVc80CZeYgEI2444FOtlN5IgclPiwKqFomoFLEkBhPBzKrsqhBGRJ5ntQh7g86U/ML0ePTAdRpWi2CIbL5zNXyRNWMG4lSpuU/KkGAdIfWslfh3UHwKJ95ehAGXbES/jv5eatbgBwnxw/+WBlD4RhDhXyNZvA3eM0Ixq1VtA1rGmQ2I55+wLhizd6xPkuYbYVNSGbx4gWecaEA5QUyOQLpDnivTMoUWJgzdugCB++prgRyfDZ2qHtIZaVEKA+Szwqvm07M4VEtKhIvVUcw+HCvYLdHeu14w4EaMA4ey0HMjScA3gfcgr3SRrLO7KbweL/ldS/hzy3OMkZQeJse2IW52QyDg13VX14FxhDphPNuxSr6pGv7zIX3iMzCov0wHbjmB3lNtpMLajiqvmqiKjRIiMWYDY+dsB2l1JL8J+VHaV3E8463waBElCNP1sUWw7TwIQIaQNCu1JXnGB0pglhDlX2AviV1vlFk2iXSMigk2F+dCopHR9W+W7+7bKcttF8vNUXrTIiP4KjRgDSH1/LDw2Vcop5LkiFkSpBHn72BIOhOEl5EasUQNsO4JSqLFru+GJq8VPCK8D+mz44BpKPAHCKVjpuxif+RiYxbuRijdtePfMP0MVxzaiMm1s34KgQpK7QJE8n4YrrSZhDiB2/haARD4L2XIfee72ssID5ZS2ctEAInEVaSZuoc4QKWImvqljkwF1XgXo5KFe8NkuHAiwoFw1S1BNmA+reqYqbY+S24nE7WZEuw1Z3QhA2J6xOVAVr86y7a1A1erSfbkN4kmAsqRBopxBwrdYxF+J4mfFm+26Dt419hiAj48YVdnT9yh7Oao9p9ADv3x1ONsEXF1+z3xw4GOm6+EwVPPPAXQ8vOJ1sq/ebOe/B5CcKw5hPpVdcRZLtMh+0A2V4pxzCRizpDVnHEQV92pp+TUE63RAcrm6415ByN+Ryov+oDMWzuX3AJPwm5J/rR+qI8JtsPB9FU/hwDXFylxhPL20OJ+QdQR5C0MzfXHOOQAMOZb3CLeROnPTXycyQHjydztRXb5cgeHwMfLcT0ZRWgkgzGdRpSR+nZWL1C2WZX2Gli6UvVELdAg+TrKuMnDO8ODzwVEOy5x19gThPAD/pWygxhVC30/6HmIFEaBs0tQzyXOFd3KiJTpAaq+6Uu8Xwch8nkbLSrdFGWXtA8s8KNVG3ABRiHqrhe5aZwAk3oksKf2HXjFEfo8TUXZvkN3ONOoriBtZ1SMCmcR1uBoDScOG+a0AfP6qM4d6P2G7sA/AN0jZgWgulYuCqTLREh0gWecXIMgSQmsfzAdapZ505hE5S9EZ5BUFC7lykfIXkkzEUz+QiglWT0/9juYrATojLobFgOL1rTFHC9ohJRaSMMvWwhVOWNO/S9Hp9FjyirIxQGEaSf8/EkDYdkS017AHwrW0iHig7W+vfikgcqFLFD6dvNJJEoJriUhd81r+5rR0kbgOHrJwV34qLBJbGJn4jBA1M58g79bHdcaiUodz0z4An85TTEok00UZTIf3+3cphS0wDqOKe6lMJyZlogEkm/86iOTyzRH+RWVXlyJ/0Jh50rTN4FuSH0rMAMn0fmSo7K3BKudXLzRInwoobOdMfCTclf88LBJRlYZzOfICEF0FDpII7SClK/HMZrDZRwOI7YgrOsmgev4f8krHShkjRKjOgzvsr/bg6jFvsTLWBwby5g5IrSbs0mFivAPaWN3n2n4+/JWnm/KJCtOPMddC1jsQRPMBbBgmH9v/fd4+ymWErl7RAJJzlkmzmBukk6zzvspGv2nffkidQeqsjTxzZgaP9x4M8CnGH+LWnt3nQDjO1CFd5uPhLaath7HWXBBETkWRETfZssYPUVKdawOknrPjdUlFjbor8+QpH0a1459yfUdaQcJdTdZZPQGrxm4bU2q1sCHeB/JnUXnR38IETf0/OP9R9TwwpppqU6Yd8lztb1Wm/eFktDtViuoDLyCvtGcURQfWbSmAAMJleytTY9Ns56fw6VhaVhTvUYmUOgGgODQnEafxOHmuKjeAETtEAEjhRIDFvlSmaDklDtdwglus8BVEZvSNZcRH/VaEHH/9ra8UGa2oUjo7ukryLdSvr8W2Mj7+qiZEbfZbQB8gOeda6QAextdNZmBVusWK29VE/ltaU/JVEJ2D1R2XikCgOl2PcFaMmgH3H2CaTZXiQn3V1GrypwvvxWoW5xMV1kSFTqgpbyBCQX2AqHBGVblrKHYSBQsNEuWuaVvAsh6VrB/FWVGN1UROoddAOB+rOy9YM0LO6EFfMKxQ5pAk3k36hx3cLvo4B4zpcqaQlPJp5yS5uwZqFQEgjnB3kPPfqfa8p5GHqaSZ3hZTCteMtoKIiwAjbzcARPTc+Vhn9fl03+I3Go05eIAVbwQmfpEZl0Cwgnjua6p21pXnXOEz9dh5M5zGmc71ackC2QshXbWHrBcFINJEXqZvIJR8sYAIK0jhGeU8e2ubeQWILkVv99mqPxIGb4xeqrM8/tDo1xPSWD0qUriHyP2QDt3eK+S5ZuNXFIygBRCeuPsGyHTKsga+Sp5rzgFOeMNOzE9ERuTWkCoRAOL8O2Lagxvg09FRb5fYLnwFYMGjGzVxTwWwDpVxRZeyrIRQnUD77EirIeEbVHZvlujOuIgeQLJTPgjqeEZSmxfIc40mykkwYEo42W0sOc4BYvQQQAeZ/hA565wECjJcRSuMW1Hl7+uGyup0Xndb+Ykml9cKIJNL8jzVP0Y9gHxq5vvR0yOblvg18twNdIw6XJ163jvJx7FIpA0vKrpXrOjjH51HXkkEQcVSeJv8h5ChCxQ8qIfXQ4TKTlj/9KRyItbd6oVvl4gDUSz0ENafsG1SukYDiHA7GGc1PGgOGP0K8lw5ahdJkyllK4oQica2I1jIZbeHNyBjHZtUPvM6u6TYdsnRdw5v28Sz6nKucJagN5Wc7nfEGNdSxRUcxIkVrRVEaMe2IwjE5NIfZ6rrqgb0N7JAnTX+L1JWigYQcfMTHr+RILvimmPmnHMaGFru/Gu0dS9867CkUp6xrfTQ/I6qCZ9HogDkIWkXi0xmS5OM50rMitHIq8UquV5DIDaRN7ZfL7YdcWFiaBtLP4aPOVEvFmR+vDhX+AE4cO5UKf/BGNrUZFrvRp1HAcgd0llfCbtR2V2sYoWGK0gtTkGSKCFS+gOJVTIe4jgVW3HOeRqMD6nUCZFd2eeqP588V1AExVrYLpwPsGKCI/05VR2MPkBU2LlFdijPVf2lGHYsnCvsCGbByhdeoqwg2fwqEI1t2AnRDlQuym33wrXVkmDbMfmgOVCHRNxWWIeRE9iUPFd4OsRa9AGixkhxJ3nuLqZGwl2FL8Hi38m1p/9rw7Yj8RhqfZq8hXIsj3IKK0uxbeRBc/h+Y04MFHgOEERskcoqmEhqNn2ATJrWBd+qSM6m0ZsszuW/DKbfSPYdJYmnBECQI89VpVyVVF1OLHaAvKPG5ejpPDmO1HJKFy/9+hgMwhvO0toAEQ2y7Yi96jipaWT+GlVKv5aSDRGqPzpJnkFwB8Z17jEwx6GsDlIriCSriWyfOnIJAkSoNyy1qY7uA+tonEd+2rfN0nhTkdc0KkBEyrHdpLojXEpl14g7tKKriVBPPGqeQJ4rXnKlixxAaAuqFCUZVqS7VhKUAwj9AauqUzCODgNIXAvL/bANr4nx9NY8eep4VDMiAE2OaZL5LYzt3jjM+VPJmGsIRwRI4VCAZalYjPlkBcQI1R4N71R6CFw9jCqLpLJTSQEkhPYnyuTI1mXbeRbABxrKE35NZfdrwco/efomqPritf8bsn0ML0dFUFWE/Qq/tciFc87eYEjnigH4QPJKcvSlGtpFA0jX1E1hZWTJEwDm75hKDsm2I35pttQYs6jiIoNjwrhspQBStT6uS8Ktqfta1diWcqpcTJ47aLXn3LQvgC3xGh81ZPglEO9I5ZJ8xqgGg2fbEZROkqG8/GfySp8zZcs124kEkODXKOv8DYTJUgoSHqCy2yUlGyLE2fxxfVewIsFMlHIhMp3zhoo14C9+ayxee+3t3OwNOknkurHRIOW2WPxL8kpThmqnzrIuwqejPDYuR6/fRQ8ueiHKhATflF3YH2D57XCMq7gJgMwC4RJpoxgMv2XbudHANuElMB+7Fi1m11fXhTX+zdBxDUMcF1rPoIDUFgu4gzx32OxfvPXM96Cz92wgyLeuWWjWUHlJdBpj2xGMnXJx7kxHU6Uosv4aL9EBohYbIrZZj1KlpLs1Wnt7kS18LqDcYUyMaB0PlnVIP1N7wAMl45DZNgAZfgUZaDfuKmwDK4g90di20HXkFfePOA9BdbYdkUZcpBOXKFQkr2g2zLfea2SA1AcjDlV7S4ykX+T75LkXKsiHinI2f5Ah9r+bQf4x6FjHl3Tpb/st1tDbrsJMEAv+K4XHO3PnAVZ7Z1tOnqsRtxP6WemTNgz61anl71Z5LFsJ39qCli2UDboKH0ntV8dULPcbYP53H+9weB6T1jikh99iAbeT5yqRvdXPYcItXTaPpFH+KiUfM47nut3IChKsIjlnkSLb3t3kuTtJffmKQpwtfALE4lz0VcWqGuLJMK43UkzuDEKLyCvmNQYofnhkPAoESc6z5BWjxJ8PUo9zhSvBfJCUzkwHUKX4IylZBSFzAAmys0Iyyq9/g0dnU7k4R0FfJdF66oGLwnOdKzU7WNiwK7+OJq0DELxInruRzhiG3eaBb5Frj35MXvE7crLyUsYAormK9HE904y4Sc44WzgKxHP7aHfeLW8aSUnLz9LSRbIEEpKNqonJAQSlPp8xR63lmrT8CgKzPndq/GcV8lyR3NVoMQwQ5bOIGMwKZDLbmgyoGvLXaJtpG6PDEu8mZn13LGxLS90lRmdFsbEWAgiMUzxJb+/wBnluePSnom2NAqT+a6PzNvEqwFPIK92rqL+yOHdNnwTLF+cTucQtYT1EyHIb1rTs//tu8J4DURhzTBIriHmAqKTYADYwTZBnHiCCp7WbRTiuxrVbctF5bOe/AYZIMxb2YTX+TpkfhUXnUtm9VvaDNinH2fy3QSRxONV/K1DYYsUBkN+B8SUpmxmmuBV9GgdIbRXJ7waQ8PTVKcLrNvZQz0BP4T3qZ443QnpAWAqyDlVNCa1joEB3cbUOFvnpPy/XRtsC5GdgfF1ujNbnTHORxQKQ+gTKX9GtNXpegHFj9teJ4ZAz5GApzk3/CNgXzOrRc5gwrkeHdVxc9D/cVdgIGT5Tmlm/f6iEhVR2ZbMRDzJQU1cQ27kKwHel5pWxC1XcO6VkJYXiA0jN2U9EHGomPqGHkOF8mMet5DilxNie/llw9RqpB8LGLQoCuTPwZvd59PfFIq9g5MKTv9uJ3heOApFIad2YaWWo3qIBRIxhjMwgjB/Ss841IIi88uGFsAeV3VvDBeUlYgNIsIrU/HoekFdnLcnXBcEYVUriVySxUvduFdu8qNfCT4F5Tp/v2c+jKM/ZwnQQCxJofZK4CPRETV1BVPLQgBzyiqUotl6zbqwACUBiO8f3/fqcEVHpMmAJrtvEyBEC79aO7tNBdHBE3cVJ7y74dIhq5CF35beDhfMA+mxkHdoVINn8zdL52mPIIxI/QHLODDB+EXmCgwaSIzXr17eeakFETX4x8hiYz8IGG5wSxi9bS3MtYl14j8h9vt2Afp7Ipq4gtiOiP+VsH0Me+SQAYooas3+q/wOmeXH5/w/3QXIuvweYzoucUIfwLzAO73v1ddfsi2uPmadKH0rV0HMLea7kbdDghpsKkGz+EekzYQabmT6zJgEQ+XtstQl/EuQfSeVFi9Sq6UsH3q2vvzY7yP4UtTD/CkSHCPIzFsFZmfFzwDhKmu9Yuf+2XUEk2C1rxjB9QRC0qWxnxQpsOyL1mFF29zVUWAxkjkgydwR3Tf8vWL7IJhud9IDwR3AQsixHBK5o/7fFI2SKbdYKUttqQmQalilPkeduKiOoIhMrQILHLLU4ERXdB8r2BGG/K/159NgiAchESnAtDL4K4K0T6TBKJ9EAItJUryPVfWajMbTk6h4p2RAhzjp7giB3A8j4HVXcL5vod2AbcQNkLzAnmTrrRfEqThX3atOGatRePZrxdABNyKVHRYBFssywOIybyHP30bEL246IzV9Xpq7JbQ7b+XMAmi3Tbx/hhDaDZqP24wWIGeYRSfsMEvPAdBhVin/SqaxTJ8jbaHWcYeRaOFwBwQl2Bbj3Mqrc/izbjgyBXxSANOUcwHbhQenVmWhvKhd/Fm46NYl4AWI7lwH4nppKJqV5ASgzm8oLBft5IoUnz/gkqtUrAewYQ4fdAF2GavdpAzPmsu3cBmBISp8BOtxMnqt1ZlJKlvTm6rEmvAc4N+0DYEuEEsuWWLgBYgZIoQTwNKkRMv8MJAgCDDyKrdkh4zR0VM8ymeUqbEz11+8bDFB81ruiRcjwUUNdY7JdWAhwobFOfCN5pW+G6T3U/1UuWkxtsfpof47oo/2RJfZ4jjy3MbOkzsDjvsVi2yn3sRhKRnnV0ghwLr8VmA4FsJ/h26/nQDyHyqXrNG2lVI1t50gwnxmaXyS81VAOXLYLCyQeFbXTBfSNRS4VncGrVradx+T9+OIJtxVTE/MKokAhSdZHB26F6m8D+8HnH0SO2Rj4EQq3dJ+OiOt8UqfzFFusqNxfglllHlVKgh+qYWHbETc9jT2RGddTxRU/OsqFbSc8FV3/Oue5kb8pzjm7giEymMmVGMO2Iw+m0QjYdkQGIDmm7vXXHzeUC0aN8ds6AQi8WA0Ws+cTDlJjd58LkNZN0eCB8WUYY82VzcPHdv6G8H71Sd2SXkE45/wKDPmES/7Kd9GyO8VFgvESN0AE4/cmElqHxhPXH41EqOyuEu3Jiwj/KF41P4qBg+0UIFLMRfT+pd/Dx+G0rPig/AACfuTrQNg3pI5IhYGVAAANvklEQVR2Lg0VGtCoZxD11Bb6dEYyNo4bIC9Jvg28TJ67oYzCbE/fHfAFlc/HZeQlZV4A4wf4ROe1tGBBVbKO+DA/DcKPDbCjPwnCbN1YBrYdoUMYGUV7AEQO7AOmyJpC3kLd6NXQqY4bIM9Lxqa/SZ6rFATEucIcMP/A3C1RYKtHwHwiVUrFhlvH7XZ9N1aPEdupA0Mt3FhAJAk9lcrFSCz1LBVUpH+QZduR/aGL5A/FajQ/wrJPk+fKbeE1JypugEjnUtdZms0mghlgQRG/UaUjhtrqcM7ZFwzBJC614g0/L3QdMjTHRGguS4WltgFAbOePaqTZfCJ5paixRg2hEzdApH35dQDSP7JaWmhcJv3qKv9r8hP41smCQ5jtGZuDqldKM2wM38ffYFmHmSR3YNu5HMAhITP9Iyq7cqGrazTEtrMcwPtkzKY7j2wXDgRYxUVI+Nx92DTNz5pjjBsg4deP/RoZoPDknHMYGCIRTMTD8iAzrQBoCcBfkPlAGsi8COJj4niHYTt/KRC8HQ1fGNdSxdXK/cG2I5LiyFCKriLPVfZKZtuxwfwXxTejM8lzT4g4J6HV4wVIzhG0NLNCtRACxDOpXIoceciTp26IaseZ0RLBSGksL0R0NqorTotyU9bw28/mLwLR4S0AkJXkuVJOjW+v/oKlxeL7AHxU3qBYCer8KJUXvKhQR0s0XoBkHfnsU8ynUqUk+HONlLqrvSB72M5Ig1qNiASX9P24fcHk0ifzD8krydHnrL3Fkl1BlC5bODfzfeCee5QfVYmOj3qxITud8QIkiJfw5TxqmX9FlZLZN45avrt9ABa3RGHu4LI2k5F7GOzPks2mK9NgwxVELk3A1eS5cqkE1gbIK5L5C1/vS4wklTYt4PeycJfGufEx8tzwvC1RjVqvHy9AZNOY9Q+mu3M9enhBeF5AjcGznT+m/hovNYEaXYgqL4NwMpVdkcIskVJ7we/9G8AfbNgh0VVULmoxtCg4K0ql+mbbEdspcYGjsq2qDY/9LyX1wyO6ixUgwXhUUvrGQPw18KOpJarsOS0WF3zGJfB75g50Q48bIZzNF/r81ITfV/gBOhpAJBPo4BXy3IZBY5zN7wIiQXCuHlxGOJ/K7tFx23Vg+0kA5HoAsm7W2h6nKkbjidM/BqsqOK/2Uqk3jOydsOhIWlp8xEBbUk0EV87cezGIviZVIfil4iupUmp8FTxMYwox6S+R5w55HRwkRR1rnQ7CYdI6Dxa8jzx3e8262tXiB0jO2RsMkeQzvDC/hQ7/Q7TkNvFyG3vh3LRtwZbwltXI6Iq/g/yjE2VVCVbA7lNDr3SHttzl5LmNr4KHqMdbzXwXxvTIxvkPmUzTQEiySAk9STDAxP5RrNFB/ACpbWtelh4YYT6V3ZOl5Q0I1oObBEvJZhLNvQGmUxLn5ao5RArXmg0kdBzqU7+MvJLclfuA2rXDNItbLJnyNkACQnDfPwAUEE9rpMIYqESy546BA40dIMHqbuf/pBAp+Bq6Oz8U12G90Sxz7VpaXDUP40ZC14A6Tkji/r1fz3qeRUFYt7nMFzq8DOsBpJYQVQQvyRXmU0EkokglA+XCmuVDySsJT4GmlGQAUnMsVMn5cVzfi6xIR5B4YeGI+NaY40H0TnJRkdLAt+bRAwv/kZRCAfE38YUg7GykT+ajZIKv1uyr7rEsHvKSL4zTqOKKVbNpJRmABFeRPc8pjPIFjOvcNKn8IEPpFZAG+NYUZPy7aOkiWfIyhSEOLVp/PBPuMlqPekO3GiF5jmp0X2QL9DfQ3JWjX4tEACI6YyUae1EBl1DFbew+YWwyWqMhrtEknWQ4Fl+b7qc2b4WDwZzYu04wEzFf96vMdnIAmVTYEj4/rKIcgJ3Ic+9WrNN24nVibLGlNEmduRzMh0fOTZIrnCVytCRk1H+D/SlUWSTIPlqiJAaQ4NfIdkQgvoo7idiWbRW3S3OzZiLwYgULT9zo+T8GDYKuQbX7WBOPlmznbwFoZuw2YixBhzXVRHyMSV2TBUgtBbNqTnFt2n6ThjLZVj3Ngfmc7dCLaW80NradJyJltpIz3CnkufPkRJOVShQgtVVEhoFjDSMY9vRN1sSDe6uHCot3HuW4iQZ6PwHQ0abTjwV0qplO4agYVxFb7n3Ic724OojabvIAyU75IKjjSQCdasrTLPKKgsq0LYuRPINrj/x1EE6DtdHFphjVB3bBuWnTwJbRnH/19l8M3ps267xahSSjGROfOEDqq4gKa/cAu9Ce5BUXNMNQun3WUrh1XALwTrptDFmP6CpYvSfF6ZbD5rmVBQHdZVjln5lkmooodm8OQERGJWv8Mr29LR9IXumaKINOom58kY3mzxnD2cPg+eOfIJwHq3ptkvzIJua5KQAJVpHagV280HZoDOQmjOv872Y+JA77UYl85v7yw8EQ54wJGmMbrsrfATrG9DljeHBM/xTg36+pv3CP/xuAO+DzYiyz/0o4xddsq6nVmgaQ2lYrSopoWga/16Flt4nzTEsUzk7bCWSJMN+IflODhvMmmOYm7xwpQQQx2OrCA/tOMBajo/qrOLd+SU52UwESgCTn/AGMz2sOWhCvnYUJE84JS62s2b5UtVoui4wgitAihx62kwTOGUP1zZ+ZOQ6rev6lENRUJs+dJGWsNhNqPkC2yX8IHbQ0IhHbMwDNIa8oItUSKzWX7qrITPtdRcqaxjqKxJ69fCg9UHogscEM6IjtwmyAFZxF2+NcqGPLpgMkWEVqWZkEq140tkLxGkt0CXnFn+oYQ7YO55ydwUFkXF62jpQc8/Ow6Cgqu0nmdRykWpB2whovMnLJhsSuRHfnxs0IT5CyaUShlgBIAJKar5YAiezENBr6i2C+Fh3VK2jJ7U9HtFFQnbsKXwL5+XqsgzrZQKgSdAYyvac3+5ZHMXGmcCrVJqQLNUkLCLQMQIKPcGJ+IjIkeJI0o+aGtKhIBPkXsPW/6LDupSW3Phpmd+6auinIsmFZEwHeFhzkGzTJ1viOCoTb0GsdmWSsyXDjr/mGQc1RkHhrKpdUnVDDpqBl/t9SAKn/Um8DiwWd/YdjtJKIcRZx1m+A8CoY4/ry4Qk6IPEXbZsnr/STAM8irySfSUm+bS1JzjlLwFA5bC8mz91Nq7M2qdRyAAlAYjviQxUv5sYTw7fAvBhJeWB6HMpbq2Cimhcrbnr8w7XXkgAJbI+5FnKVU8AQqddaVk/FiboJGeuYVnPprr/f3KU4lj+R5+pezyt21Tzxlv/w6qQFP0pw6xPHbDwMpoPiShwaRWG2gxfz3wFQSmAEy/qMyRQOUcYQZ92WB0iwmkyeOQHVHnEvbzBOO06zvt32K/X3mR8m0ptiJ3VCht8qgwMo9bmoO4rdtaV4WwCk37IB0ZtvXQnC5Daw9s3o6ZxFDy2IM55C2wz1dNXigkApXQGAV0H+NlReJBK0jvjSVgB5Byj5/cAkkqds0bIzRLQDlYt/aUX9+tJzi4SfIvGnRiEnKYdJDeWMV2lLgLwNFNsRy7w4xG9r3DKRG6SHBLMgLSs1h1NqGP05EgmDHvlcZFM2sYG2BsiAFeXLYGtfgAVg4nnQ054kug4+ZtOyosjz17TCk6ZvD98Xlx1baipxP3luE5MRaWodsdqIAMhAG7DtfBHg3cCYCqLEEq2EzMNK1OLqBf9voqVOECHoVLWY3evKvgjfmiSSmSaqfAt0NuIAMggsAfGyL7ZfNogmg5FT4J4SNKP/AOgpgEUuPLE66f769qv1MphvFGz3cW+9+NOF96LbPy5wqiQaG+Fbex1EO1K5WInQRttWHdEAMTkrNS/XdW8zGFv+eF9g1Y3w6dah8rHr6B7oSOOmgKxvACwIpKOWFX0OpDvHDeaoSsZZPwWIgnVZhNNWlwsXGLNu7sDyPuDd0/dL/XsQ3a2SjCcg2+5eJw/GjL5UyiJ7U5TVYqA13uxz8tyFvNK9CiYacaIpQDSmlO3CT41HDw7aG/JbIBKsks8C9DzY/zeIhINlvfB4gMR2bys94ovQQf8HRLu06jV1qPYGBVKAaBpTPepOs6Okq4mgLc7sTssWiijPUV9SgET4BIIgKotvrbvJR2ipRaqKiEyrc9ckEwS1yMiHVSMFSMQZqqc0FrHwO0RsqsnV6VzyirObrETLdZ8CxMCUsHDHt/MHACTeOd5joMkkm3gKsL5J3sI/J9lpu/SVAsTgTAVvD6v5AhD2NdhsXE2JW6ozsf4G5zeTMimuwZlqNwWIKUsOaIdz+a3g06kgzIih+ahNrgDhKnTSGXR/UT77cNRe27R+CpAYJ44nOZPh4zTFpEFxafQUmC/G2O5r6b7FgkQ6LRIWSAEiYaSoIhwkMe3+DkD7A/hE1PYU6guO3N/A50uxrHQ7iUjmtChZIAWIkrmiCwdetdVqP7+WeOiLo9wLpltR9RfQgyVBIZoWTQukANE0nIlqLGhXO60CfH9LEAmao/4/WZf9h0F4FMyPgOgxsPUoujOPjFSWQxM2V20jBYiqxRKSD/Kl0+oJ6O14NzK8HpjFDqkbbL2E3o6XWjWUNyHzJNZNCpDETJ121I4WSAHSjrOW6pyYBVKAJGbqtKN2tEAKkHactVTnxCyQAiQxU6cdtaMFUoC046ylOidmgRQgiZk67agdLZACpB1nLdU5MQukAEnM1GlH7WiBFCDtOGupzolZIAVIYqZOO2pHC/w/mOI+yJzN1HcAAAAASUVORK5CYII=;" vertex="1" parent="1">
          <mxGeometry x="329" y="574.5" width="58.5" height="58.5" as="geometry" />
        </mxCell>
        <mxCell id="V0m3F8l0XvwCJWidBoo5-34" value="Prompt组成" style="swimlane;whiteSpace=wrap;html=1;" vertex="1" parent="1">
          <mxGeometry x="507" y="180" width="168" height="208" as="geometry" />
        </mxCell>
      </root>
    </mxGraphModel>
  </diagram>
</mxfile>
